<?xml version="1.0" encoding="utf-8"?>
<!-- Generator: Adobe Illustrator 16.0.0, SVG Export Plug-In . SVG Version: 6.00 Build 0)  -->
<!DOCTYPE svg PUBLIC "-//W3C//DTD SVG 1.1//EN" "http://www.w3.org/Graphics/SVG/1.1/DTD/svg11.dtd">
<svg version="1.1" id="Layer_1" xmlns="http://www.w3.org/2000/svg" xmlns:xlink="http://www.w3.org/1999/xlink" x="0px" y="0px"
	 width="48px" height="48px" viewBox="0 0 48 48" enable-background="new 0 0 48 48" xml:space="preserve">
<g>
	<g opacity="0.75">
		<path fill-rule="evenodd" clip-rule="evenodd" d="M34.773,34.773v3.307h-3.55c-0.506-1.378-1.603-2.454-2.99-2.939v-3.527h3.38
			V18.387H18.387v3.307h-3.527c-0.493-1.412-1.601-2.52-3.013-3.013v-3.454h3.38V2H2v13.227h6.54v3.476
			c-1.883,0.691-3.233,2.484-3.233,4.606c0,2.123,1.351,3.916,3.233,4.607v13.47h13.447c0.671,1.921,2.479,3.307,4.629,3.307
			c2.15,0,3.958-1.386,4.63-3.307h3.527V48H48V34.773H34.773z M11.847,27.939c1.388-0.485,2.484-1.562,2.99-2.939h3.55v6.613h6.54
			v3.55c-1.354,0.497-2.42,1.563-2.917,2.917H11.847V27.939z"/>
	</g>
	<g>
		<g>
			<linearGradient id="SVGID_1_" gradientUnits="userSpaceOnUse" x1="23.9995" y1="1" x2="23.9995" y2="47.0005">
				<stop  offset="0" style="stop-color:#FFFFFF"/>
				<stop  offset="1" style="stop-color:#BABABA"/>
			</linearGradient>
			<path fill-rule="evenodd" clip-rule="evenodd" fill="url(#SVGID_1_)" d="M33.773,33.773v3.307h-3.55
				c-0.506-1.378-1.603-2.454-2.99-2.939v-3.527h3.38V17.387H17.387v3.307h-3.527c-0.493-1.412-1.601-2.52-3.013-3.013v-3.454h3.38
				V1H1v13.227h6.54v3.476c-1.883,0.691-3.233,2.484-3.233,4.606c0,2.123,1.351,3.916,3.233,4.607v13.47h13.447
				c0.671,1.921,2.479,3.307,4.629,3.307c2.15,0,3.958-1.386,4.63-3.307h3.527V47H47V33.773H33.773z M10.847,26.939
				c1.388-0.485,2.484-1.562,2.99-2.939h3.55v6.613h6.54v3.55c-1.354,0.497-2.42,1.563-2.917,2.917H10.847V26.939z"/>
		</g>
	</g>
</g>
</svg>
