<?xml version="1.0" encoding="utf-8"?>
<!-- Generator: Adobe Illustrator 16.0.0, SVG Export Plug-In . SVG Version: 6.00 Build 0)  -->
<!DOCTYPE svg PUBLIC "-//W3C//DTD SVG 1.1//EN" "http://www.w3.org/Graphics/SVG/1.1/DTD/svg11.dtd">
<svg version="1.1" id="Layer_1" xmlns="http://www.w3.org/2000/svg" xmlns:xlink="http://www.w3.org/1999/xlink" x="0px" y="0px"
	 width="40px" height="40px" viewBox="0 0 40 40" enable-background="new 0 0 40 40" xml:space="preserve">
<g>
	<g opacity="0.75">
		<path d="M17.976,31.096c-0.371,0-0.811-0.272-0.851-0.639c-0.11-0.984-0.108-1.978,0.006-2.953
			c0.045-0.374,0.338-0.65,0.749-0.638c1.268,0,2.375-0.688,2.822-1.755c0.469-1.119,0.178-2.422-0.725-3.24
			c-0.282-0.257-0.317-0.688-0.078-0.986c0.614-0.768,1.321-1.467,2.099-2.077c0.297-0.231,0.724-0.197,0.979,0.082
			c0.74,0.814,2.035,1.131,3.074,0.775c0.113-0.335,0.226-0.755,0.331-1.314c0.277-1.47,1.621-0.024,1.879-3.379
			c0-1.338-0.732-1.67-0.732-1.67s0.373-1.979,0.518-3.502C28.228,7.902,26.93,3,20.015,3c-6.916,0-8.213,4.902-8.031,6.8
			c0.146,1.522,0.52,3.502,0.52,3.502s-0.734,0.332-0.734,1.669c0.258,3.355,1.602,1.909,1.879,3.379
			c0.668,3.543,1.596,1.912,1.596,3.847c0,3.223-0.998,4.394-5.98,6.179c-5.001,1.79-8.248,4.614-8.248,5.859
			c0,1.244,0,2.766,0,2.766h18.793c-0.186-0.293-0.147-0.676,0.111-0.915c0.888-0.813,1.18-2.104,0.726-3.21
			C20.189,31.767,19.104,31.066,17.976,31.096z M39.931,27.902c-0.032-0.281-0.359-0.492-0.642-0.492
			c-0.915,0-1.726-0.537-2.067-1.369c-0.347-0.851-0.123-1.844,0.559-2.47c0.215-0.196,0.24-0.524,0.061-0.753
			c-0.468-0.595-1-1.133-1.58-1.599c-0.229-0.183-0.562-0.157-0.759,0.062c-0.595,0.659-1.663,0.904-2.488,0.56
			c-0.859-0.361-1.401-1.233-1.349-2.169c0.018-0.293-0.196-0.549-0.488-0.583c-0.746-0.086-1.498-0.089-2.246-0.006
			c-0.289,0.032-0.504,0.281-0.494,0.571c0.033,0.927-0.516,1.783-1.365,2.132c-0.816,0.333-1.877,0.09-2.471-0.563
			c-0.196-0.215-0.524-0.242-0.753-0.063c-0.599,0.47-1.142,1.008-1.614,1.598c-0.184,0.229-0.157,0.562,0.06,0.76
			c0.694,0.629,0.919,1.631,0.558,2.492c-0.344,0.82-1.195,1.35-2.171,1.35c-0.316-0.01-0.542,0.203-0.576,0.49
			c-0.088,0.751-0.089,1.516-0.005,2.272c0.031,0.281,0.369,0.49,0.654,0.49c0.869-0.021,1.703,0.518,2.054,1.369
			c0.349,0.852,0.124,1.844-0.558,2.47c-0.214,0.197-0.241,0.524-0.061,0.753c0.463,0.592,0.995,1.13,1.578,1.599
			c0.229,0.185,0.561,0.159,0.76-0.06c0.596-0.661,1.664-0.906,2.486-0.561c0.861,0.361,1.404,1.232,1.351,2.168
			c-0.017,0.294,0.198,0.55,0.489,0.584C29.234,38.978,29.618,39,30.003,39c0.365,0,0.729-0.021,1.096-0.061
			c0.289-0.032,0.504-0.281,0.493-0.572c-0.033-0.926,0.517-1.781,1.366-2.13c0.82-0.336,1.877-0.09,2.471,0.563
			c0.197,0.215,0.523,0.241,0.753,0.063c0.597-0.469,1.14-1.006,1.614-1.598c0.184-0.229,0.158-0.563-0.06-0.76
			c-0.694-0.629-0.92-1.631-0.56-2.492c0.34-0.81,1.16-1.354,2.041-1.354l0.124,0.003c0.286,0.023,0.549-0.197,0.584-0.489
			C40.014,29.423,40.015,28.659,39.931,27.902z M30.03,32.364c-1.836,0-3.328-1.494-3.328-3.332c0-1.837,1.492-3.332,3.328-3.332
			s3.328,1.495,3.328,3.332C33.358,30.87,31.866,32.364,30.03,32.364z"/>
	</g>
	<g>
		<g>
			<linearGradient id="SVGID_1_" gradientUnits="userSpaceOnUse" x1="19.5034" y1="2" x2="19.5034" y2="38.0005">
				<stop  offset="0" style="stop-color:#FFFFFF"/>
				<stop  offset="1" style="stop-color:#BABABA"/>
			</linearGradient>
			<path fill="url(#SVGID_1_)" d="M16.976,30.096c-0.371,0-0.811-0.272-0.851-0.639c-0.11-0.984-0.108-1.978,0.006-2.953
				c0.045-0.374,0.338-0.65,0.749-0.638c1.268,0,2.375-0.688,2.822-1.755c0.469-1.119,0.178-2.422-0.725-3.24
				c-0.282-0.257-0.317-0.688-0.078-0.986c0.614-0.768,1.321-1.467,2.099-2.077c0.297-0.231,0.724-0.197,0.979,0.082
				c0.74,0.814,2.035,1.131,3.074,0.775c0.113-0.335,0.226-0.755,0.331-1.314c0.277-1.47,1.621-0.024,1.879-3.379
				c0-1.338-0.732-1.67-0.732-1.67s0.373-1.979,0.518-3.502C27.228,6.902,25.93,2,19.015,2c-6.916,0-8.213,4.902-8.031,6.8
				c0.146,1.522,0.52,3.502,0.52,3.502s-0.734,0.332-0.734,1.669c0.258,3.355,1.602,1.909,1.879,3.379
				c0.668,3.543,1.596,1.912,1.596,3.847c0,3.223-0.998,4.394-5.98,6.179c-5.001,1.79-8.248,4.614-8.248,5.859
				c0,1.244,0,2.766,0,2.766h18.793c-0.186-0.293-0.147-0.676,0.111-0.915c0.888-0.813,1.18-2.104,0.726-3.21
				C19.189,30.767,18.104,30.066,16.976,30.096z M38.931,26.902c-0.032-0.281-0.359-0.492-0.642-0.492
				c-0.915,0-1.726-0.537-2.067-1.369c-0.347-0.851-0.123-1.844,0.559-2.47c0.215-0.196,0.24-0.524,0.061-0.753
				c-0.468-0.595-1-1.133-1.58-1.599c-0.229-0.183-0.562-0.157-0.759,0.062c-0.595,0.659-1.663,0.904-2.488,0.56
				c-0.859-0.361-1.401-1.233-1.349-2.169c0.018-0.293-0.196-0.549-0.488-0.583c-0.746-0.086-1.498-0.089-2.246-0.006
				c-0.289,0.032-0.504,0.281-0.494,0.571c0.033,0.927-0.516,1.783-1.365,2.132c-0.816,0.333-1.877,0.09-2.471-0.563
				c-0.196-0.215-0.524-0.242-0.753-0.063c-0.599,0.47-1.142,1.008-1.614,1.598c-0.184,0.229-0.157,0.562,0.06,0.76
				c0.694,0.629,0.919,1.631,0.558,2.492c-0.344,0.82-1.195,1.35-2.171,1.35c-0.316-0.01-0.542,0.203-0.576,0.49
				c-0.088,0.751-0.089,1.516-0.005,2.272c0.031,0.281,0.369,0.49,0.654,0.49c0.869-0.021,1.703,0.518,2.054,1.369
				c0.349,0.852,0.124,1.844-0.558,2.47c-0.214,0.197-0.241,0.524-0.061,0.753c0.463,0.592,0.995,1.13,1.578,1.599
				c0.229,0.185,0.561,0.159,0.76-0.06c0.596-0.661,1.664-0.906,2.486-0.561c0.861,0.361,1.404,1.232,1.351,2.168
				c-0.017,0.294,0.198,0.55,0.489,0.584C28.234,37.978,28.618,38,29.003,38c0.365,0,0.729-0.021,1.096-0.061
				c0.289-0.032,0.504-0.281,0.493-0.572c-0.033-0.926,0.517-1.781,1.366-2.13c0.82-0.336,1.877-0.09,2.471,0.563
				c0.197,0.215,0.523,0.241,0.753,0.063c0.597-0.469,1.14-1.006,1.614-1.598c0.184-0.229,0.158-0.563-0.06-0.76
				c-0.694-0.629-0.92-1.631-0.56-2.492c0.34-0.81,1.16-1.354,2.041-1.354l0.124,0.003c0.286,0.023,0.549-0.197,0.584-0.489
				C39.014,28.423,39.015,27.659,38.931,26.902z M29.03,31.364c-1.836,0-3.328-1.494-3.328-3.332c0-1.837,1.492-3.332,3.328-3.332
				s3.328,1.495,3.328,3.332C32.358,29.87,30.866,31.364,29.03,31.364z"/>
		</g>
	</g>
</g>
</svg>
