<?xml version="1.0" encoding="utf-8"?>
<!-- Generator: Adobe Illustrator 16.0.0, SVG Export Plug-In . SVG Version: 6.00 Build 0)  -->
<!DOCTYPE svg PUBLIC "-//W3C//DTD SVG 1.1//EN" "http://www.w3.org/Graphics/SVG/1.1/DTD/svg11.dtd">
<svg version="1.1" id="Layer_1" xmlns="http://www.w3.org/2000/svg" xmlns:xlink="http://www.w3.org/1999/xlink" x="0px" y="0px"
	 width="40px" height="40px" viewBox="0 0 40 40" enable-background="new 0 0 40 40" xml:space="preserve">
<g>
	<g opacity="0.75">
		<path d="M24,20c2.344,0,4-2,4-2v-1h-4C24,17,24,18.938,24,20z M18.484,5L24,9V3h2v7.545L32,15h4l-8-6V1h-6v4l-3.5-3L1,15h4
			L18.484,5z M14,18H9v5h5V18z M23,16h2v-3h-5v9l3-2V16z M39.916,28.902c-0.033-0.281-0.359-0.492-0.643-0.492
			c-0.915,0-1.727-0.537-2.066-1.369c-0.348-0.852-0.123-1.844,0.559-2.471c0.215-0.195,0.24-0.523,0.061-0.752
			c-0.468-0.596-1-1.133-1.58-1.6c-0.229-0.183-0.562-0.157-0.759,0.063c-0.595,0.658-1.664,0.904-2.488,0.56
			c-0.859-0.36-1.402-1.233-1.35-2.169c0.018-0.293-0.195-0.549-0.488-0.583c-0.746-0.086-1.498-0.089-2.246-0.006
			c-0.289,0.032-0.504,0.281-0.494,0.571c0.033,0.927-0.516,1.782-1.365,2.132c-0.815,0.333-1.877,0.09-2.471-0.563
			c-0.195-0.215-0.523-0.241-0.752-0.063c-0.6,0.47-1.143,1.008-1.615,1.598c-0.184,0.229-0.156,0.563,0.061,0.76
			c0.693,0.629,0.919,1.631,0.559,2.492c-0.345,0.82-1.195,1.35-2.172,1.35c-0.315-0.01-0.542,0.203-0.576,0.49
			c-0.088,0.752-0.089,1.517-0.005,2.272c0.031,0.28,0.369,0.489,0.654,0.489c0.869-0.021,1.703,0.519,2.054,1.369
			c0.35,0.853,0.125,1.845-0.558,2.471c-0.214,0.197-0.241,0.523-0.062,0.753c0.463,0.592,0.996,1.13,1.578,1.599
			c0.229,0.186,0.562,0.159,0.76-0.06c0.597-0.661,1.664-0.906,2.486-0.562c0.861,0.361,1.404,1.232,1.352,2.168
			c-0.018,0.295,0.197,0.551,0.488,0.584C29.218,39.979,29.602,40,29.986,40c0.365,0,0.729-0.021,1.097-0.061
			c0.289-0.032,0.504-0.281,0.492-0.572c-0.033-0.926,0.518-1.781,1.367-2.131c0.818-0.336,1.877-0.09,2.472,0.563
			c0.196,0.216,0.522,0.241,0.752,0.063c0.598-0.469,1.141-1.006,1.614-1.598c0.185-0.229,0.158-0.563-0.06-0.761
			c-0.694-0.629-0.92-1.631-0.561-2.491c0.34-0.811,1.16-1.354,2.041-1.354l0.124,0.003c0.286,0.023,0.55-0.197,0.584-0.489
			C39.998,30.423,40,29.659,39.916,28.902z M30.013,33.364c-1.836,0-3.327-1.494-3.327-3.332c0-1.837,1.491-3.332,3.327-3.332
			c1.837,0,3.328,1.495,3.328,3.332C33.341,31.87,31.85,33.364,30.013,33.364z M15,24h-5v4h8.994L19,20.002L15,20V24z M4,28h5v-5H4
			V28z"/>
	</g>
	<g>
		<g>
			<linearGradient id="SVGID_1_" gradientUnits="userSpaceOnUse" x1="10.2129" y1="5.2075" x2="30.1611" y2="39.7589">
				<stop  offset="0" style="stop-color:#FFFFFF"/>
				<stop  offset="1" style="stop-color:#BABABA"/>
			</linearGradient>
			<path fill="url(#SVGID_1_)" d="M23,19c2.344,0,4-2,4-2v-1h-4C23,16,23,17.938,23,19z M17.484,4L23,8V2h2v7.545L31,14h4l-8-6V0h-6
				v4l-3.5-3L0,14h4L17.484,4z M13,17H8v5h5V17z M22,15h2v-3h-5v9l3-2V15z M38.916,27.902c-0.033-0.281-0.359-0.492-0.643-0.492
				c-0.915,0-1.727-0.537-2.066-1.369c-0.348-0.852-0.123-1.844,0.559-2.471c0.215-0.195,0.24-0.523,0.061-0.752
				c-0.468-0.596-1-1.133-1.58-1.6c-0.229-0.183-0.562-0.157-0.759,0.063c-0.595,0.658-1.664,0.904-2.488,0.56
				c-0.859-0.36-1.402-1.233-1.35-2.169c0.018-0.293-0.195-0.549-0.488-0.583c-0.746-0.086-1.498-0.089-2.246-0.006
				c-0.289,0.032-0.504,0.281-0.494,0.571c0.033,0.927-0.516,1.782-1.365,2.132c-0.815,0.333-1.877,0.09-2.471-0.563
				c-0.195-0.215-0.523-0.241-0.752-0.063c-0.6,0.47-1.143,1.008-1.615,1.598c-0.184,0.229-0.156,0.563,0.061,0.76
				c0.693,0.629,0.919,1.631,0.559,2.492c-0.345,0.82-1.195,1.35-2.172,1.35c-0.315-0.01-0.542,0.203-0.576,0.49
				c-0.088,0.752-0.089,1.517-0.005,2.272c0.031,0.28,0.369,0.489,0.654,0.489c0.869-0.021,1.703,0.519,2.054,1.369
				c0.35,0.853,0.125,1.845-0.558,2.471c-0.214,0.197-0.241,0.523-0.062,0.753c0.463,0.592,0.996,1.13,1.578,1.599
				c0.229,0.186,0.562,0.159,0.76-0.06c0.597-0.661,1.664-0.906,2.486-0.562c0.861,0.361,1.404,1.232,1.352,2.168
				c-0.018,0.295,0.197,0.551,0.488,0.584C28.218,38.979,28.602,39,28.986,39c0.365,0,0.729-0.021,1.097-0.061
				c0.289-0.032,0.504-0.281,0.492-0.572c-0.033-0.926,0.518-1.781,1.367-2.131c0.818-0.336,1.877-0.09,2.472,0.563
				c0.196,0.216,0.522,0.241,0.752,0.063c0.598-0.469,1.141-1.006,1.614-1.598c0.185-0.229,0.158-0.563-0.06-0.761
				c-0.694-0.629-0.92-1.631-0.561-2.491c0.34-0.811,1.16-1.354,2.041-1.354l0.124,0.003c0.286,0.023,0.55-0.197,0.584-0.489
				C38.998,29.423,39,28.659,38.916,27.902z M29.013,32.364c-1.836,0-3.327-1.494-3.327-3.332c0-1.837,1.491-3.332,3.327-3.332
				c1.837,0,3.328,1.495,3.328,3.332C32.341,30.87,30.85,32.364,29.013,32.364z M14,23H9v4h8.994L18,19.002L14,19V23z M3,27h5v-5H3
				V27z"/>
		</g>
	</g>
</g>
</svg>
