<?xml version="1.0" encoding="utf-8"?>
<!-- Generator: Adobe Illustrator 21.0.0, SVG Export Plug-In . SVG Version: 6.00 Build 0)  -->
<svg version="1.1" id="Capa_1" xmlns="http://www.w3.org/2000/svg" xmlns:xlink="http://www.w3.org/1999/xlink" x="0px" y="0px"
	 viewBox="0 0 30 30" style="enable-background:new 0 0 30 30;" xml:space="preserve">
<style type="text/css">
	.st0{fill:url(#SVGID_1_);}
	.st1{fill:url(#SVGID_2_);}
</style>
<g>
	<g>
		<linearGradient id="SVGID_1_" gradientUnits="userSpaceOnUse" x1="15" y1="0" x2="15" y2="30">
			<stop  offset="0" style="stop-color:#FFFFFF"/>
			<stop  offset="0" style="stop-color:#F4F4F4"/>
			<stop  offset="0" style="stop-color:#FDFDFD"/>
			<stop  offset="1" style="stop-color:#BDBDBD"/>
			<stop  offset="1" style="stop-color:#000000"/>
		</linearGradient>
		<path class="st0" d="M21,12c-1.1,0-2.1,0.2-3,0.5V10h-8v2H6V8h2V0H0v8h4v16h6v4h5.4c1.5,1.2,3.5,2,5.6,2c5,0,9-4,9-9
			C30,16,26,12,21,12z M12.1,20H10v2H6l0-8h4v4h2.5C12.3,18.6,12.1,19.3,12.1,20z M21,27.9c-3.8,0-6.9-3.1-6.9-6.9
			c0-3.8,3.1-6.9,6.9-6.9c3.8,0,6.9,3.1,6.9,6.9C27.9,24.8,24.8,27.9,21,27.9z"/>
		<linearGradient id="SVGID_2_" gradientUnits="userSpaceOnUse" x1="21" y1="16" x2="21" y2="26">
			<stop  offset="0" style="stop-color:#FFFFFF"/>
			<stop  offset="0" style="stop-color:#F4F4F4"/>
			<stop  offset="0" style="stop-color:#FDFDFD"/>
			<stop  offset="1" style="stop-color:#BDBDBD"/>
			<stop  offset="1" style="stop-color:#000000"/>
		</linearGradient>
		<path class="st1" d="M24.3,20c-0.1-0.2-0.1-0.4-0.2-0.6l1.2-1.2l-1.4-1.4L22.7,18c-0.2-0.1-0.5-0.2-0.7-0.3V16h-2v1.7
			c-0.2,0.1-0.4,0.2-0.7,0.3l-1.1-1.1l-1.4,1.4l1.1,1.1c-0.1,0.2-0.2,0.4-0.3,0.7H16v2h1.7c0.1,0.2,0.2,0.5,0.3,0.7l-1.2,1.2
			l1.4,1.4l1.2-1.2c0.2,0.1,0.4,0.2,0.6,0.2V26h2v-1.7c0.2-0.1,0.4-0.2,0.6-0.3l1.2,1.2l1.4-1.4l-1.2-1.2c0.1-0.2,0.2-0.4,0.3-0.6
			H26v-2C26,20,24.3,20,24.3,20z M21,22.5c-0.8,0-1.5-0.7-1.5-1.5c0-0.8,0.7-1.5,1.5-1.5c0.8,0,1.5,0.7,1.5,1.5
			C22.5,21.8,21.8,22.5,21,22.5z"/>
	</g>
</g>
</svg>
