<?xml version="1.0" encoding="utf-8"?>
<!-- Generator: Adobe Illustrator 16.0.0, SVG Export Plug-In . SVG Version: 6.00 Build 0)  -->
<!DOCTYPE svg PUBLIC "-//W3C//DTD SVG 1.1//EN" "http://www.w3.org/Graphics/SVG/1.1/DTD/svg11.dtd">
<svg version="1.1" id="Layer_1" xmlns="http://www.w3.org/2000/svg" xmlns:xlink="http://www.w3.org/1999/xlink" x="0px" y="0px"
	 width="40px" height="40px" viewBox="0 0 40 40" enable-background="new 0 0 40 40" xml:space="preserve">
<g>
	<g opacity="0.75">
		<path d="M5,17c-2.209,0-4,1.791-4,4s1.791,4,4,4s4-1.791,4-4S7.209,17,5,17z M5,5C2.791,5,1,6.791,1,9s1.791,4,4,4s4-1.791,4-4
			S7.209,5,5,5z M5,29c-2.209,0-4,1.791-4,4s1.791,4,4,4s4-1.791,4-4S7.209,29,5,29z M13.91,12h10.388L21,8.339L21.729,7H13.91
			C12.855,7,12,7.896,12,9v1C12,11.104,12.855,12,13.91,12z M37.09,31H36v5h1.09c1.055,0,1.91-0.896,1.91-2v-1
			C39,31.896,38.145,31,37.09,31z M12,33v1c0,1.104,0.855,2,1.91,2H27v-5H13.91C12.855,31,12,31.896,12,33z M37.09,19H36v5h1.09
			c1.055,0,1.91-0.896,1.91-2v-1C39,19.896,38.145,19,37.09,19z M12,21v1c0,1.104,0.855,2,1.91,2H27v-5H13.91
			C12.855,19,12,19.896,12,21z M36,1h-1v7h-7V1h-1l-4,7.339L28,14v22c0.023,1.592,1.842,2.992,3.437,2.989
			C33.041,39,34.979,37.6,35,36V14l5-5.603L36,1z M31.505,36.997c-0.829-0.003-1.505-0.675-1.504-1.503
			c0-0.824,0.659-1.493,1.486-1.494c0.829,0.007,1.502,0.681,1.509,1.506C33,36.328,32.337,37,31.505,36.997z"/>
	</g>
	<g>
		<g>
			<linearGradient id="SVGID_1_" gradientUnits="userSpaceOnUse" x1="19.4995" y1="0" x2="19.4995" y2="37.9897">
				<stop  offset="0" style="stop-color:#FFFFFF"/>
				<stop  offset="1" style="stop-color:#BABABA"/>
			</linearGradient>
			<path fill="url(#SVGID_1_)" d="M4,16c-2.209,0-4,1.791-4,4s1.791,4,4,4s4-1.791,4-4S6.209,16,4,16z M4,4C1.791,4,0,5.791,0,8
				s1.791,4,4,4s4-1.791,4-4S6.209,4,4,4z M4,28c-2.209,0-4,1.791-4,4s1.791,4,4,4s4-1.791,4-4S6.209,28,4,28z M12.91,11h10.388
				L20,7.339L20.729,6H12.91C11.855,6,11,6.896,11,8v1C11,10.104,11.855,11,12.91,11z M36.09,30H35v5h1.09
				c1.055,0,1.91-0.896,1.91-2v-1C38,30.896,37.145,30,36.09,30z M11,32v1c0,1.104,0.855,2,1.91,2H26v-5H12.91
				C11.855,30,11,30.896,11,32z M36.09,18H35v5h1.09c1.055,0,1.91-0.896,1.91-2v-1C38,18.896,37.145,18,36.09,18z M11,20v1
				c0,1.104,0.855,2,1.91,2H26v-5H12.91C11.855,18,11,18.896,11,20z M35,0h-1v7h-7V0h-1l-4,7.339L27,13v22
				c0.023,1.592,1.842,2.992,3.437,2.989C32.041,38,33.979,36.6,34,35V13l5-5.603L35,0z M30.505,35.997
				c-0.829-0.003-1.505-0.675-1.504-1.503c0-0.824,0.659-1.493,1.486-1.494c0.829,0.007,1.502,0.681,1.509,1.506
				C32,35.328,31.337,36,30.505,35.997z"/>
		</g>
	</g>
</g>
</svg>
