<?xml version="1.0" encoding="utf-8"?>
<!-- Generator: Adobe Illustrator 16.0.0, SVG Export Plug-In . SVG Version: 6.00 Build 0)  -->
<!DOCTYPE svg PUBLIC "-//W3C//DTD SVG 1.1//EN" "http://www.w3.org/Graphics/SVG/1.1/DTD/svg11.dtd">
<svg version="1.1" id="Layer_1" xmlns="http://www.w3.org/2000/svg" xmlns:xlink="http://www.w3.org/1999/xlink" x="0px" y="0px"
	 width="64px" height="64px" viewBox="0 0 64 64" enable-background="new 0 0 64 64" xml:space="preserve">
<path fill="#0073A4" d="M17.836,41.6H1.364C0.611,41.6,0,42.221,0,42.984v15.008c0,0.764,0.611,1.385,1.364,1.385h16.472
	c0.753,0,1.364-0.621,1.364-1.385V42.984C19.2,42.221,18.589,41.6,17.836,41.6z M17.778,57.955H1.422V47.289h16.355V57.955z
	 M17.778,45.866H1.422v-2.844h16.355V45.866z M2.844,45.155c0.393,0,0.712-0.319,0.712-0.712c0-0.394-0.319-0.71-0.712-0.71
	c-0.394,0-0.71,0.316-0.71,0.71C2.133,44.836,2.45,45.155,2.844,45.155z M4.979,45.155c0.392,0,0.71-0.319,0.71-0.712
	c0-0.394-0.318-0.71-0.71-0.71c-0.394,0-0.712,0.316-0.712,0.71C4.267,44.836,4.584,45.155,4.979,45.155z M7.111,45.155
	c0.393,0,0.711-0.319,0.711-0.712c0-0.394-0.318-0.71-0.711-0.71c-0.393,0-0.711,0.316-0.711,0.71
	C6.4,44.836,6.718,45.155,7.111,45.155z M9.152,55.822l0.219-1.521L9.26,54.108c-0.014-0.025-0.012-0.062,0.008-0.085l0.284-0.333
	c0.025-0.029,0.07-0.029,0.095,0l0.284,0.333c0.02,0.023,0.021,0.06,0.008,0.085l-0.111,0.193l0.219,1.52
	c1.713-0.031,2.752-0.245,2.752-0.466c0.001-1.086-0.676-1.135-1.429-1.399c-0.465-0.163-1.041-0.256-0.918-1.127
	c0.308-0.306,0.413-0.932,0.413-0.932s0.407-0.224,0.453-0.65c0.035-0.326-0.121-0.479-0.121-0.479s0-0.021,0-0.412
	c0-0.921-0.725-1.646-1.596-1.646c-0.874,0-1.598,0.727-1.598,1.646c0,0.391,0,0.412,0,0.412s-0.155,0.153-0.122,0.479
	c0.047,0.428,0.455,0.65,0.455,0.65s0.104,0.628,0.413,0.932c0.123,0.871-0.453,0.963-0.917,1.127
	c-0.753,0.265-1.431,0.313-1.431,1.399C6.4,55.576,7.438,55.79,9.152,55.822z M40.592,41.6H23.408c-0.752,0-1.364,0.621-1.364,1.385
	v15.008c0,0.764,0.611,1.385,1.364,1.385h17.184c0.753,0,1.363-0.621,1.363-1.385V42.984C41.955,42.221,41.345,41.6,40.592,41.6z
	 M40.533,57.955H23.467V47.289h17.066V57.955z M40.533,45.866H23.467v-2.844h17.066V45.866z M24.888,45.155
	c0.393,0,0.712-0.319,0.712-0.712c0-0.394-0.319-0.71-0.712-0.71c-0.394,0-0.71,0.316-0.71,0.71
	C24.178,44.836,24.495,45.155,24.888,45.155z M27.023,45.155c0.392,0,0.71-0.319,0.71-0.712c0-0.394-0.318-0.71-0.71-0.71
	c-0.394,0-0.712,0.316-0.712,0.71C26.311,44.836,26.629,45.155,27.023,45.155z M29.156,45.155c0.393,0,0.711-0.319,0.711-0.712
	c0-0.394-0.318-0.71-0.711-0.71s-0.711,0.316-0.711,0.71C28.444,44.836,28.763,45.155,29.156,45.155z M31.552,55.822l0.219-1.521
	l-0.111-0.193c-0.013-0.025-0.012-0.062,0.009-0.085l0.284-0.333c0.024-0.029,0.07-0.029,0.095,0l0.284,0.333
	c0.021,0.023,0.021,0.06,0.008,0.085l-0.11,0.193l0.218,1.52c1.713-0.031,2.752-0.245,2.752-0.466
	c0.002-1.086-0.676-1.135-1.428-1.399c-0.466-0.163-1.041-0.256-0.919-1.127c0.308-0.306,0.413-0.932,0.413-0.932
	s0.406-0.224,0.453-0.65c0.035-0.326-0.121-0.479-0.121-0.479s0-0.021,0-0.412c0-0.921-0.726-1.646-1.596-1.646
	c-0.874,0-1.598,0.727-1.598,1.646c0,0.391,0,0.412,0,0.412s-0.155,0.153-0.122,0.479c0.046,0.428,0.455,0.65,0.455,0.65
	s0.104,0.628,0.412,0.932c0.124,0.871-0.452,0.963-0.917,1.127c-0.754,0.265-1.432,0.313-1.432,1.399
	C28.8,55.576,29.837,55.79,31.552,55.822z M62.636,41.6H46.164c-0.753,0-1.364,0.621-1.364,1.385v15.008
	c0,0.764,0.611,1.385,1.364,1.385h16.472c0.753,0,1.364-0.621,1.364-1.385V42.984C64,42.221,63.389,41.6,62.636,41.6z
	 M62.578,57.955H46.223V47.289h16.355V57.955z M62.578,45.866H46.223v-2.844h16.355V45.866z M47.644,45.155
	c0.393,0,0.712-0.319,0.712-0.712c0-0.394-0.319-0.71-0.712-0.71c-0.394,0-0.71,0.316-0.71,0.71
	C46.934,44.836,47.25,45.155,47.644,45.155z M49.778,45.155c0.393,0,0.711-0.319,0.711-0.712c0-0.394-0.318-0.71-0.711-0.71
	c-0.394,0-0.712,0.316-0.712,0.71C49.066,44.836,49.385,45.155,49.778,45.155z M51.911,45.155c0.393,0,0.711-0.319,0.711-0.712
	c0-0.394-0.318-0.71-0.711-0.71c-0.394,0-0.711,0.316-0.711,0.71C51.2,44.836,51.518,45.155,51.911,45.155z M53.953,55.822
	l0.218-1.521l-0.111-0.193c-0.013-0.025-0.013-0.062,0.009-0.085l0.284-0.333c0.025-0.029,0.069-0.029,0.095,0l0.284,0.333
	c0.02,0.023,0.021,0.06,0.008,0.085l-0.11,0.193l0.219,1.52c1.713-0.031,2.752-0.245,2.752-0.466
	c0.001-1.086-0.677-1.135-1.429-1.399c-0.466-0.163-1.04-0.256-0.918-1.127c0.308-0.306,0.412-0.932,0.412-0.932
	s0.407-0.224,0.454-0.65c0.034-0.326-0.121-0.479-0.121-0.479s0-0.021,0-0.412c0-0.921-0.726-1.646-1.597-1.646
	c-0.874,0-1.598,0.727-1.598,1.646c0,0.391,0,0.412,0,0.412s-0.155,0.153-0.122,0.479c0.046,0.428,0.454,0.65,0.454,0.65
	s0.104,0.628,0.413,0.932c0.123,0.871-0.452,0.963-0.917,1.127c-0.753,0.265-1.431,0.313-1.431,1.399
	C51.2,55.576,52.237,55.79,53.953,55.822z"/>
<g>
	<path fill="#333333" d="M30.71,23.111l0.627-3.955l-0.316-0.499c-0.045-0.069-0.038-0.16,0.02-0.22l0.822-0.871
		c0.071-0.074,0.199-0.074,0.272,0l0.824,0.871c0.058,0.06,0.065,0.151,0.019,0.22l-0.314,0.499l0.629,3.954
		c4.953-0.081,7.952-0.636,7.952-1.213c0-2.821-1.956-2.945-4.131-3.641c-1.343-0.426-3.002-0.667-2.647-2.928
		c0.883-0.792,1.189-2.419,1.189-2.419s1.176-0.58,1.312-1.691c0.101-0.847-0.352-1.241-0.352-1.241s0-0.061,0-1.074
		c0-2.394-2.094-4.279-4.611-4.279c-2.52,0-4.613,1.884-4.613,4.279c0,1.013,0,1.074,0,1.074s-0.45,0.394-0.35,1.241
		c0.135,1.111,1.309,1.691,1.309,1.691s0.308,1.629,1.192,2.419c0.354,2.262-1.306,2.502-2.647,2.928
		c-2.175,0.697-4.131,0.822-4.131,3.641C22.755,22.474,25.754,23.028,30.71,23.111z"/>
	<path fill="#333333" d="M9.245,38.756c0.648,0,1.422-0.767,1.422-1.422v-4.268h19.911v4.268c0,0.653,0.771,1.422,1.422,1.422
		c0.65,0,1.422-0.767,1.422-1.422v-4.268h19.911v4.268c0,0.653,0.771,1.422,1.423,1.422c0.649,0,1.422-0.767,1.422-1.422v-5.689
		c0-0.653-0.772-1.422-1.422-1.422H33.422v-3.556c0-0.653-0.771-1.221-1.422-1.221c-0.65,0-1.422,0.567-1.422,1.221v3.556H9.245
		c-0.649,0-1.422,0.768-1.422,1.422v5.689C7.823,37.987,8.596,38.756,9.245,38.756z"/>
</g>
</svg>
