<?xml version="1.0" encoding="utf-8"?>
<!-- Generator: Adobe Illustrator 16.0.0, SVG Export Plug-In . SVG Version: 6.00 Build 0)  -->
<!DOCTYPE svg PUBLIC "-//W3C//DTD SVG 1.1//EN" "http://www.w3.org/Graphics/SVG/1.1/DTD/svg11.dtd">
<svg version="1.1" id="Layer_1" xmlns="http://www.w3.org/2000/svg" xmlns:xlink="http://www.w3.org/1999/xlink" x="0px" y="0px"
	 width="62px" height="50px" viewBox="0 0 62 50" enable-background="new 0 0 62 50" xml:space="preserve">
<g>
	<g opacity="0.75">
		<path fill-rule="evenodd" clip-rule="evenodd" d="M7.037,42.39L4.628,49c0,0,8.431-3.051,19.051-4.983
			c12.536-2.483,21.679-2.567,21.679-2.567l3.066-8.1c0,0-12.537,0.39-23.869,3.166C13.223,39.293,7.037,42.39,7.037,42.39z
			 M7.913,40.045l26.934-24.156c0,0-14.836,2.813-26.496,6.98c-3.23,3.21-6.351,6.1-6.351,6.1l10.511-1.504L7.913,40.045z
			 M47.109,11.412l-21.46,20.4c8.431-2.997,24.745-4.438,24.745-4.438l1.752-4.261L62,22.24L47.109,11.412z M45.795,10.311L34.847,3
			c0,0-4.927,2.639-9.416,5.823c-4.489,3.185-8.54,6.056-8.54,6.056s8.707-2.176,14.233-3.148
			C38.24,10.48,45.795,10.311,45.795,10.311z"/>
	</g>
	<g>
		<g>
			<linearGradient id="SVGID_1_" gradientUnits="userSpaceOnUse" x1="30.9995" y1="2" x2="30.9995" y2="48.0005">
				<stop  offset="0" style="stop-color:#FFFFFF"/>
				<stop  offset="1" style="stop-color:#BABABA"/>
			</linearGradient>
			<path fill-rule="evenodd" clip-rule="evenodd" fill="url(#SVGID_1_)" d="M6.037,41.39L3.628,48c0,0,8.431-3.051,19.051-4.983
				c12.536-2.483,21.679-2.567,21.679-2.567l3.066-8.1c0,0-12.537,0.39-23.869,3.166C12.223,38.293,6.037,41.39,6.037,41.39z
				 M6.913,39.045l26.934-24.156c0,0-14.836,2.813-26.496,6.98c-3.23,3.21-6.351,6.1-6.351,6.1l10.511-1.504L6.913,39.045z
				 M46.109,10.412l-21.46,20.4c8.431-2.997,24.745-4.438,24.745-4.438l1.752-4.261L61,21.24L46.109,10.412z M44.795,9.311L33.847,2
				c0,0-4.927,2.639-9.416,5.823c-4.489,3.185-8.54,6.056-8.54,6.056s8.707-2.176,14.233-3.148
				C37.24,9.48,44.795,9.311,44.795,9.311z"/>
		</g>
	</g>
</g>
</svg>
