<?xml version="1.0" encoding="utf-8"?>
<!-- Generator: Adobe Illustrator 21.1.0, SVG Export Plug-In . SVG Version: 6.00 Build 0)  -->
<svg version="1.1" id="Layer_1" xmlns="http://www.w3.org/2000/svg" xmlns:xlink="http://www.w3.org/1999/xlink" x="0px" y="0px"
	 viewBox="0 0 64 64" style="enable-background:new 0 0 64 64;" xml:space="preserve">
<style type="text/css">
	.st0{fill:#0073A4;}
	.st1{opacity:0.1;}
	.st2{fill:#333333;}
</style>
<g>
	<g>
		<path id="X_part_2_" class="st0" d="M54.6,16.1H64l-8.4,14.1L50.9,22L54.6,16.1z"/>
		<path id="D_curve_2_" class="st0" d="M41.4,37.7l5.3,9.1c0,0-1.8,5.1-9.5,10.2c-7.3,4.8-20.3,3-20.3,3v-9c0,0,9.4,2.5,16-1.7
			C39.3,45.3,41.4,37.7,41.4,37.7z"/>
		<rect id="D_line_2_" x="16.9" y="32.9" class="st0" width="8.4" height="19.1"/>
		<polygon id="i_and_D_2_" class="st0" points="0,16.1 38.5,16.1 34.5,24.5 0,24.5 		"/>
		<path id="i_part_2_" class="st0" d="M0,32.9h8.4v27.4L0,51.9V32.9z"/>
		<g>
			<path id="X_line_4_" class="st0" d="M38.5,16.1L64,60.3l-9.7,0L33.6,24.5L38.5,16.1z"/>
		</g>
		<g class="st1">
			<path id="X_line_3_" class="st0" d="M41.3,37.9l5.3,9.1c0,0-0.3,0.8-1.4,2.5c-0.9,1.3-2,2.5-2,2.5l-4.7-8.3c0,0,0.7-1.1,1.3-2.1
				C40.9,39.3,41.3,37.9,41.3,37.9z"/>
		</g>
	</g>
	<g id="realtyna_2_">
		<g>
			<g>
				<path class="st2" d="M5.9,10C5.8,9.9,5.7,9.7,5.6,9.5L4.7,8.2C4.4,7.7,4,7.2,3.6,7C3.9,7,4.2,6.9,4.5,6.7
					c0.2-0.1,0.4-0.3,0.5-0.5C5.1,6,5.1,5.7,5.1,5.5c0-0.3-0.1-0.6-0.3-0.9S4.4,4.1,4,4C3.6,3.8,3.5,3.7,3,3.7H0v0.1
					c0.3,0,0.5,0.1,0.7,0.2c0.1,0.1,0.2,0.4,0.2,0.7v4.7c0,0.3-0.1,0.5-0.2,0.6c-0.1,0.2-0.3,0.2-0.7,0.2v0.1h2.7v-0.1
					c-0.2,0-0.3,0-0.5-0.1S2,10.2,1.9,10C1.8,9.9,1.8,9.7,1.8,9.5V7.3H2c0.3,0,0.5,0.1,0.7,0.2c0.2,0.1,0.4,0.3,0.5,0.6
					c0.2,0.3,0.7,0.8,1.1,1.5c0.1,0.2,0.4,0.5,0.6,0.9h1.6v-0.1c-0.1,0-0.2,0-0.3-0.1C6.2,10.2,6.1,10.1,5.9,10z M2.1,6.9H1.8V4.1
					h0.4c0.3,0,0.6,0.1,0.9,0.2c0.2,0.1,0.4,0.3,0.5,0.5c0.1,0.2,0.2,0.4,0.2,0.7c0,0.5-0.1,0.8-0.4,1.1C3.1,6.8,2.7,6.9,2.1,6.9z
					 M12.9,9.6c-0.1,0.2-0.3,0.3-0.5,0.4c-0.2,0.1-0.4,0.1-0.7,0.1h-0.4c-0.6,0-1-0.3-1-0.8V7.3h1.2c0.3,0,0.5,0.1,0.7,0.2
					c0.2,0.1,0.3,0.3,0.3,0.6h0.1v-2h-0.1c0,0.3-0.1,0.5-0.3,0.6c-0.2,0.1-0.4,0.2-0.7,0.2h-1.2V4.1h1.5c0.2,0,0.4,0,0.6,0.1
					c0.1,0.1,0.3,0.2,0.3,0.4C12.8,4.8,12.9,5,13,5.3h0.1l-0.1-1.5H8.4v0.1h0C8.8,3.9,9,4,9.1,4.1c0.1,0.2,0.1,0.4,0.1,0.6v4.7
					c0,0.3-0.1,0.5-0.2,0.6c-0.1,0.2-0.3,0.2-0.7,0.2v0.1h4.9l0.1-1.6h-0.1C13.1,9.2,13,9.4,12.9,9.6z M21.1,9.5l-2.2-5.8h-0.7
					l-2,5.4c-0.2,0.5-0.4,0.8-0.6,1c-0.2,0.2-0.4,0.3-0.6,0.3v0.1h2.1v-0.1c-0.2,0-0.3-0.1-0.5-0.1c-0.1-0.1-0.2-0.2-0.2-0.4
					c0-0.1,0-0.3,0.1-0.4l0.5-1.5h2.3l0.6,1.6c0,0,0,0.1,0,0.1c0,0.1,0,0.2,0.1,0.2c0,0.1,0,0.1,0,0.2c0,0.2-0.2,0.4-0.7,0.4v0.1
					h2.7v-0.1c-0.2,0-0.5-0.1-0.6-0.2C21.4,10,21.3,9.8,21.1,9.5z M17.3,7.5l0.9-2.7l1,2.7H17.3z M28.2,9.9
					c-0.3,0.2-0.6,0.2-0.9,0.2h-0.5c-0.3,0-0.5-0.1-0.6-0.2C26,9.7,26,9.5,26,9.2V4.8c0-0.3,0.1-0.5,0.2-0.6s0.4-0.2,0.7-0.2V3.7
					h-2.7v0.1c0.3,0,0.5,0.1,0.7,0.2C25,4.2,25,4.5,25,4.8v4.7c0,0.3-0.1,0.5-0.2,0.6c-0.1,0.2-0.3,0.2-0.7,0.2v0.1h4.7L29,9.1h-0.1
					C28.6,9.7,28.5,9.7,28.2,9.9z M36.7,3.7c-0.1,0.1-0.3,0.1-0.6,0.1h-5.3c-0.2,0-0.4,0-0.6-0.1h-0.1l0,1.6h0.1
					c0.1-0.4,0.3-0.7,0.4-0.9c0.1-0.1,0.3-0.2,0.5-0.2H33v5.3c0,0.3-0.1,0.5-0.2,0.6c-0.1,0.2-0.3,0.2-0.7,0.2v0.1h2.8v-0.1
					c-0.2,0-0.4,0-0.6-0.1c-0.1-0.1-0.2-0.2-0.3-0.3c0-0.1-0.1-0.3-0.1-0.4V4.2h1.7c0.2,0,0.4,0.1,0.6,0.2c0.2,0.1,0.3,0.4,0.4,0.9
					h0.1l0-1.6H36.7z M43.2,3.9c0.2,0,0.4,0,0.5,0.1c0.1,0.1,0.1,0.2,0.1,0.3c0,0.2-0.1,0.5-0.3,0.7l-1,1.5l-1.3-1.8
					c-0.2-0.2-0.3-0.4-0.3-0.5c0-0.1,0.1-0.2,0.2-0.2c0.1,0,0.2-0.1,0.4-0.1V3.7h-2.9v0.1c0.2,0,0.4,0,0.5,0.1
					c0.1,0.1,0.3,0.3,0.6,0.6l2.1,2.7v2.2c0,0.3-0.1,0.5-0.2,0.6c-0.1,0.2-0.3,0.2-0.7,0.2v0.1h2.7v-0.1c-0.3,0-0.6-0.1-0.7-0.2
					c-0.1-0.1-0.2-0.4-0.2-0.7V7.1L44.1,5c0.3-0.4,0.6-0.7,0.8-0.8c0.3-0.2,0.6-0.3,0.9-0.3V3.7h-2.6L43.2,3.9L43.2,3.9z M53.2,3.9
					c0.4,0,0.6,0.1,0.8,0.3c0.2,0.1,0.3,0.4,0.3,0.8v4.2l-5.3-5.5H47v0.1c0.3,0,0.7,0.3,1.1,0.7c0.1,0,0.1,0.1,0.2,0.2
					c0.1,0.1,0.1,0.1,0.1,0.1c0,0,0.1,0.1,0.1,0.1v4.5c0,0.6-0.3,0.9-1,1v0.1H50v-0.1c-0.4,0-0.6-0.2-0.8-0.4
					C49.1,9.7,49,9.5,49,9.2V5.4l5.5,5.3h0.2V5c0-0.2,0-0.4,0.1-0.5c0-0.1,0.1-0.3,0.3-0.4c0.1-0.1,0.3-0.2,0.6-0.2V3.7h-2.4
					L53.2,3.9L53.2,3.9z M63.4,10.1C63.2,10,63,9.8,62.9,9.5l-2.2-5.8H60l-2,5.4c-0.2,0.5-0.4,0.8-0.6,1c-0.2,0.2-0.4,0.3-0.6,0.3
					v0.1H59v-0.1c-0.2,0-0.3-0.1-0.5-0.1c-0.1-0.1-0.2-0.2-0.2-0.4c0-0.1,0-0.3,0.1-0.4l0.5-1.5h2.3l0.6,1.6c0,0,0,0.1,0,0.1
					c0,0.1,0,0.2,0.1,0.2c0,0.1,0,0.1,0,0.2c0,0.2-0.2,0.4-0.7,0.4v0.1H64v-0.1C63.7,10.3,63.5,10.2,63.4,10.1z M59.1,7.5l0.9-2.7
					l1,2.7H59.1z"/>
			</g>
		</g>
	</g>
</g>
</svg>
