<?xml version="1.0" encoding="utf-8"?>
<!-- Generator: Adobe Illustrator 16.0.0, SVG Export Plug-In . SVG Version: 6.00 Build 0)  -->
<!DOCTYPE svg PUBLIC "-//W3C//DTD SVG 1.1//EN" "http://www.w3.org/Graphics/SVG/1.1/DTD/svg11.dtd">
<svg version="1.1" id="Layer_1" xmlns="http://www.w3.org/2000/svg" xmlns:xlink="http://www.w3.org/1999/xlink" x="0px" y="0px"
	 width="40px" height="40px" viewBox="0 0 40 40" enable-background="new 0 0 40 40" xml:space="preserve">
<g>
	<g opacity="0.75">
		<path d="M21,37.001c-3.89,0-7.425-1.49-10.09-3.919C11.582,32.23,12,31.17,12,30c0-2.762-2.238-5-5-5
			c-0.234,0-0.458,0.038-0.683,0.068C6.313,25.046,6.305,25.023,6.3,25h-3.03c0.079,0.468,0.182,0.926,0.296,1.38
			C2.606,27.291,2,28.571,2,30c0,2.762,2.239,5,5,5c0.475,0,0.925-0.088,1.361-0.211C11.606,38.007,16.065,40,21,40
			c2.746,0,5.338-0.633,7.666-1.732l-1.741-2.486C25.106,36.563,23.105,37.001,21,37.001z M16.333,7.753
			C17.045,9.646,18.858,11,21,11c2.762,0,5-2.238,5-5s-2.238-5-5-5c-2.29,0-4.199,1.548-4.792,3.647
			C9.542,6.488,4.435,12.075,3.271,19H6.3C7.377,13.692,11.262,9.414,16.333,7.753z M38.438,26.384C38.792,24.979,39,23.516,39,22
			c0-6.758-3.729-12.639-9.238-15.717l-1.045,2.87c4.359,2.625,7.284,7.388,7.284,12.847c0,1.053-0.115,2.078-0.322,3.068
			C35.455,25.038,35.232,25,35,25c-2.762,0-5,2.238-5,5c0,2.247,1.491,4.125,3.531,4.755l0.064,0.093
			c0.019-0.018,0.034-0.038,0.052-0.057C34.08,34.914,34.528,35,35,35c2.762,0,5-2.238,5-5C40,28.573,39.396,27.295,38.438,26.384z"
			/>
	</g>
	<g>
		<g>
			<linearGradient id="SVGID_1_" gradientUnits="userSpaceOnUse" x1="19.9995" y1="0" x2="19.9995" y2="39.0005">
				<stop  offset="0" style="stop-color:#FFFFFF"/>
				<stop  offset="1" style="stop-color:#BABABA"/>
			</linearGradient>
			<path fill="url(#SVGID_1_)" d="M20,36.001c-3.89,0-7.425-1.49-10.09-3.919C10.582,31.23,11,30.17,11,29c0-2.762-2.238-5-5-5
				c-0.234,0-0.458,0.038-0.683,0.068C5.313,24.046,5.305,24.023,5.3,24h-3.03c0.079,0.468,0.182,0.926,0.296,1.38
				C1.606,26.291,1,27.571,1,29c0,2.762,2.239,5,5,5c0.475,0,0.925-0.088,1.361-0.211C10.606,37.007,15.065,39,20,39
				c2.746,0,5.338-0.633,7.666-1.732l-1.741-2.486C24.106,35.563,22.105,36.001,20,36.001z M15.333,6.753
				C16.045,8.646,17.858,10,20,10c2.762,0,5-2.238,5-5s-2.238-5-5-5c-2.29,0-4.199,1.548-4.792,3.647
				C8.542,5.488,3.435,11.075,2.271,18H5.3C6.377,12.692,10.262,8.414,15.333,6.753z M37.438,25.384C37.792,23.979,38,22.516,38,21
				c0-6.758-3.729-12.639-9.238-15.717l-1.045,2.87c4.359,2.625,7.284,7.388,7.284,12.847c0,1.053-0.115,2.078-0.322,3.068
				C34.455,24.038,34.232,24,34,24c-2.762,0-5,2.238-5,5c0,2.247,1.491,4.125,3.531,4.755l0.064,0.093
				c0.019-0.018,0.034-0.038,0.052-0.057C33.08,33.914,33.528,34,34,34c2.762,0,5-2.238,5-5C39,27.573,38.396,26.295,37.438,25.384z
				"/>
		</g>
	</g>
</g>
</svg>
