<?xml version="1.0" encoding="utf-8"?>
<!-- Generator: Adobe Illustrator 16.0.0, SVG Export Plug-In . SVG Version: 6.00 Build 0)  -->
<!DOCTYPE svg PUBLIC "-//W3C//DTD SVG 1.1//EN" "http://www.w3.org/Graphics/SVG/1.1/DTD/svg11.dtd">
<svg version="1.1" id="Layer_1" xmlns="http://www.w3.org/2000/svg" xmlns:xlink="http://www.w3.org/1999/xlink" x="0px" y="0px"
	 width="58px" height="58px" viewBox="0 0 58 58" enable-background="new 0 0 58 58" xml:space="preserve">
<g>
	<g>
		<path fill="#333333" d="M45.5,47h-17v-4l-9,7.5l9,7.5v-4c0,0,14.107,0,16,0c10.322,0,11-9,11-9v-7c0,0-1.345,0-2,0
			C53.5,46.131,45.5,47,45.5,47z M10.5,49v-4h4L7,35l-7.5,10h4c0,0,0,2.17,0,4c0,9.023,8.688,9,8.688,9H19.5c0,0,0-1.366,0-2
			C11.369,56,10.5,49,10.5,49z M46.5,9.014v3.996h-4L50,23l7.5-9.99h-4c0,0,0-2.167,0-3.996c0-9.014-8.688-8.991-8.688-8.991H37.5
			c0,0,0,1.365,0,1.998C45.631,2.021,46.5,9.014,46.5,9.014z M11.5,11.012h17v3.996l9-7.493l-9-7.492V4.02c0,0-14.107,0-16,0
			c-10.322,0-11,8.991-11,8.991v6.993c0,0,1.345,0,2,0C3.5,11.88,11.5,11.012,11.5,11.012z"/>
	</g>
</g>
<path fill="#30ACE1" d="M14.479,24.145c1.381,0,1.826,0.909,1.826,3.011h3.063c0-2.104-0.316-5.156-4.699-5.156
	C10.075,22,9.5,25.112,9.5,29.502C9.5,33.884,10.076,37,14.669,37c4.019,0,4.831-2.686,4.831-5.803h-3.064
	c0,3.117-0.812,3.662-1.918,3.662c-1.319,0-1.957-0.787-1.957-5.156C12.561,25.622,12.925,24.145,14.479,24.145L14.479,24.145z"/>
<path fill="#30ACE1" d="M47.5,36V22h-4.704l-2.275,9.881h-0.043L38.227,22H33.5v14h2.911V24.825h0.051L39.261,36h2.479l2.797-11.175
	h0.049V36H47.5z"/>
<path fill="#30ACE1" d="M31.769,33.373c-0.042-2.958-0.386-4.016-2.61-4.273v-0.038c1.839-0.335,2.7-1.592,2.7-3.454
	c0-2.392-1.635-3.608-4.314-3.608H21.5v14h3.271v-5.924h1.75c1.318,0,1.888,0.667,1.931,1.764l0.093,2.688
	c0.023,0.548,0.088,1.077,0.405,1.47h3.55v-0.115C31.885,35.605,31.799,34.842,31.769,33.373z M26.133,28.119h-1.361v-4.041h1.547
	c1.476,0,2.272,0.647,2.272,1.943C28.591,27.53,27.702,28.119,26.133,28.119z"/>
</svg>
