<svg id="Layer_1" data-name="Layer 1" xmlns="http://www.w3.org/2000/svg" xmlns:xlink="http://www.w3.org/1999/xlink" viewBox="0 0 730.17 518.14"><defs><style>.cls-1{fill:url(#linear-gradient);}.cls-2{fill:url(#linear-gradient-2);}.cls-3{fill:url(#linear-gradient-3);}.cls-4{fill:url(#linear-gradient-4);}.cls-5,.cls-6,.cls-7{fill-rule:evenodd;}.cls-5{fill:url(#linear-gradient-5);}.cls-6{fill:url(#linear-gradient-6);}.cls-7{fill:url(#linear-gradient-8);}.cls-8{font-size:130.84px;fill:#1a1a18;font-family:Montserrat-Bold, Montserrat;font-weight:700;}</style><linearGradient id="linear-gradient" x1="108.27" y1="284.75" x2="603.27" y2="315.75" gradientUnits="userSpaceOnUse"><stop offset="0" stop-color="#5f1cc9"/><stop offset="1" stop-color="#3483f2"/></linearGradient><linearGradient id="linear-gradient-2" x1="115.24" y1="173.41" x2="610.24" y2="204.41" xlink:href="#linear-gradient"/><linearGradient id="linear-gradient-3" x1="117.3" y1="140.55" x2="612.3" y2="171.55" xlink:href="#linear-gradient"/><linearGradient id="linear-gradient-4" x1="114.21" y1="189.94" x2="609.21" y2="220.94" xlink:href="#linear-gradient"/><linearGradient id="linear-gradient-5" x1="246.04" y1="480.14" x2="741.04" y2="511.14" xlink:href="#linear-gradient"/><linearGradient id="linear-gradient-6" x1="247.37" y1="458.82" x2="742.37" y2="489.82" xlink:href="#linear-gradient"/><linearGradient id="linear-gradient-8" x1="251.6" y1="391.28" x2="746.6" y2="422.28" xlink:href="#linear-gradient"/></defs><title>Realtyna Logo</title><rect class="cls-1" x="9.61" y="229.03" width="105.71" height="105.71" rx="4.94" ry="4.94"/><rect class="cls-2" x="115.32" y="132.13" width="88.09" height="88.09" rx="4.94" ry="4.94"/><rect class="cls-3" x="642.08" y="132.13" width="88.09" height="88.09" rx="4.94" ry="4.94"/><rect class="cls-4" x="413.05" y="88.09" width="88.09" height="246.65" rx="4.94" ry="4.94"/><path class="cls-5" d="M447.9,575.66H281.59a5,5,0,0,1-4.94-4.94V492.51a5,5,0,0,1,4.94-4.94h78a5.16,5.16,0,0,0,5.15-5.15v-78a5,5,0,0,1,4.94-4.94H447.9a5,5,0,0,1,4.94,4.94v166.3A5,5,0,0,1,447.9,575.66Z" transform="translate(-134.92 -240.93)"/><path class="cls-6" d="M745.63,575.66H667.42a5,5,0,0,1-4.94-4.94V404.42a5,5,0,0,1,4.94-4.94h78.22a5,5,0,0,1,4.94,4.94v78a5.16,5.16,0,0,0,5.15,5.15h78a5,5,0,0,1,4.94,4.94v78.22a5,5,0,0,1-4.94,4.94Z" transform="translate(-134.92 -240.93)"/><rect class="cls-2" x="115.32" y="132.13" width="88.09" height="88.09" rx="4.94" ry="4.94"/><path class="cls-7" d="M562.41,240.93H484.2a5,5,0,0,0-4.94,4.94v60.06h0v28h0V570.73a5,5,0,0,0,4.94,4.94h41.21a5,5,0,0,0,4.94-4.94v-.95s0,0,0-.05V318.45s0-3.52,1.76-5.29,5.29-1.76,5.29-1.76h24a5.92,5.92,0,0,0,4.2-1.75,4.91,4.91,0,0,0,1.74-3.72V245.87A5,5,0,0,0,562.41,240.93Z" transform="translate(-134.92 -240.93)"/><text class="cls-8" transform="translate(0 479.54)">REALTYNA</text></svg>