<?xml version="1.0" encoding="utf-8"?>
<!-- Generator: Adobe Illustrator 16.0.0, SVG Export Plug-In . SVG Version: 6.00 Build 0)  -->
<!DOCTYPE svg PUBLIC "-//W3C//DTD SVG 1.1//EN" "http://www.w3.org/Graphics/SVG/1.1/DTD/svg11.dtd">
<svg version="1.1" id="Layer_1" xmlns="http://www.w3.org/2000/svg" xmlns:xlink="http://www.w3.org/1999/xlink" x="0px" y="0px"
	 width="70px" height="44px" viewBox="0 0 70 44" enable-background="new 0 0 70 44" xml:space="preserve">
<g>
	<g opacity="0.75">
		<path d="M68.182,11.2c-1.004,0-1.816,0.806-1.816,1.8s0.813,1.8,1.816,1.8S70,13.994,70,13S69.186,11.2,68.182,11.2z M65.454,9.4
			c1.005,0,1.817-0.806,1.817-1.8s-0.813-1.8-1.817-1.8s-1.817,0.806-1.817,1.8S64.45,9.4,65.454,9.4z M53.637,13
			c0-0.994-0.813-1.8-1.818-1.8C50.814,11.2,50,12.006,50,13s0.814,1.8,1.818,1.8S53.637,13.994,53.637,13z M54.546,5.8
			c-1.005,0-1.817,0.806-1.817,1.8s0.813,1.8,1.817,1.8s1.817-0.806,1.817-1.8S55.55,5.8,54.546,5.8z M60,3
			c-1.004,0-1.818,0.806-1.818,1.8c0,0.994,0.814,1.8,1.818,1.8s1.818-0.806,1.818-1.8C61.818,3.806,61.004,3,60,3z M65.454,16.6
			c-1.004,0-1.817,0.806-1.817,1.8c0,0.995,0.813,1.8,1.817,1.8c1.005,0,1.817-0.806,1.817-1.8S66.459,16.6,65.454,16.6z
			 M54.546,16.6c-1.005,0-1.817,0.806-1.817,1.8c0,0.995,0.813,1.8,1.817,1.8s1.817-0.806,1.817-1.8S55.55,16.6,54.546,16.6z
			 M60,19.4c-1.004,0-1.818,0.806-1.818,1.8c0,0.993,0.814,1.8,1.818,1.8s1.818-0.807,1.818-1.8C61.818,20.206,61.004,19.4,60,19.4z
			 M16.513,8.945C16.407,6.495,16.385,6,16.366,4.136l-0.15-0.134c-2.068,0.043-2.601,0.066-4.412,0.065l-0.128,0.136
			c-0.299,1.595-0.363,1.954-0.768,3.729l-1.324,6.2l-1.399-6.38c-0.51-2.357-0.533-2.426-0.767-3.617L7.29,4
			C5.222,4.065,4.647,4.065,2.77,4.065L2.642,4.201C2.621,5.233,2.6,6.291,2.536,8.402l-0.194,4.944
			C2.214,15.772,2.193,16.177,2,19.862l0.106,0.134c1.26-0.065,1.642-0.065,2.792-0.065l0.104-0.137
			c0.001-1.73,0.001-2.224,0.109-6.897l0.13-5.167l1.575,7.393c0.341,1.573,0.702,3.304,0.999,4.741l0.129,0.135
			c1.129-0.064,1.491-0.089,2.577-0.064l0.151-0.138c0.232-1.279,0.468-2.404,1.001-4.897l1.622-7.347l0.041,6.022
			c0.063,3.122,0.063,3.481,0.083,6.29L13.548,20c1.278-0.066,1.769-0.09,3.345-0.066L17,19.797
			c-0.127-2.179-0.17-3.167-0.361-7.369L16.513,8.945z M27.916,12.368c0-2.093,0.023-2.865,0.044-4.233l-0.128-0.132
			c-1.38,0.087-1.746,0.109-3.167,0.132l-0.129,0.131c0.063,1.833,0.127,6.155,0.127,6.574v1.808
			c-0.28,0.285-0.604,0.639-1.228,0.637c-0.883,0.001-1.012-0.793-1.033-1.035c-0.065-0.398-0.065-2.206-0.064-2.735
			c0-0.839,0.044-4.61,0.044-5.383L22.252,8c-1.443,0.133-1.788,0.13-3.145,0.13L19,8.263c0.065,1.501,0.086,2.03,0.063,5.206
			l-0.001,1.168c0,1.3,0,2.03,0.064,2.691c0.066,0.531,0.279,2.669,2.606,2.67c1.443,0.001,2.369-0.816,2.972-1.477l-0.043,1.215
			l0.107,0.088c1.336-0.045,1.594-0.066,3.124-0.044L28,19.647c-0.022-0.682-0.044-1.455-0.064-2.691
			C27.915,15.678,27.916,12.832,27.916,12.368z M33.815,7.075c0.001-1.839,0.001-2.657,0.025-3.941L33.699,3
			c-1.45,0.289-2.014,0.378-3.582,0.619L30,3.753c0.07,1.061,0.141,1.815,0.185,4.029c0.024,2.012,0.022,4.071,0.022,6.085
			c-0.001,3.145-0.048,4.628-0.097,6L30.229,20c1.638-0.088,2.082-0.087,3.628-0.064L34,19.803c-0.047-1.063-0.093-2.148-0.14-4.096
			C33.838,12.785,33.815,7.805,33.815,7.075z M40.189,17.485c-0.938,0-0.955-1.11-0.955-2.267c0-0.612,0-1.427,0.021-2.039v-2.855
			c0.499-0.001,0.521,0,1.435,0.021l0.104-0.16c0.041-1.042,0.041-1.178,0.104-2.221l-0.125-0.136
			c-0.604,0.045-0.771,0.045-1.519,0.069c0.021-2.515,0.042-2.789,0.085-3.785L39.197,4c-1.205,0.407-1.6,0.542-2.973,0.905
			L36.12,5.063c0.021,2.131,0.021,2.358,0.021,2.767c-0.438,0.022-0.541,0.022-0.936,0l-0.124,0.136
			c-0.042,1.201-0.042,1.201-0.083,2.22l0.103,0.138c0.436-0.023,0.644-0.046,1.017-0.046c0,0.633-0.021,3.4-0.021,3.966
			l-0.002,1.36c-0.021,1.607-0.021,2.604,0.497,3.376c0.706,1.021,2.017,1.021,2.474,1.021c0.645,0,1.225-0.066,1.703-0.225
			l0.125-0.182c0.02-1.067,0.041-1.226,0.104-2.222l-0.124-0.112C40.751,17.349,40.521,17.485,40.189,17.485z M45.842,8.794
			c0-0.293,0-0.608,0.023-0.922l-0.139-0.135c-1.588,0.335-2.002,0.404-3.613,0.628L42,8.5c0.092,1.191,0.207,2.426,0.205,5.975
			c0.001,2.538-0.048,3.953-0.117,5.391L42.229,20c1.608-0.09,2.162-0.088,3.636-0.066L46,19.798
			c-0.16-2.333-0.206-4.649-0.205-6.983C45.795,11.466,45.818,10.143,45.842,8.794z M42.184,6.255l0.142,0.136
			c1.401-0.247,1.815-0.291,3.196-0.448l0.14-0.135c0.001-1.055-0.022-1.392,0.022-2.673L45.545,3
			c-1.404,0.202-1.679,0.248-3.268,0.404l-0.139,0.133C42.186,4.771,42.209,5.066,42.184,6.255z"/>
		<path d="M10.059,25.561c-0.561-0.459-1.256-1.006-2.512-1.006c-1.146,0-1.886,0.654-1.887,1.596c0,0.697,0.358,1.179,1.079,1.701
			c0.222,0.196,1.436,0.982,1.705,1.156C9.857,29.971,11,30.975,11,33.156c-0.001,1.463-0.539,2.576-1.168,3.273
			C8.663,37.719,7.07,38,5.544,38c-0.877,0-2.2-0.132-3.366-0.699l-0.135-0.219c0.021-0.458,0.066-0.938,0.09-1.42
			c0.022-0.413,0.045-0.829,0.046-1.242l0.179-0.064c0.764,0.697,1.75,1.07,2.783,1.069c1.682,0.001,2.131-1.155,2.131-1.899
			c0.002-0.959-0.627-1.482-1.705-2.205l-0.941-0.633C3.458,29.88,2,28.876,2,26.475c0-1.57,0.608-2.641,1.259-3.252
			C4.313,22.219,5.727,22,6.985,22.001c1.143,0.001,2.311,0.196,3.343,0.699l0.089,0.175c-0.044,0.459-0.089,0.917-0.113,1.375
			l-0.068,1.245L10.059,25.561z"/>
		<path d="M17.593,36.889C17.24,37.214,16.423,38,14.963,38C13.304,37.999,12,36.732,12,34.398c0-3.293,2.919-4.037,5.53-4.517
			c0-0.739,0-1.569-1.57-1.569c-1.46-0.002-2.343,0.565-2.829,0.873l-0.155-0.088c0.066-1.006,0.087-1.287,0.111-2.203l0.134-0.177
			c1.282-0.565,2.94-0.72,3.759-0.72c0.861,0,2.608,0.131,3.424,1.527c0.488,0.852,0.486,1.854,0.444,3.646l-0.022,1.724
			c-0.024,1.832-0.001,3.076,0.174,4.775l-0.155,0.135c-1.481-0.022-1.812-0.002-3.094,0.041l-0.157-0.107L17.593,36.889
			L17.593,36.889z M17.551,31.893c-0.928,0.131-2.388,0.369-2.39,2.137c0,0.918,0.486,1.508,1.194,1.508
			c0.642,0,1.018-0.395,1.192-0.59L17.551,31.893z"/>
		<path d="M28.432,28.645c-0.687-0.021-1.066-0.021-1.49-0.021c-0.004,5.245,0.092,7.333,0.161,9.202l-0.141,0.109
			c-1.7,0-2.057,0-3.619,0.063l-0.117-0.132c0-0.27,0.001-0.559,0.026-0.823c0.046-1.558,0.048-6.468,0.048-8.444
			c-0.519,0-0.661,0.021-1.182,0.045L22,28.512c0.047-0.822,0.07-1.134,0.118-2.201l0.143-0.131c0.448,0.043,0.568,0.043,1.04,0.043
			c-0.022-1.734-0.047-3.156,0.709-4.066C24.956,21,26.706,21.001,27.25,21c0.83,0,1.374,0.11,1.656,0.155L29,21.288
			c-0.094,0.978-0.118,1.226-0.142,2.312l-0.165,0.133c-0.167-0.088-0.31-0.153-0.569-0.153c-0.449,0-0.755,0.224-0.922,0.468
			c-0.284,0.396-0.284,0.82-0.284,2.199c0.734,0,0.97,0,1.657-0.043l0.141,0.132c-0.094,0.979-0.094,1.201-0.141,2.181
			L28.432,28.645z"/>
		<path d="M32.323,32.684c0.043,1.908,1.099,2.887,2.75,2.887c1.315,0,2.09-0.541,2.395-0.778l0.156,0.086
			c-0.067,0.935-0.089,1.347-0.113,2.255l-0.086,0.178c-0.461,0.389-1.846,0.691-3.123,0.69c-3.785-0.001-5.301-2.366-5.299-6.013
			c0-0.779,0.065-1.586,0.264-2.363C29.927,26.977,31.776,26,33.71,26c0.638,0.001,1.277,0.109,1.87,0.37
			c2.068,0.913,2.417,2.952,2.419,5.058c0,0.412-0.022,0.823-0.021,1.129l-0.156,0.129L32.323,32.684z M34.763,30.621
			c0.001-0.348,0.001-0.715-0.064-1.105c-0.108-0.716-0.46-1.303-1.098-1.303c-0.309,0.001-1.233,0.131-1.3,2.407L34.763,30.621z"/>
		<path d="M42.739,26.113c-0.022,0.52-0.022,0.587-0.022,1.128c0.522-0.474,1.342-1.194,2.635-1.194
			c1.381,0,2.219,0.835,2.694,1.577c0.794,1.216,0.953,2.884,0.954,3.985c-0.003,1.6-0.23,5.064-3.404,6.305
			c-0.976,0.359-1.563,0.336-2.789,0.335c0.021,1.644,0.09,3.671,0.135,4.571l-0.137,0.135c-0.453-0.021-0.906-0.046-1.338-0.046
			c-0.703,0-1.29,0.045-2.109,0.091l-0.135-0.139c0.068-1.801,0.092-3.603,0.092-5.381c0.002-3.578,0.002-7.185-0.313-10.739
			l0.111-0.136C40.77,26.379,41.2,26.291,42.584,26L42.739,26.113z M42.874,35.841c0.112,0.022,0.204,0.021,0.315,0.022h0.183
			c1.997-0.204,2.041-2.883,2.042-3.985c0-0.606-0.046-1.644-0.385-2.386c-0.069-0.158-0.387-0.813-1.09-0.813
			c-0.498,0-0.838,0.338-1.112,0.607C42.829,31.65,42.854,32.734,42.874,35.841"/>
		<path d="M55.594,36.891C55.24,37.215,54.424,38,52.964,38C51.305,38,50,36.734,50,34.396c0-3.293,2.92-4.035,5.527-4.516
			c0-0.74,0.002-1.568-1.565-1.568c-1.462,0-2.343,0.565-2.83,0.873l-0.153-0.09c0.063-1.005,0.088-1.287,0.107-2.203l0.137-0.176
			C52.501,26.152,54.165,26,54.979,26c0.862,0.001,2.606,0.131,3.43,1.527c0.482,0.852,0.482,1.854,0.439,3.645l-0.022,1.725
			c-0.021,1.83,0.001,3.076,0.176,4.776l-0.153,0.134c-1.48-0.021-1.813,0-3.096,0.043l-0.154-0.108L55.594,36.891z M55.552,31.893
			c-0.929,0.131-2.389,0.369-2.388,2.137c-0.001,0.918,0.484,1.509,1.191,1.509c0.641,0,1.018-0.396,1.192-0.591L55.552,31.893z"/>
		<path d="M62.216,42.863c0.539-1.322,0.774-2.076,1.464-4.286c-0.968-3.601-2.709-9.456-3.68-12.283l0.105-0.136
			c1.571-0.021,1.875-0.045,3.404-0.158l0.176,0.137c0.232,1.209,0.301,1.551,0.881,4.033l0.817,3.441l0.888-3.67
			c0.405-1.639,0.433-1.775,0.842-3.711l0.13-0.139c1.205,0.024,1.509,0.024,2.672-0.046L70,26.186
			c-0.559,1.799-0.689,2.301-1.964,6.699l-1.077,3.735c-0.863,3.165-1.229,4.558-1.575,6.196l-0.151,0.136
			c-1.398,0-1.681,0-2.908,0.048L62.216,42.863z"/>
	</g>
	<g>
		<g>
			<g>
				<g>
					
						<linearGradient id="SVGID_1_" gradientUnits="userSpaceOnUse" x1="814.9805" y1="552.1992" x2="814.9805" y2="572.1992" gradientTransform="matrix(1 0 0 1 -779.9805 -550.1992)">
						<stop  offset="0" style="stop-color:#FFFFFF"/>
						<stop  offset="1" style="stop-color:#BABABA"/>
					</linearGradient>
					<path fill="url(#SVGID_1_)" d="M67.182,10.2c-1.004,0-1.816,0.806-1.816,1.8s0.813,1.8,1.816,1.8S69,12.994,69,12
						S68.186,10.2,67.182,10.2z M64.454,8.4c1.005,0,1.817-0.806,1.817-1.8s-0.813-1.8-1.817-1.8s-1.817,0.806-1.817,1.8
						S63.45,8.4,64.454,8.4z M52.637,12c0-0.994-0.813-1.8-1.818-1.8C49.814,10.2,49,11.006,49,12s0.814,1.8,1.818,1.8
						S52.637,12.994,52.637,12z M53.546,4.8c-1.005,0-1.817,0.806-1.817,1.8s0.813,1.8,1.817,1.8s1.817-0.806,1.817-1.8
						S54.55,4.8,53.546,4.8z M59,2c-1.004,0-1.818,0.806-1.818,1.8c0,0.994,0.814,1.8,1.818,1.8s1.818-0.806,1.818-1.8
						C60.818,2.806,60.004,2,59,2z M64.454,15.6c-1.004,0-1.817,0.806-1.817,1.8c0,0.995,0.813,1.8,1.817,1.8
						c1.005,0,1.817-0.806,1.817-1.8S65.459,15.6,64.454,15.6z M53.546,15.6c-1.005,0-1.817,0.806-1.817,1.8
						c0,0.995,0.813,1.8,1.817,1.8s1.817-0.806,1.817-1.8S54.55,15.6,53.546,15.6z M59,18.4c-1.004,0-1.818,0.806-1.818,1.8
						c0,0.994,0.814,1.8,1.818,1.8s1.818-0.806,1.818-1.8C60.818,19.206,60.004,18.4,59,18.4z M15.513,7.945
						C15.407,5.495,15.385,5,15.366,3.136l-0.15-0.134c-2.068,0.043-2.601,0.066-4.412,0.065l-0.128,0.136
						c-0.299,1.595-0.363,1.954-0.768,3.729l-1.324,6.2l-1.399-6.38c-0.51-2.357-0.533-2.426-0.767-3.617L6.29,3
						C4.222,3.065,3.647,3.065,1.77,3.065L1.642,3.201C1.621,4.233,1.6,5.291,1.536,7.402l-0.194,4.944
						C1.214,14.772,1.193,15.177,1,18.862l0.106,0.134c1.26-0.065,1.642-0.065,2.792-0.065l0.104-0.137
						c0.001-1.73,0.001-2.224,0.109-6.897l0.13-5.167l1.575,7.393c0.341,1.573,0.702,3.304,0.999,4.741l0.129,0.135
						c1.129-0.064,1.491-0.089,2.577-0.064l0.151-0.138c0.232-1.279,0.468-2.404,1.001-4.897l1.622-7.347l0.041,6.022
						c0.063,3.122,0.063,3.481,0.083,6.29L12.548,19c1.278-0.066,1.769-0.09,3.345-0.066L16,18.797
						c-0.127-2.179-0.17-3.167-0.361-7.369L15.513,7.945z M26.916,11.368c0-2.093,0.023-2.865,0.044-4.233l-0.128-0.132
						c-1.38,0.087-1.746,0.109-3.167,0.132l-0.129,0.131c0.063,1.833,0.127,6.155,0.127,6.574v1.808
						c-0.28,0.285-0.604,0.639-1.228,0.637c-0.883,0.001-1.012-0.793-1.033-1.035c-0.065-0.398-0.065-2.206-0.064-2.735
						c0-0.839,0.044-4.61,0.044-5.383L21.252,7c-1.443,0.133-1.788,0.13-3.145,0.13L18,7.263c0.065,1.501,0.086,2.03,0.063,5.206
						l-0.001,1.168c0,1.3,0,2.03,0.064,2.691c0.066,0.531,0.279,2.669,2.606,2.67c1.443,0.001,2.369-0.816,2.972-1.477l-0.043,1.215
						l0.107,0.088c1.336-0.045,1.594-0.066,3.124-0.044L27,18.647c-0.022-0.682-0.044-1.455-0.064-2.691
						C26.915,14.678,26.916,11.832,26.916,11.368z M32.815,6.075c0.001-1.839,0.001-2.657,0.025-3.941L32.699,2
						c-1.45,0.289-2.014,0.378-3.582,0.619L29,2.753c0.07,1.061,0.141,1.815,0.185,4.029c0.024,2.012,0.022,4.071,0.022,6.085
						c-0.001,3.145-0.048,4.628-0.097,6L29.229,19c1.638-0.088,2.082-0.087,3.628-0.064L33,18.803
						c-0.047-1.063-0.093-2.148-0.14-4.096C32.838,11.785,32.815,6.805,32.815,6.075z M39.189,16.485
						c-0.938,0-0.955-1.11-0.955-2.267c0-0.612,0-1.427,0.021-2.039V9.325c0.499-0.001,0.521,0,1.435,0.021l0.104-0.16
						c0.041-1.042,0.041-1.178,0.104-2.221l-0.125-0.136c-0.604,0.045-0.771,0.045-1.519,0.069c0.021-2.515,0.042-2.789,0.085-3.785
						L38.197,3c-1.205,0.407-1.6,0.542-2.972,0.905l-0.104,0.158c0.021,2.131,0.021,2.358,0.021,2.767
						c-0.437,0.022-0.541,0.022-0.935,0l-0.124,0.136c-0.041,1.2-0.041,1.2-0.083,2.219l0.103,0.138
						c0.436-0.023,0.644-0.046,1.017-0.046c0,0.633-0.021,3.4-0.021,3.966v1.36c-0.021,1.607-0.021,2.604,0.499,3.376
						C36.303,19,37.611,19,38.068,19c0.646,0,1.226-0.066,1.703-0.225l0.125-0.182c0.021-1.067,0.041-1.226,0.104-2.222
						l-0.124-0.112C39.751,16.349,39.521,16.485,39.189,16.485z M44.842,7.794c0-0.293,0-0.608,0.023-0.922l-0.139-0.135
						c-1.588,0.335-2.002,0.404-3.613,0.628L41,7.5c0.092,1.191,0.207,2.426,0.205,5.975c0.001,2.538-0.048,3.953-0.117,5.391
						L41.229,19c1.608-0.09,2.162-0.088,3.636-0.066L45,18.798c-0.16-2.333-0.206-4.649-0.205-6.983
						C44.795,10.466,44.818,9.143,44.842,7.794z M41.184,5.255l0.142,0.136c1.401-0.247,1.815-0.291,3.196-0.448l0.14-0.135
						c0.001-1.055-0.022-1.392,0.022-2.673L44.545,2c-1.404,0.202-1.679,0.248-3.268,0.404l-0.139,0.133
						C41.186,3.771,41.209,4.066,41.184,5.255z"/>
				</g>
			</g>
			
				<linearGradient id="SVGID_2_" gradientUnits="userSpaceOnUse" x1="785.4805" y1="571.2002" x2="785.4805" y2="587.1992" gradientTransform="matrix(1 0 0 1 -779.9805 -550.1992)">
				<stop  offset="0" style="stop-color:#FFFFFF"/>
				<stop  offset="1" style="stop-color:#BABABA"/>
			</linearGradient>
			<path fill="url(#SVGID_2_)" d="M9.059,24.561c-0.561-0.459-1.256-1.006-2.512-1.006c-1.146,0-1.886,0.654-1.887,1.596
				c0,0.697,0.358,1.179,1.079,1.701c0.222,0.196,1.436,0.982,1.705,1.156C8.857,28.971,10,29.975,10,32.156
				c-0.001,1.463-0.539,2.576-1.168,3.273C7.663,36.719,6.07,37,4.544,37c-0.877,0-2.2-0.132-3.366-0.699l-0.135-0.219
				c0.021-0.458,0.066-0.938,0.09-1.42c0.022-0.413,0.045-0.829,0.046-1.242l0.179-0.064c0.764,0.697,1.75,1.07,2.783,1.069
				c1.682,0.001,2.131-1.155,2.131-1.899c0.002-0.959-0.627-1.482-1.705-2.205l-0.941-0.633C2.458,28.88,1,27.876,1,25.475
				c0-1.57,0.608-2.641,1.259-3.25C3.313,21.219,4.727,21,5.985,21.001c1.143,0.001,2.311,0.197,3.343,0.699l0.089,0.175
				c-0.044,0.459-0.089,0.917-0.113,1.375l-0.068,1.245L9.059,24.561z"/>
			
				<linearGradient id="SVGID_3_" gradientUnits="userSpaceOnUse" x1="795.4805" y1="575.1973" x2="795.4805" y2="587.1992" gradientTransform="matrix(1 0 0 1 -779.9805 -550.1992)">
				<stop  offset="0" style="stop-color:#FFFFFF"/>
				<stop  offset="1" style="stop-color:#BABABA"/>
			</linearGradient>
			<path fill="url(#SVGID_3_)" d="M16.593,35.889C16.24,36.214,15.423,37,13.963,37C12.304,36.999,11,35.732,11,33.398
				c0-3.293,2.919-4.037,5.53-4.517c0-0.739,0-1.569-1.57-1.569c-1.46-0.002-2.343,0.565-2.829,0.873l-0.155-0.088
				c0.066-1.006,0.087-1.287,0.111-2.203l0.134-0.177c1.282-0.565,2.94-0.72,3.759-0.72c0.861,0,2.608,0.131,3.424,1.527
				c0.488,0.852,0.486,1.854,0.444,3.646l-0.022,1.724c-0.024,1.832-0.001,3.076,0.174,4.775l-0.155,0.135
				c-1.481-0.022-1.812-0.002-3.094,0.041l-0.157-0.107L16.593,35.889L16.593,35.889z M16.551,30.893
				c-0.928,0.131-2.388,0.369-2.39,2.137c0,0.918,0.486,1.508,1.194,1.508c0.642,0,1.018-0.395,1.192-0.59L16.551,30.893z"/>
			
				<linearGradient id="SVGID_4_" gradientUnits="userSpaceOnUse" x1="804.4805" y1="570.1992" x2="804.4805" y2="587.1982" gradientTransform="matrix(1 0 0 1 -779.9805 -550.1992)">
				<stop  offset="0" style="stop-color:#FFFFFF"/>
				<stop  offset="1" style="stop-color:#BABABA"/>
			</linearGradient>
			<path fill="url(#SVGID_4_)" d="M27.432,27.645c-0.687-0.021-1.066-0.021-1.49-0.021c-0.004,5.245,0.092,7.333,0.161,9.202
				l-0.141,0.109c-1.7,0-2.057,0-3.619,0.063l-0.117-0.132c0-0.27,0.001-0.559,0.026-0.823c0.046-1.558,0.048-6.468,0.048-8.444
				c-0.519,0-0.661,0.021-1.182,0.045L21,27.512c0.047-0.822,0.07-1.134,0.118-2.201l0.143-0.131
				c0.448,0.043,0.568,0.043,1.04,0.043c-0.022-1.734-0.047-3.156,0.709-4.067C23.956,20,25.706,20.001,26.25,20
				c0.83,0,1.374,0.11,1.656,0.155L28,20.288c-0.094,0.978-0.118,1.226-0.142,2.312l-0.165,0.133
				c-0.167-0.088-0.31-0.153-0.569-0.153c-0.449,0-0.755,0.224-0.922,0.468c-0.284,0.396-0.284,0.82-0.284,2.199
				c0.734,0,0.97,0,1.657-0.043l0.141,0.132c-0.094,0.979-0.094,1.201-0.141,2.181L27.432,27.645z"/>
			
				<linearGradient id="SVGID_5_" gradientUnits="userSpaceOnUse" x1="812.4824" y1="575.1992" x2="812.4824" y2="587.2002" gradientTransform="matrix(1 0 0 1 -779.9805 -550.1992)">
				<stop  offset="0" style="stop-color:#FFFFFF"/>
				<stop  offset="1" style="stop-color:#BABABA"/>
			</linearGradient>
			<path fill="url(#SVGID_5_)" d="M31.323,31.684c0.043,1.908,1.099,2.887,2.75,2.887c1.317,0,2.09-0.541,2.395-0.778l0.156,0.086
				c-0.067,0.935-0.089,1.347-0.113,2.255l-0.086,0.178c-0.461,0.389-1.846,0.691-3.123,0.69c-3.785-0.001-5.301-2.366-5.299-6.013
				c0-0.779,0.065-1.586,0.264-2.363C28.927,25.977,30.776,25,32.71,25c0.638,0.001,1.277,0.109,1.87,0.37
				c2.068,0.913,2.417,2.952,2.419,5.058c0,0.412-0.022,0.823-0.021,1.129l-0.156,0.129L31.323,31.684z M33.763,29.621
				c0.001-0.348,0.001-0.715-0.064-1.105c-0.108-0.716-0.46-1.303-1.098-1.303c-0.309,0.001-1.233,0.131-1.3,2.407L33.763,29.621z"
				/>
			
				<linearGradient id="SVGID_6_" gradientUnits="userSpaceOnUse" x1="822.9814" y1="575.1992" x2="822.9814" y2="592.1992" gradientTransform="matrix(1 0 0 1 -779.9805 -550.1992)">
				<stop  offset="0" style="stop-color:#FFFFFF"/>
				<stop  offset="1" style="stop-color:#BABABA"/>
			</linearGradient>
			<path fill="url(#SVGID_6_)" d="M41.739,25.113c-0.022,0.52-0.022,0.587-0.022,1.128c0.522-0.474,1.342-1.194,2.635-1.194
				c1.381,0,2.219,0.835,2.694,1.577c0.794,1.216,0.953,2.884,0.954,3.985c-0.003,1.6-0.23,5.064-3.404,6.305
				c-0.976,0.359-1.563,0.336-2.789,0.335c0.021,1.644,0.09,3.671,0.135,4.571l-0.137,0.135c-0.453-0.021-0.906-0.046-1.338-0.046
				c-0.703,0-1.29,0.045-2.109,0.091l-0.135-0.139c0.068-1.801,0.092-3.603,0.092-5.381c0.002-3.578,0.002-7.185-0.313-10.739
				l0.111-0.136C39.77,25.379,40.2,25.291,41.584,25L41.739,25.113z M41.874,34.841c0.112,0.022,0.204,0.021,0.315,0.022h0.183
				c1.997-0.204,2.041-2.883,2.042-3.985c0-0.606-0.046-1.644-0.385-2.386c-0.069-0.158-0.387-0.813-1.09-0.813
				c-0.498,0-0.838,0.338-1.112,0.607C41.829,30.65,41.854,31.734,41.874,34.841"/>
			
				<linearGradient id="SVGID_7_" gradientUnits="userSpaceOnUse" x1="833.4805" y1="575.1992" x2="833.4805" y2="587.1992" gradientTransform="matrix(1 0 0 1 -779.9805 -550.1992)">
				<stop  offset="0" style="stop-color:#FFFFFF"/>
				<stop  offset="1" style="stop-color:#BABABA"/>
			</linearGradient>
			<path fill="url(#SVGID_7_)" d="M54.594,35.891C54.24,36.215,53.424,37,51.964,37C50.305,37,49,35.734,49,33.396
				c0-3.293,2.92-4.035,5.527-4.516c0-0.74,0.002-1.568-1.565-1.568c-1.462,0-2.343,0.565-2.83,0.873l-0.153-0.09
				c0.063-1.005,0.088-1.287,0.107-2.203l0.137-0.176C51.501,25.152,53.165,25,53.979,25c0.862,0.001,2.606,0.131,3.43,1.527
				c0.482,0.852,0.482,1.854,0.439,3.645l-0.022,1.725c-0.021,1.83,0.001,3.076,0.176,4.776l-0.153,0.134
				c-1.48-0.021-1.813,0-3.096,0.043l-0.154-0.108L54.594,35.891z M54.552,30.893c-0.929,0.131-2.389,0.369-2.388,2.137
				c-0.001,0.918,0.484,1.509,1.191,1.509c0.641,0,1.018-0.396,1.192-0.591L54.552,30.893z"/>
			
				<linearGradient id="SVGID_8_" gradientUnits="userSpaceOnUse" x1="843.9805" y1="575.1992" x2="843.9805" y2="592.1992" gradientTransform="matrix(1 0 0 1 -779.9805 -550.1992)">
				<stop  offset="0" style="stop-color:#FFFFFF"/>
				<stop  offset="1" style="stop-color:#BABABA"/>
			</linearGradient>
			<path fill="url(#SVGID_8_)" d="M61.216,41.863c0.539-1.322,0.774-2.076,1.464-4.286c-0.968-3.601-2.709-9.456-3.68-12.283
				l0.105-0.136c1.571-0.021,1.875-0.045,3.404-0.158l0.176,0.137c0.232,1.209,0.301,1.551,0.881,4.033l0.817,3.441l0.888-3.67
				c0.405-1.639,0.433-1.775,0.842-3.711l0.13-0.139c1.205,0.024,1.509,0.024,2.672-0.046L69,25.186
				c-0.559,1.799-0.689,2.301-1.964,6.699l-1.077,3.735c-0.863,3.165-1.229,4.558-1.575,6.196l-0.151,0.136
				c-1.398,0-1.681,0-2.908,0.048L61.216,41.863z"/>
		</g>
	</g>
</g>
</svg>
