<svg xmlns="http://www.w3.org/2000/svg" xmlns:xlink="http://www.w3.org/1999/xlink" viewBox="0 0 359.78 197.79"><defs><style>.cls-1{fill:none;}.cls-2{isolation:isolate;}.cls-3,.cls-4{fill:#c9c9c9;}.cls-3{fill-rule:evenodd;}.cls-5{fill:#b7b7b7;}.cls-6{mix-blend-mode:color-burn;}.cls-7{clip-path:url(#clip-path);}</style><clipPath id="clip-path" transform="translate(-39.03 -274.84)"><rect class="cls-1" x="144.8" y="365.09" width="155.79" height="107.54"/></clipPath></defs><title>gift</title><g class="cls-2"><g id="Layer_1" data-name="Layer 1"><path class="cls-3" d="M39,351.1c12.33,22.31,36.63,44.76,65.27,37.11,35.85-9.58,37.89-46.33,84.58-67q-27.48,5.91-52.26,32C105.41,388.72,67.16,389.61,39,351.1Z" transform="translate(-39.03 -274.84)"/><path class="cls-3" d="M356,351.47a8.8,8.8,0,0,0,1.5-10.68c-.72-1.48-1.58-2.18-4.16-3.19-5.47-2.24-20.62-2.31-44.82,1.64-56.37,4.47-54-38.44-119.61-18,20.41-5.16,41.59-1.39,65.52,10.4q23.15,12.11,52.71,7.83c34.35-.8,48.19,1.16,46.41,5.84q-6.05,4.43-22.05,9.11-31.34,6.91-51,15.55Q254.69,381.51,256,394.81C259.67,368.36,348.26,360.93,356,351.47Z" transform="translate(-39.03 -274.84)"/><path class="cls-3" d="M341.72,416.51c-46.8,6.9-83.49-2.4-85.68-21.71,2,27.51,25.19,36.17,77.51,30.72,36.33-5.8,56.18-24.61,65.27-36.48Q382,409.37,341.72,416.51Z" transform="translate(-39.03 -274.84)"/><path class="cls-4" d="M281,286.06c-8.45-12.1-24.34-12.25-35.48-3.23a107.53,107.53,0,0,0-24.81,29.27,124.1,124.1,0,0,0-25.12-29.61c-5.22-4.44-11.75-8.3-18.83-7.55-6.88.73-14.16,3.89-18.07,9.5-9.34,13.37-.1,28,11.83,36.53,14.58,10.4,33.07,9.57,49.82,7.27l.41,0H221c7.55,1.16,15.45,2.8,23,1.57,8.89-1.45,17.74-3.38,25.58-7.95C282.73,314.23,290.45,299.52,281,286.06ZM180.11,314.41a26.32,26.32,0,0,1-12.06-13c-1.7-4.07-.32-8,2.37-11,8-8.76,17.9-1.05,24.72,5.93a122.17,122.17,0,0,1,17.36,22.39C201.42,319.87,190.8,319.46,180.11,314.41Zm81.38,0c-10.23,5.37-21.36,5.54-32.38,4.36a132,132,0,0,1,17.36-22.41c3.51-3.7,7.8-7.53,12.7-9.32,4.5-1.64,9,.26,12,3.39C279.66,299.26,270.31,309.78,261.49,314.41Z" transform="translate(-39.03 -274.84)"/><rect class="cls-4" x="99.08" y="50.14" width="169.16" height="40.11"/><rect class="cls-4" x="105.77" y="90.25" width="155.79" height="107.54"/><rect class="cls-5" x="181.03" y="90.25" width="80.52" height="107.54"/><g class="cls-6"><g class="cls-7"><path class="cls-3" d="M144.21,363.34v2a10.12,10.12,0,0,0,5.3-2Z" transform="translate(-39.03 -274.84)"/><path class="cls-3" d="M168.68,386.43a10.18,10.18,0,1,0-10.18-10.18A10.2,10.2,0,0,0,168.68,386.43Z" transform="translate(-39.03 -274.84)"/><path class="cls-3" d="M192.38,381.39a5.13,5.13,0,1,0-5.13-5.13A5.14,5.14,0,0,0,192.38,381.39Z" transform="translate(-39.03 -274.84)"/><path class="cls-3" d="M144.21,371.39v9.73a5.1,5.1,0,0,0,0-9.73Z" transform="translate(-39.03 -274.84)"/><path class="cls-3" d="M148.42,391.82a10.08,10.08,0,0,0-4.21.92v18.52a10.17,10.17,0,1,0,4.21-19.44Z" transform="translate(-39.03 -274.84)"/><path class="cls-3" d="M172.11,407.13A5.13,5.13,0,1,0,167,402,5.14,5.14,0,0,0,172.11,407.13Z" transform="translate(-39.03 -274.84)"/><path class="cls-3" d="M173.7,433.22A10.18,10.18,0,1,0,163.51,423,10.2,10.2,0,0,0,173.7,433.22Z" transform="translate(-39.03 -274.84)"/><path class="cls-3" d="M197.39,428.17a5.13,5.13,0,1,0-5.13-5.13A5.14,5.14,0,0,0,197.39,428.17Z" transform="translate(-39.03 -274.84)"/><path class="cls-3" d="M147.67,417.9a5.09,5.09,0,0,0-3.46,1.37v7.53a5.12,5.12,0,1,0,3.46-8.9Z" transform="translate(-39.03 -274.84)"/><path class="cls-3" d="M212.29,399.67a10.18,10.18,0,1,0-10.18-10.18A10.2,10.2,0,0,0,212.29,399.67Z" transform="translate(-39.03 -274.84)"/><circle class="cls-4" cx="196.95" cy="114.65" r="5.13"/><path class="cls-3" d="M237.56,420.71a10.18,10.18,0,1,0-10.18-10.18A10.2,10.2,0,0,0,237.56,420.71Z" transform="translate(-39.03 -274.84)"/><path class="cls-3" d="M261.26,415.66a5.13,5.13,0,1,0-5.13-5.13A5.14,5.14,0,0,0,261.26,415.66Z" transform="translate(-39.03 -274.84)"/><path class="cls-3" d="M211.54,415.66a5.13,5.13,0,1,0-5.13-5.13A5.14,5.14,0,0,0,211.54,415.66Z" transform="translate(-39.03 -274.84)"/><path class="cls-3" d="M223.34,363.34a10.17,10.17,0,0,0,17.9,0Z" transform="translate(-39.03 -274.84)"/><path class="cls-3" d="M286.69,398.36a10.18,10.18,0,1,0-10.18-10.18A10.2,10.2,0,0,0,286.69,398.36Z" transform="translate(-39.03 -274.84)"/><path class="cls-3" d="M294.18,363.34a5,5,0,0,0,5.07,5.76,5.07,5.07,0,0,0,1.92-.38v-5.38Z" transform="translate(-39.03 -274.84)"/><path class="cls-3" d="M285.94,414.34a5.13,5.13,0,1,0-5.13-5.13A5.14,5.14,0,0,0,285.94,414.34Z" transform="translate(-39.03 -274.84)"/><path class="cls-3" d="M212,460.91a10.18,10.18,0,1,0-10.18-10.18A10.2,10.2,0,0,0,212,460.91Z" transform="translate(-39.03 -274.84)"/><path class="cls-3" d="M235.68,455.85a5.13,5.13,0,1,0-5.13-5.13A5.14,5.14,0,0,0,235.68,455.85Z" transform="translate(-39.03 -274.84)"/><path class="cls-3" d="M247.39,472.63c0-.29,0-.58,0-.87a10.18,10.18,0,0,0-20.36,0c0,.29,0,.58,0,.87Z" transform="translate(-39.03 -274.84)"/><path class="cls-3" d="M266,472.63a4.94,4.94,0,0,0,.09-.87,5.13,5.13,0,1,0-10.17.87Z" transform="translate(-39.03 -274.84)"/><path class="cls-3" d="M216.28,472.63a4.86,4.86,0,0,0,.09-.87,5.13,5.13,0,1,0-10.17.87Z" transform="translate(-39.03 -274.84)"/><path class="cls-3" d="M144.21,447.23v20.15a10.17,10.17,0,0,0,0-20.15Z" transform="translate(-39.03 -274.84)"/><path class="cls-3" d="M166.54,462.44a5.13,5.13,0,1,0-5.13-5.13A5.14,5.14,0,0,0,166.54,462.44Z" transform="translate(-39.03 -274.84)"/><path class="cls-3" d="M176.53,472.63a10.14,10.14,0,0,0-16.8,0Z" transform="translate(-39.03 -274.84)"/><path class="cls-3" d="M301.17,441.6a10.16,10.16,0,0,0,0,16.95Z" transform="translate(-39.03 -274.84)"/><path class="cls-3" d="M291.74,472.63a10,10,0,0,0,.57-3.31,10.18,10.18,0,1,0-20.36,0,10,10,0,0,0,.57,3.31Z" transform="translate(-39.03 -274.84)"/><path class="cls-3" d="M224.39,442.43a10.18,10.18,0,1,0-10.18-10.18A10.2,10.2,0,0,0,224.39,442.43Z" transform="translate(-39.03 -274.84)"/><circle class="cls-4" cx="151.79" cy="125.81" r="5.13"/><path class="cls-3" d="M256.66,397.66a10.18,10.18,0,1,0-10.18-10.18A10.2,10.2,0,0,0,256.66,397.66Z" transform="translate(-39.03 -274.84)"/><path class="cls-3" d="M286.29,434.75a5.13,5.13,0,1,0-5.13-5.13A5.14,5.14,0,0,0,286.29,434.75Z" transform="translate(-39.03 -274.84)"/><circle class="cls-4" cx="123.99" cy="165.31" r="5.13"/><path class="cls-3" d="M260.34,431.14a5.13,5.13,0,1,0-5.13-5.13A5.14,5.14,0,0,0,260.34,431.14Z" transform="translate(-39.03 -274.84)"/><path class="cls-3" d="M261.92,457.22A10.18,10.18,0,1,0,251.74,447,10.2,10.2,0,0,0,261.92,457.22Z" transform="translate(-39.03 -274.84)"/><circle class="cls-4" cx="246.59" cy="172.2" r="5.13"/><path class="cls-3" d="M188.22,439.2a5.13,5.13,0,1,0-5.13-5.13A5.14,5.14,0,0,0,188.22,439.2Z" transform="translate(-39.03 -274.84)"/><path class="cls-3" d="M189.8,465.28a10.18,10.18,0,1,0-10.18-10.18A10.2,10.2,0,0,0,189.8,465.28Z" transform="translate(-39.03 -274.84)"/><path class="cls-3" d="M265.58,363.34a10.17,10.17,0,0,0,20.34,0Z" transform="translate(-39.03 -274.84)"/></g></g></g></g></svg>