<?xml version="1.0" encoding="utf-8"?>
<!-- Generator: Adobe Illustrator 16.0.0, SVG Export Plug-In . SVG Version: 6.00 Build 0)  -->
<!DOCTYPE svg PUBLIC "-//W3C//DTD SVG 1.1//EN" "http://www.w3.org/Graphics/SVG/1.1/DTD/svg11.dtd">
<svg version="1.1" id="Layer_1" xmlns="http://www.w3.org/2000/svg" xmlns:xlink="http://www.w3.org/1999/xlink" x="0px" y="0px"
	 width="40px" height="40px" viewBox="0 0 40 40" enable-background="new 0 0 40 40" xml:space="preserve">
<g>
	<g opacity="0.75">
		<path d="M19.262,12h-15.4c-0.995,0-1.8,0.896-1.8,2s0.806,2,1.8,2h15.4c0.994,0,1.8-0.896,1.8-2S20.256,12,19.262,12z M19.262,19
			h-15.4c-0.995,0-1.8,0.896-1.8,2s0.806,2,1.8,2h15.4c0.994,0,1.8-0.896,1.8-2S20.256,19,19.262,19z M19.262,26h-15.4
			c-0.995,0-1.8,0.896-1.8,2s0.806,2,1.8,2h15.4c0.994,0,1.8-0.896,1.8-2S20.256,26,19.262,26z M39.817,17.029
			C39.573,16.406,38.999,16,38.362,16H25.761c-0.637,0-1.212,0.406-1.455,1.029c-0.244,0.622-0.109,1.339,0.342,1.815l6.301,6.667
			C31.255,25.837,31.658,26,32.062,26s0.807-0.163,1.113-0.488l6.301-6.667C39.927,18.368,40.062,17.651,39.817,17.029z"/>
	</g>
	<g>
		<g>
			<linearGradient id="SVGID_1_" gradientUnits="userSpaceOnUse" x1="19.9995" y1="11" x2="19.9995" y2="29.0005">
				<stop  offset="0" style="stop-color:#FFFFFF"/>
				<stop  offset="1" style="stop-color:#BABABA"/>
			</linearGradient>
			<path fill="url(#SVGID_1_)" d="M18.262,11h-15.4c-0.995,0-1.8,0.896-1.8,2s0.806,2,1.8,2h15.4c0.994,0,1.8-0.896,1.8-2
				S19.256,11,18.262,11z M18.262,18h-15.4c-0.995,0-1.8,0.896-1.8,2s0.806,2,1.8,2h15.4c0.994,0,1.8-0.896,1.8-2
				S19.256,18,18.262,18z M18.262,25h-15.4c-0.995,0-1.8,0.896-1.8,2s0.806,2,1.8,2h15.4c0.994,0,1.8-0.896,1.8-2
				S19.256,25,18.262,25z M38.817,16.029C38.573,15.406,37.999,15,37.362,15H24.761c-0.637,0-1.212,0.406-1.455,1.029
				c-0.244,0.622-0.109,1.339,0.342,1.815l6.301,6.667C30.255,24.837,30.658,25,31.062,25s0.807-0.163,1.113-0.488l6.301-6.667
				C38.927,17.368,39.062,16.651,38.817,16.029z"/>
		</g>
	</g>
</g>
</svg>
