<?xml version="1.0" encoding="utf-8"?>
<!-- Generator: Adobe Illustrator 18.1.1, SVG Export Plug-In . SVG Version: 6.00 Build 0)  -->
<svg version="1.1" id="Слой_1" xmlns="http://www.w3.org/2000/svg" xmlns:xlink="http://www.w3.org/1999/xlink" x="0px" y="0px"
	 viewBox="976.6 481.8 50 37" enable-background="new 976.6 481.8 50 37" xml:space="preserve">
<g>
	<path fill="#A5AAB1" d="M978.3,493.5c0.5-0.9,1.2-1.7,2.1-2.5c0.9-0.8,1.8-1.4,3-2c1.2-0.6,2.3-1.1,3.6-1.5
		c-0.8,1.5-1.7,3.2-2.6,5.2s-1.8,4.2-2.9,6.6c-0.9,2.5-1.8,5.2-2.6,8.2c-0.8,2.9-1.4,6.2-1.9,9.6c-0.1,0.8,0,1.2,0.1,1.5
		c0.3,0.2,0.5,0.3,0.9,0c0.4-0.2,0.8-0.6,1.2-1.2c0.4-0.6,0.8-1.4,0.9-2.3c0.5-2.2,1.2-4.5,1.9-6.9c0.8-2.5,1.7-4.9,2.7-7.4
		c1-2.5,2.2-4.9,3.4-7.4c1.4-2.3,2.7-4.6,4-6.8c1.7,0,3.2,0.2,4.5,0.8c1.3,0.6,2.2,1.5,2.6,3.1c0.4,1.4,0.4,2.8,0,4.2
		c-0.4,1.4-1,2.6-1.8,3.9c-1.7,0-3.2,0.2-4.9,0.5s-3.1,0.6-4.4,1.2c-1.3,0.6-2.2,1.2-3,2.2c-0.6,0.9-0.9,1.8-0.5,3.1
		c0.3,1.1,1,1.7,2.2,1.8c1.3,0.3,2.7,0.2,4.3-0.5c1.7-0.5,3.4-1.5,5.2-2.8c1.8-1.4,3.5-3.1,4.9-5.1c1-1.5,1.7-3.1,2.2-4.8
		c0.4-1.7,0.4-3.5,0-5.4c-0.4-1.5-1.2-2.9-2.3-3.9c-1.2-0.9-2.5-1.7-4-2.2c-1.4-0.8-3.1-0.9-4.9-0.9c-1.8,0-3.6,0.3-5.3,0.8
		c-1.8,0.5-3.4,1.1-4.9,1.8c-1.4,0.9-2.6,1.8-3.6,3.1c-0.9,1.2-1.4,2.5-1.7,4c-0.1,1.5,0.1,3.1,1,4.8
		C977.6,495.4,977.8,494.5,978.3,493.5z M987.4,503.2c0.4-0.5,1-0.8,1.8-1.1s1.8-0.6,2.9-0.9c1.2-0.3,2.3-0.5,3.5-0.5
		c-0.9,0.8-1.7,1.5-2.6,2.2c-0.9,0.6-1.8,1.1-2.6,1.4s-1.6,0.6-2.1,0.6c-0.6,0-0.9-0.2-1.2-0.5C986.9,504,987,503.5,987.4,503.2z
		 M1010.6,508.6c-0.5,0.5-0.9,0.9-1.4,1.4c-0.5,0.5-0.9,0.6-1.3,0.9c-0.4,0.2-0.6,0.2-0.8,0c-0.1-0.2-0.3-0.6-0.1-1.1
		c0.1-0.6,0.3-1.2,0.5-2c0.3-0.8,0.5-1.5,0.9-2.5c0.4-0.9,0.8-1.7,1.2-2.6c0.4-0.8,0.9-1.7,1.3-2.3c0.4-0.8,0.9-1.4,1.3-1.8
		c0.1-0.2,0.1-0.3,0-0.5c-0.1-0.2-0.3-0.3-0.4-0.5c-0.1-0.2-0.3-0.3-0.5-0.5c-0.3,0-0.4,0-0.4,0c-0.1,0.2-0.4,0.2-0.6,0.3
		c-0.3,0.2-0.5,0.2-0.9,0.3c-0.3,0-0.5,0-0.8,0s-0.5-0.2-0.6-0.5c0.1-0.5,0.4-0.9,0.5-1.4c0.1-0.5,0.3-0.9,0.3-1.2
		c0-0.5-0.1-0.8-0.3-1.1c-0.1-0.3-0.4-0.6-0.9-0.8c-0.5-0.3-1.2-0.2-1.7,0.3c-0.6,0.5-1,1.1-1.3,1.8c-0.3,0.8-0.4,1.5-0.4,2.5
		c0.1,0.9,0.5,1.5,1.3,2c-0.1,0.3-0.4,0.9-0.8,1.7c-0.4,0.8-0.8,1.7-1.3,2.6c-0.5,0.9-1,2-1.6,3.1c-0.5,1.1-1.2,2.2-1.7,3.2
		c-0.5,1.1-1,2-1.6,2.8c-0.5,0.9-0.9,1.5-1.2,2s-0.4,0.8-0.4,1.1c0,0.3,0,0.6,0.1,0.6c0.1,0.2,0.4,0.2,0.6,0c0.3-0.2,0.6-0.5,1-1.1
		c0.3-0.5,0.6-1.1,1-1.8c0.4-0.8,0.9-1.7,1.4-2.8c0.5-1.1,1-2,1.7-3.2c0.5-1.1,1-2.2,1.6-3.2c0.5-1.1,0.9-1.8,1.3-2.6
		c0.4-0.8,0.6-1.4,0.8-1.7c0.5,0.2,0.9,0.2,1.2,0.2c0.4,0,0.6,0,1,0c-1.6,2.2-2.9,4.2-3.8,6s-1.6,3.5-1.8,5.1
		c-0.4,1.5-0.4,2.6-0.1,3.5s0.6,1.4,1.3,1.4c0.6,0,1.4-0.3,2.5-1.1c0.9-0.8,1.8-1.5,2.7-2.5c0.9-0.9,1.7-1.8,2.3-2.8
		c0.6-0.9,1.2-1.7,1.4-2.2c0.3-0.5,0.4-0.9,0.4-1.2s-0.1-0.5-0.3-0.5c-0.1,0-0.4,0-0.6,0.2c-0.3,0.2-0.6,0.5-0.9,1.1
		C1011.4,507.7,1011,508.2,1010.6,508.6z"/>
	<path fill="#A5AAB1" d="M1023.2,508.5c-0.5,0.2-0.9,0.2-1.3-0.2c0.6-1.4,1-2.6,1.4-3.9c0.4-1.2,0.4-2.2,0.1-2.8
		c0.4-1.1,0.5-1.8,0.3-2.5c-0.1-0.6-0.5-1.1-1-1.4s-1.2-0.5-1.8-0.5c-0.8,0-1.4,0.3-2.2,0.6c-1,0.5-2.1,1.4-3.1,2.5
		c-1,1.2-2.1,2.9-3.1,5.1c-0.6,1.4-1,2.8-1.3,4c-0.3,1.2-0.3,2.3-0.1,3.2c0.1,0.9,0.4,1.7,0.8,2.3c0.4,0.6,0.9,1.1,1.7,1.2
		c0.6,0.2,1.3,0.2,1.9-0.2c0.6-0.3,1.4-0.6,2.1-1.2s1.3-1.2,1.9-2s1.2-1.7,1.7-2.5c0.4,0.2,0.8,0.3,1.3,0.2c0.5,0,0.9-0.2,1.4-0.3
		c0.5-0.2,0.9-0.5,1.3-0.9c0.4-0.5,0.8-0.9,1-1.5c0.3-0.5,0.4-0.9,0.4-1.2s-0.1-0.5-0.3-0.6c-0.1,0-0.4,0-0.6,0.2
		c-0.3,0.2-0.5,0.5-0.9,1.1C1024.1,507.9,1023.7,508.3,1023.2,508.5z M1014.9,510.9c-0.1-0.5-0.3-1.1-0.3-1.7c0-0.8,0.1-1.5,0.4-2.3
		s0.5-1.7,0.8-2.5c0.5-1.2,1.2-2.3,1.8-3.2c0.8-0.9,1.6-1.5,2.2-2c0.5-0.5,0.9-0.5,1.3-0.5c0.4,0,0.6,0.2,0.8,0.5
		c0.1,0.2,0.3,0.5,0.3,0.8c0,0.3-0.3,0.6-0.6,0.9c-0.4,0.3-0.9,0.8-1.3,1.5c-0.4,0.8-0.8,1.4-0.9,2.3c-0.3,0.8-0.4,1.5-0.4,2.5
		c0,0.8,0.3,1.5,0.6,2c-0.1,0.3-0.4,0.6-0.8,0.9c-0.4,0.3-0.6,0.6-1,0.9s-0.8,0.5-1.2,0.6c-0.4,0.2-0.8,0.2-1,0
		C1015.3,511.7,1015,511.4,1014.9,510.9z"/>
</g>
</svg>
