<?xml version="1.0" encoding="utf-8"?>
<!-- Generator: Adobe Illustrator 18.1.1, SVG Export Plug-In . SVG Version: 6.00 Build 0)  -->
<svg version="1.1" id="Слой_1" xmlns="http://www.w3.org/2000/svg" xmlns:xlink="http://www.w3.org/1999/xlink" x="0px" y="0px"
	 viewBox="981.5 481.5 37 37" enable-background="new 981.5 481.5 37 37" xml:space="preserve">
<g>
	<path fill="#A5AAB1" d="M1013.9,498.9l4.6,1.2c0,2-0.5,4-1.1,5.7l-4.8-0.5c-0.5,0.9-0.9,1.9-1.5,2.6l2.8,4
		c-1.2,1.5-2.8,2.8-4.5,3.7l-3.2-3.4c-0.9,0.5-1.9,0.8-2.9,1.1l-0.3,4.8c-0.9,0.2-2,0.3-2.9,0.3s-2-0.2-2.9-0.3l-0.3-4.8
		c-1.1-0.2-2-0.6-2.9-1.1l-3.4,3.4c-1.7-1.1-3.2-2.3-4.5-3.7l2.8-4c-0.6-0.8-1.1-1.7-1.5-2.6l-4.8,0.5c-0.5-1.7-0.9-3.7-0.9-5.7
		l4.6-1.2c0-1.1,0.3-2,0.5-3.1l-3.9-2.6c0.8-1.9,1.7-3.5,2.9-5.1l4.3,2.2c0.8-0.9,1.5-1.5,2.3-2.2l-1.2-4.6c1.7-0.9,3.5-1.7,5.4-2
		l2,4.5c0.5,0,1.1-0.2,1.5-0.2s1.1,0,1.5,0.2l2-4.5c2,0.3,3.9,1.1,5.4,2l-1.2,4.6c0.9,0.6,1.7,1.2,2.3,2l4.3-2.2
		c1.2,1.5,2.2,3.2,2.9,5.1l-4,2.8C1013.6,496.9,1013.7,497.8,1013.9,498.9z M1000.3,495.2c-2.8,0-4.9,2.3-4.9,4.9
		c0,2.8,2.2,4.9,4.9,4.9c2.8,0,4.9-2.3,4.9-4.9C1005.2,497.4,1003.1,495.2,1000.3,495.2z"/>
</g>
</svg>
