<?xml version="1.0" encoding="utf-8"?>
<!-- Generator: Adobe Illustrator 18.1.1, SVG Export Plug-In . SVG Version: 6.00 Build 0)  -->
<svg version="1.1" id="Слой_1" xmlns="http://www.w3.org/2000/svg" xmlns:xlink="http://www.w3.org/1999/xlink" x="0px" y="0px"
	 viewBox="974 477.6 52 48" enable-background="new 974 477.6 52 48" xml:space="preserve">
<g>
	<path fill="#A5AAB1" d="M1000,500.2c-2.9,0-5.2,2.5-5.2,5.6c0,3.1,2.3,5.6,5.2,5.6s5.2-2.5,5.2-5.6
		C1005.2,502.9,1002.9,500.2,1000,500.2z M1000,509.7c-1.9,0-3.5-1.7-3.5-3.7s1.6-3.7,3.5-3.7c1.9,0,3.5,1.7,3.5,3.7
		S1001.9,509.7,1000,509.7z"/>
	<path fill="#A5AAB1" d="M1012.9,502.7h-3.9c-0.1-0.5-0.3-0.9-0.6-1.4l2.7-2.9c0.3-0.3,0.3-0.8,0.1-1.1c-0.9-1.4-2-2.5-3.3-3.6
		c-0.3-0.3-0.7-0.2-1,0.2l-2.6,2.8c-0.4-0.2-0.9-0.5-1.3-0.6v-4c0-0.5-0.3-0.8-0.7-0.9c-0.7-0.2-1.6-0.2-2.3-0.2s-1.6,0-2.3,0.2
		c-0.4,0-0.7,0.5-0.7,0.9v4.2c-0.4,0.2-0.9,0.3-1.3,0.6l-2.7-2.9c-0.3-0.3-0.7-0.3-1-0.2c-1.3,0.9-2.3,2.2-3.3,3.6
		c-0.3,0.3-0.1,0.8,0.1,1.1l2.7,2.9c-0.1,0.5-0.4,0.9-0.6,1.4h-3.8c-0.4,0-0.7,0.3-0.9,0.8c-0.1,0.8-0.1,1.7-0.1,2.5s0,1.7,0.1,2.5
		c0,0.5,0.4,0.8,0.9,0.8h3.9c0.1,0.5,0.3,0.9,0.6,1.4l-2.7,2.9c-0.3,0.3-0.3,0.8-0.1,1.1c0.9,1.4,2,2.5,3.3,3.6
		c0.3,0.3,0.7,0.2,1-0.2l2.7-2.9c0.4,0.2,0.9,0.5,1.3,0.6v4.2c0,0.5,0.3,0.8,0.7,0.9c0.7,0.2,1.6,0.2,2.3,0.2s1.6,0,2.3-0.2
		c0.4,0,0.7-0.5,0.7-0.9v-4.2c0.4-0.2,0.9-0.3,1.3-0.6l2.7,2.9c0.3,0.3,0.7,0.3,1,0.2c1.3-0.9,2.3-2.2,3.3-3.6
		c0.3-0.3,0.1-0.8-0.1-1.1l-2.7-2.9c0.1-0.5,0.4-0.9,0.6-1.4h3.9c0.4,0,0.7-0.3,0.9-0.8c0.1-0.8,0.1-1.7,0.1-2.5s0-1.7-0.1-2.5
		C1013.6,503,1013.3,502.7,1012.9,502.7z M1012.1,507.3h-3.8c-0.4,0-0.7,0.3-0.9,0.6c-0.1,0.8-0.4,1.5-0.9,2.2
		c-0.1,0.3-0.1,0.8,0.1,1.1l2.6,2.8c-0.6,0.8-1.2,1.4-1.9,2l-2.5-2.8c-0.3-0.3-0.7-0.3-1-0.2c-0.6,0.5-1.3,0.8-2,0.9
		c-0.4,0.2-0.6,0.5-0.6,0.9v4c-0.9,0.2-1.7,0.2-2.7,0v-4c0-0.5-0.3-0.8-0.6-0.9c-0.7-0.2-1.4-0.5-2-0.9c-0.3-0.2-0.7-0.2-1,0.2
		l-2.6,2.8c-0.7-0.6-1.3-1.2-1.9-2l2.6-2.8c0.3-0.3,0.3-0.8,0.1-1.1c-0.4-0.6-0.7-1.4-0.9-2.2c-0.1-0.5-0.4-0.6-0.9-0.6h-3.8
		c0-0.5-0.1-0.9-0.1-1.4s0-0.9,0.1-1.4h3.8c0.4,0,0.7-0.3,0.9-0.6c0.1-0.8,0.4-1.5,0.9-2.2c0.1-0.3,0.1-0.8-0.1-1.1l-2.6-2.8
		c0.6-0.8,1.2-1.4,1.9-2l2.6,2.8c0.3,0.3,0.7,0.3,1,0.2c0.6-0.5,1.3-0.8,2-0.9c0.4-0.2,0.6-0.5,0.6-0.9v-4.2c0.9-0.2,1.7-0.2,2.7,0
		v4c0,0.5,0.3,0.8,0.6,0.9c0.7,0.2,1.4,0.5,2,0.9c0.3,0.2,0.7,0.2,1-0.2l2.6-2.8c0.7,0.6,1.3,1.2,1.9,2l-2.6,2.8
		c-0.3,0.3-0.3,0.8-0.1,1.1c0.4,0.6,0.7,1.4,0.9,2.2c0.1,0.5,0.4,0.6,0.9,0.6h3.8c0,0.5,0.1,0.9,0.1,1.4
		C1012.3,506.3,1012.3,506.9,1012.1,507.3z"/>
	<path fill="#A5AAB1" d="M1021.5,481.5h-18.2c-0.4,0-0.9,0.5-0.9,0.9c0,0.5,0.4,0.9,0.9,0.9h18.2c1.6,0,2.7,1.4,2.7,2.9v1.1
		c-0.7-0.6-1.7-1.1-2.7-1.1h-20.7v-3.9c0-2.6-2-4.8-4.5-4.8h-17.9c-2.5,0-4.5,2.2-4.5,4.8v42.3c0,0.5,0.4,0.9,0.9,0.9h50.3
		c0.4,0,0.9-0.5,0.9-0.9v-38.4C1026,483.7,1024,481.5,1021.5,481.5z M1024.3,523.8h-48.7v-41.3c0-1.7,1.3-3.1,2.9-3.1h17.9
		c1.6,0,2.7,1.4,2.7,2.9v4.8c0,0.5,0.4,0.9,0.9,0.9h21.5c1.6,0,2.7,1.4,2.7,2.9V523.8L1024.3,523.8z"/>
</g>
</svg>
