<?xml version="1.0" encoding="utf-8"?>
<!-- Generator: Adobe Illustrator 18.1.1, SVG Export Plug-In . SVG Version: 6.00 Build 0)  -->
<svg version="1.1" id="Слой_1" xmlns="http://www.w3.org/2000/svg" xmlns:xlink="http://www.w3.org/1999/xlink" x="0px" y="0px"
	 viewBox="974 477.5 52 48" enable-background="new 974 477.5 52 48" xml:space="preserve">
<g>
	<path fill="#A5AAB1" d="M1025.1,477.5h-50.3c-0.4,0-0.9,0.4-0.9,0.9v46.2c0,0.4,0.4,0.9,0.9,0.9h50.3c0.4,0,0.9-0.4,0.9-0.9v-9
		c0-0.4-0.4-0.9-0.9-0.9s-0.9,0.4-0.9,0.9v8.1h-48.7v-37.8h48.7v26.2c0,0.4,0.4,0.9,0.9,0.9s0.9-0.4,0.9-0.9v-33.9
		C1026,478,1025.6,477.5,1025.1,477.5z M975.6,479.2h30.6v5h-30.6V479.2z M1007.9,484.3v-5.2h16.3v5h-16.3V484.3z"/>
	<path fill="#A5AAB1" d="M1016.2,480.9c-0.4,0-0.9,0.4-0.9,0.9c0,0.4,0.4,0.9,0.9,0.9s0.9-0.4,0.9-0.9
		C1017,481.4,1016.6,480.9,1016.2,480.9z"/>
	<path fill="#A5AAB1" d="M1011.7,480.9c-0.4,0-0.9,0.4-0.9,0.9c0,0.4,0.4,0.9,0.9,0.9s0.9-0.4,0.9-0.9
		C1012.6,481.4,1012.1,480.9,1011.7,480.9z"/>
	<path fill="#A5AAB1" d="M1020.7,480.9c-0.4,0-0.9,0.4-0.9,0.9c0,0.4,0.4,0.9,0.9,0.9c0.4,0,1-0.4,1-0.9
		C1021.7,481.4,1021.2,480.9,1020.7,480.9z"/>
	<path fill="#A5AAB1" d="M990.5,500.5c0.3,0,0.6-0.3,0.7-0.6l1.9-6.5c0.1-0.4-0.1-0.9-0.6-1c-0.4-0.1-0.9,0.1-1,0.6l-1.3,4.7
		l-1.3-2.2c-0.1-0.3-0.4-0.4-0.7-0.4s-0.6,0.1-0.7,0.4l-1.3,2.2l-1.3-4.7c-0.3-0.6-0.7-0.7-1.2-0.7c-0.4,0.1-0.7,0.6-0.6,1l1.9,6.5
		c0.1,0.3,0.4,0.6,0.7,0.6c0,0,0,0,0.1,0c0.3,0,0.6-0.1,0.7-0.4l1.6-2.7l1.6,2.7C989.7,500.4,990.2,500.5,990.5,500.5z"/>
	<path fill="#A5AAB1" d="M996.8,500.5L996.8,500.5c0.4,0,0.7-0.1,0.9-0.4l1.6-2.7l1.6,2.7c0.1,0.3,0.4,0.4,0.9,0.4
		c0.3,0,0.6-0.3,0.7-0.6l1.9-6.5c0.1-0.4-0.1-0.9-0.6-1c-0.4-0.1-0.9,0.1-1,0.6l-1.3,4.7l-1.3-2.2c-0.1-0.3-0.4-0.4-0.7-0.4
		s-0.6,0.1-0.7,0.4l-1.6,2.1l-1.3-4.7c-0.1-0.4-0.6-0.6-1-0.6c-0.4,0.1-0.7,0.6-0.6,1l1.9,6.5C996.2,500.2,996.5,500.4,996.8,500.5z
		"/>
	<path fill="#A5AAB1" d="M1014.7,492.3c-0.4-0.1-0.9,0.1-1,0.6l-1.3,4.7l-1.3-2.2c-0.1-0.3-0.4-0.4-0.7-0.4s-0.6,0.1-0.7,0.4
		l-1.3,2.2l-1.3-4.7c-0.1-0.4-0.6-0.7-1-0.6c-0.4,0.1-0.7,0.6-0.6,1l1.9,6.5c0.1,0.3,0.4,0.6,0.7,0.6c0.3,0,0.6-0.1,0.9-0.4l1.6-2.7
		l1.6,2.7c0.1,0.3,0.4,0.4,0.7,0.4c0,0,0,0,0.1,0c0.3,0,0.6-0.3,0.7-0.6l1.9-6.5C1015.5,493,1015.2,492.4,1014.7,492.3z"/>
	<path fill="#A5AAB1" d="M989.2,505.2c0-0.4-0.4-0.9-0.9-0.9h-4.5c-0.4,0-0.9,0.4-0.9,0.9v4.6c0,0.4,0.4,0.9,0.9,0.9h4.5
		c0.4,0,0.9-0.4,0.9-0.9V505.2z M987.4,508.9h-2.7v-2.8h2.7V508.9z"/>
	<path fill="#A5AAB1" d="M988.3,512.3h-4.5c-0.4,0-0.9,0.4-0.9,0.9v4.6c0,0.4,0.4,0.9,0.9,0.9h4.5c0.4,0,0.9-0.4,0.9-0.9v-4.6
		C989.2,512.7,988.7,512.3,988.3,512.3z M987.4,516.9h-2.7v-2.8h2.7V516.9z"/>
	<path fill="#A5AAB1" d="M1014.6,506.7h-3.3c-0.4,0-0.9,0.4-0.9,0.9s0.4,0.9,0.9,0.9h3.3c0.4,0,0.9-0.4,0.9-0.9
		C1015.5,507,1015,506.7,1014.6,506.7z"/>
	<path fill="#A5AAB1" d="M1007.9,506.7h-16.3c-0.4,0-0.9,0.4-0.9,0.9s0.4,0.9,0.9,0.9h16.3c0.4,0,0.9-0.4,0.9-0.9
		C1008.8,507,1008.4,506.7,1007.9,506.7z"/>
	<path fill="#A5AAB1" d="M1014.6,514.5h-3.3c-0.4,0-0.9,0.4-0.9,0.9s0.4,0.9,0.9,0.9h3.3c0.4,0,0.9-0.4,0.9-0.9
		S1015,514.5,1014.6,514.5z"/>
	<path fill="#A5AAB1" d="M1007.9,514.5h-16.3c-0.4,0-0.9,0.4-0.9,0.9s0.4,0.9,0.9,0.9h16.3c0.4,0,0.9-0.4,0.9-0.9
		S1008.4,514.5,1007.9,514.5z"/>
</g>
</svg>
