<?xml version="1.0" encoding="utf-8"?>
<!-- Generator: Adobe Illustrator 18.1.1, SVG Export Plug-In . SVG Version: 6.00 Build 0)  -->
<svg version="1.1" id="Слой_1" xmlns="http://www.w3.org/2000/svg" xmlns:xlink="http://www.w3.org/1999/xlink" x="0px" y="0px"
	 viewBox="983.4 477.4 36 48" enable-background="new 983.4 477.4 36 48" xml:space="preserve">
<g>
	<path fill="#A5AAB1" d="M992.5,498.3c0-0.4-0.4-0.8-0.8-0.8h-3c-0.4,0-0.8,0.4-0.8,0.8v12.1c0,0.4,0.4,0.8,0.8,0.8s0.8-0.4,0.8-0.8
		v-11.3h2.2C992.2,498.9,992.5,498.7,992.5,498.3z"/>
	<path fill="#A5AAB1" d="M994,498.3c0,0.4,0.4,0.8,0.8,0.8h18.5v11.3c0,0.4,0.4,0.8,0.8,0.8c0.4,0,0.8-0.4,0.8-0.8v-12.1
		c0-0.4-0.4-0.8-0.8-0.8h-19.4C994.3,497.5,994,497.7,994,498.3z"/>
	<path fill="#A5AAB1" d="M1019.1,482.3l-4.5-4.7c-0.3-0.1-0.4-0.3-0.6-0.3H984c-0.3,0-0.6,0.4-0.6,0.8v35.2c0,0.4,0.4,0.8,0.8,0.8
		h34.4c0.4,0,0.8-0.4,0.8-0.8v-30.6C1019.3,482.7,1019.3,482.4,1019.1,482.3z M993.4,478.9h7.1v10.6c0,0.4,0.4,0.8,0.8,0.8h5.7
		c0.4,0,0.8-0.4,0.8-0.8v-8.2c0-0.4-0.4-0.8-0.8-0.8s-0.8,0.4-0.8,0.8v7.6h-4.2v-10h7.1v12.9h-15.9V478.9z M1017.8,512.6h-33v-33.8
		h7v13.7c0,0.4,0.4,0.8,0.8,0.8h17.3c0.4,0,0.8-0.4,0.8-0.8v-13.7h3l4.2,4.3V512.6L1017.8,512.6z"/>
	<path fill="#A5AAB1" d="M1010.9,506.5h-19.2c-0.4,0-0.8,0.4-0.8,0.8s0.4,0.7,0.8,0.7h19.2c0.4,0,0.8-0.4,0.8-0.8
		S1011.3,506.5,1010.9,506.5z"/>
	<path fill="#A5AAB1" d="M1010.9,503.4h-19.2c-0.4,0-0.8,0.4-0.8,0.8s0.4,0.8,0.8,0.8h19.2c0.4,0,0.8-0.4,0.8-0.8
		S1011.3,503.4,1010.9,503.4z"/>
	<path fill="#A5AAB1" d="M1010.2,519.5l-1.3,0.7v-3.7c0-0.4-0.4-0.8-0.8-0.8s-0.8,0.4-0.8,0.8v4.4l-6,2.8l-6-2.8v-4.4
		c0-0.4-0.4-0.8-0.8-0.8s-0.8,0.4-0.8,0.8v3.7l-1.3-0.7c-0.4-0.1-0.8,0-1,0.4c-0.1,0.4,0,0.8,0.4,1.1l9.1,4.3c0.1,0,0.3,0.1,0.3,0.1
		c0.1,0,0.3,0,0.3-0.1l9.1-4.3c0.4-0.1,0.5-0.7,0.4-1.1C1010.9,519.5,1010.6,519.3,1010.2,519.5z"/>
</g>
</svg>
