<?xml version="1.0" encoding="utf-8"?>
<!-- Generator: Adobe Illustrator 16.0.0, SVG Export Plug-In . SVG Version: 6.00 Build 0)  -->
<!DOCTYPE svg PUBLIC "-//W3C//DTD SVG 1.1//EN" "http://www.w3.org/Graphics/SVG/1.1/DTD/svg11.dtd">
<svg version="1.1" id="Layer_1" xmlns="http://www.w3.org/2000/svg" xmlns:xlink="http://www.w3.org/1999/xlink" x="0px" y="0px"
	 width="24px" height="24px" viewBox="0 0 24 24" enable-background="new 0 0 24 24" xml:space="preserve">
<g>
	<path fill="#D83535" d="M6.5,4.328c2.062,0,3.896,1.228,4.564,3.056c0.144,0.395,0.519,0.657,0.939,0.657s0.795-0.262,0.939-0.657
		c0.669-1.828,2.503-3.056,4.565-3.056c0.505,0,1.007,0.075,1.492,0.224c1.253,0.384,2.257,1.209,2.826,2.325
		c0.53,1.041,0.615,2.223,0.237,3.326c-0.774,2.249-8.489,8.667-10.159,9.431c-1.633-0.766-9.19-7.179-9.967-9.43
		C1.561,9.103,1.645,7.924,2.175,6.884C2.744,5.767,3.75,4.938,5.005,4.551C5.491,4.403,5.994,4.327,6.5,4.328L6.5,4.328 M6.5,3.328
		c-0.592,0-1.193,0.086-1.787,0.268c-3.049,0.938-4.712,4.038-3.722,6.932c0.952,2.758,9.78,10.146,10.911,10.146
		c1.129,0,10.154-7.379,11.106-10.146c0.993-2.899-0.671-5.999-3.716-6.932c-0.593-0.181-1.194-0.268-1.785-0.268
		c-2.419,0-4.674,1.441-5.504,3.713C11.171,4.767,8.917,3.328,6.5,3.328L6.5,3.328z"/>
</g>
</svg>
