<svg id="Layer_1" data-name="Layer 1" xmlns="http://www.w3.org/2000/svg" viewBox="0 0 19.73 18.39"><title>1</title><path d="M19.3,6.13H14.13V1.44A.44.44,0,0,0,13.69,1H4a.44.44,0,0,0-.44.44V9.35a2.45,2.45,0,0,0-2,2.34A2.23,2.23,0,0,0,2.23,16H3.58V19a.44.44,0,0,0,.44.44H19.3a.44.44,0,0,0,.44-.44V6.56A.44.44,0,0,0,19.3,6.13ZM6.91,18.52H4.45V16H5.8a2.21,2.21,0,0,0,1.1-.29v2.77ZM7,14.38l0,0,0,0v0a1.35,1.35,0,0,1-1.18.69H4.45V13.59a.44.44,0,0,0-.87,0v1.58H2.23a1.35,1.35,0,0,1-.16-2.7A.44.44,0,0,0,2.44,12v-.28a1.57,1.57,0,0,1,3.12-.24h0v.16s0,0,0,.07V12a.44.44,0,0,0,0,.08l0,.08,0,0a.44.44,0,0,0,.34.24h.12a1.35,1.35,0,0,1,.72.41h0A1.35,1.35,0,0,1,7,14.38Zm.44-2.21H7.31a2.22,2.22,0,0,0-.85-.49s0-.07,0-.1h0v-.1h0v-.07h0a2.41,2.41,0,0,0-.1-.41H7.47v1.22Zm2.46,6.35H7.78V15H9.93Zm3.33-12v12H10.8V15h.35a.44.44,0,1,0,0-.87H8A2.21,2.21,0,0,0,7.89,13h0a.44.44,0,0,0,.44-.44V10.52a.44.44,0,0,0-.44-.44H5.79L5.72,10l0,0-.05-.05,0,0,0,0,0,0,0,0,0,0,0,0,0,0,0,0,0,0-.05,0,0,0-.06,0,0,0L5,9.5h0l-.07,0,0,0-.06,0h0l-.06,0H4.45V1.87h8.81V6.56Zm5.6,12H14.13V7h4.73Z" transform="translate(0 -1)"/><path d="M17.5,8.31H15.42a.44.44,0,0,0-.44.44v7.5a.44.44,0,0,0,.44.44H17.5a.44.44,0,0,0,.44-.44V8.74A.44.44,0,0,0,17.5,8.31Zm-.44,7.5H15.86V14.18h1.21Zm0-2.5H15.86V11.68h1.21Zm0-2.5H15.86V9.18h1.21Z" transform="translate(0 -1)"/><path d="M12.9,14.24l-.07-.05-.07,0-.08,0a.43.43,0,0,0-.17,0l-.08,0-.08,0-.07.05-.05.07,0,.07,0,.08a.42.42,0,0,0,0,.17l0,.08,0,.08.05.07.07.05.08,0,.08,0h.17l.08,0,.07,0,.07-.05a.44.44,0,0,0,0-.62Z" transform="translate(0 -1)"/><path d="M7.91,2.77H5.61a.44.44,0,0,0-.44.44V5.3a.44.44,0,0,0,.44.44h2.3a.44.44,0,0,0,.44-.44V3.21A.44.44,0,0,0,7.91,2.77ZM7.47,4.87H6V3.65H7.47Z" transform="translate(0 -1)"/><path d="M12,2.77H9.7a.44.44,0,0,0-.44.44V5.3a.44.44,0,0,0,.44.44H12a.44.44,0,0,0,.44-.44V3.21A.44.44,0,0,0,12,2.77Zm-.44,2.09H10.14V3.65h1.42Z" transform="translate(0 -1)"/><path d="M7.91,6.43H5.61a.44.44,0,0,0-.44.44V9a.44.44,0,0,0,.44.44h2.3A.44.44,0,0,0,8.35,9V6.86A.44.44,0,0,0,7.91,6.43ZM7.47,8.52H6V7.3H7.47Z" transform="translate(0 -1)"/><path d="M12,6.43H9.7a.44.44,0,0,0-.44.44V9a.44.44,0,0,0,.44.44H12A.44.44,0,0,0,12.43,9V6.86A.44.44,0,0,0,12,6.43Zm-.44,2.09H10.14V7.3h1.42Z" transform="translate(0 -1)"/><path d="M12,10.08H9.7a.44.44,0,0,0-.44.44v2.09A.44.44,0,0,0,9.7,13H12a.44.44,0,0,0,.44-.44V10.52A.44.44,0,0,0,12,10.08Zm-.44,2.09H10.14V11h1.42Z" transform="translate(0 -1)"/><path d="M4.44,12.06l0-.08,0-.08-.05-.07-.07-.05-.08,0-.08,0a.43.43,0,0,0-.17,0l-.08,0-.07,0-.07.05-.05.07,0,.08,0,.08a.43.43,0,0,0,0,.09.44.44,0,0,0,0,.09l0,.08,0,.07.05.07.07.05.07,0,.08,0H4.1l.08,0,.08,0,.07-.05.05-.07,0-.07,0-.08a.44.44,0,0,0,0-.09A.43.43,0,0,0,4.44,12.06Z" transform="translate(0 -1)"/></svg>