<svg id="Layer_1" data-name="Layer 1" xmlns="http://www.w3.org/2000/svg" viewBox="0 0 16 20.06"><defs><style>.cls-1{fill:#000002;}</style></defs><title>15</title><path class="cls-1" d="M17.92,20H2.49a.28.28,0,0,1-.28-.28V6.88a.28.28,0,0,1,.28-.28h4V.23a.28.28,0,0,1,.28-.28H17.92a.28.28,0,0,1,.28.28V19.72a.28.28,0,0,1-.28.28Zm-7.17-.58h6.89V.51H7V6.6h3.43a.28.28,0,0,1,.28.28Zm-8,0h7.41V7.17H2.77ZM9.3,17.56H7a.28.28,0,0,1-.28-.28V16A.28.28,0,0,1,7,15.68H9.3a.28.28,0,0,1,.28.28v1.32A.28.28,0,0,1,9.3,17.56Zm-2-.57H9v-.75H7.33Zm-1.43.57H3.65a.28.28,0,0,1-.28-.28V16a.28.28,0,0,1,.28-.28H5.91a.28.28,0,0,1,.28.28v1.32A.28.28,0,0,1,5.91,17.56Zm-2-.57H5.62v-.75H3.94Zm12,.42H14.89a.28.28,0,0,1-.28-.28V15.95a.28.28,0,0,1,.28-.28H16a.28.28,0,0,1,.28.28v1.18A.28.28,0,0,1,16,17.42Zm-.8-.57h.52v-.61h-.52Zm-2.34.57H11.75a.28.28,0,0,1-.28-.28V15.95a.28.28,0,0,1,.28-.28h1.09a.28.28,0,0,1,.28.28v1.18A.28.28,0,0,1,12.84,17.42Zm-.8-.57h.52v-.61H12ZM9.3,15H7a.28.28,0,0,1-.28-.28V13.38A.28.28,0,0,1,7,13.1H9.3a.28.28,0,0,1,.28.28V14.7A.28.28,0,0,1,9.3,15Zm-2-.57H9v-.75H7.33ZM5.91,15H3.65a.28.28,0,0,1-.28-.28V13.38a.28.28,0,0,1,.28-.28H5.91a.28.28,0,0,1,.28.28V14.7A.28.28,0,0,1,5.91,15Zm-2-.57H5.62v-.75H3.94Zm12,.16H14.89a.28.28,0,0,1-.28-.28V13.11a.28.28,0,0,1,.28-.28H16a.28.28,0,0,1,.28.28v1.18A.28.28,0,0,1,16,14.58Zm-.8-.57h.52V13.4h-.52Zm-2.34.57H11.75a.28.28,0,0,1-.28-.28V13.11a.28.28,0,0,1,.28-.28h1.09a.28.28,0,0,1,.28.28v1.18A.28.28,0,0,1,12.84,14.58ZM12,14h.52V13.4H12ZM9.3,12.41H7a.28.28,0,0,1-.28-.28V10.81A.28.28,0,0,1,7,10.52H9.3a.28.28,0,0,1,.28.28v1.32A.28.28,0,0,1,9.3,12.41Zm-2-.57H9v-.75H7.33Zm-1.43.57H3.65a.28.28,0,0,1-.28-.28V10.81a.28.28,0,0,1,.28-.28H5.91a.28.28,0,0,1,.28.28v1.32A.28.28,0,0,1,5.91,12.41Zm-2-.57H5.62v-.75H3.94Zm12-.1H14.89a.28.28,0,0,1-.28-.28V10.27a.28.28,0,0,1,.28-.28H16a.28.28,0,0,1,.28.28v1.18A.28.28,0,0,1,16,11.74Zm-.8-.57h.52v-.61h-.52Zm-2.34.57H11.75a.28.28,0,0,1-.28-.28V10.27a.28.28,0,0,1,.28-.28h1.09a.28.28,0,0,1,.28.28v1.18A.28.28,0,0,1,12.84,11.74Zm-.8-.57h.52v-.61H12ZM9.3,9.83H7a.28.28,0,0,1-.28-.28V8.23A.28.28,0,0,1,7,7.94H9.3a.28.28,0,0,1,.28.28V9.55A.28.28,0,0,1,9.3,9.83Zm-2-.57H9V8.51H7.33Zm-1.43.57H3.65a.28.28,0,0,1-.28-.28V8.23a.28.28,0,0,1,.28-.28H5.91a.28.28,0,0,1,.28.28V9.55A.28.28,0,0,1,5.91,9.83Zm-2-.57H5.62V8.51H3.94ZM16,8.9H14.89a.28.28,0,0,1-.28-.28V7.43a.28.28,0,0,1,.28-.28H16a.28.28,0,0,1,.28.28V8.62A.28.28,0,0,1,16,8.9Zm-.8-.57h.52V7.72h-.52Zm-2.34.57H11.75a.28.28,0,0,1-.28-.28V7.43a.28.28,0,0,1,.28-.28h1.09a.28.28,0,0,1,.28.28V8.62A.28.28,0,0,1,12.84,8.9ZM12,8.33h.52V7.72H12ZM16,6.06H14.89a.28.28,0,0,1-.28-.28V4.59a.28.28,0,0,1,.28-.28H16a.28.28,0,0,1,.28.28V5.78A.28.28,0,0,1,16,6.06Zm-.8-.57h.52V4.88h-.52Zm-2.34.57H11.75a.28.28,0,0,1-.28-.28V4.59a.28.28,0,0,1,.28-.28h1.09a.28.28,0,0,1,.28.28V5.78A.28.28,0,0,1,12.84,6.06ZM12,5.49h.52V4.88H12ZM9.7,6.06H8.61a.28.28,0,0,1-.28-.28V4.59a.28.28,0,0,1,.28-.28H9.7a.28.28,0,0,1,.28.28V5.78A.28.28,0,0,1,9.7,6.06Zm-.8-.57h.52V4.88H8.89ZM16,3.22H14.89a.28.28,0,0,1-.28-.28V1.75a.28.28,0,0,1,.28-.28H16a.28.28,0,0,1,.28.28V2.94A.28.28,0,0,1,16,3.22Zm-.8-.57h.52V2h-.52Zm-2.34.57H11.75a.28.28,0,0,1-.28-.28V1.75a.28.28,0,0,1,.28-.28h1.09a.28.28,0,0,1,.28.28V2.94A.28.28,0,0,1,12.84,3.22ZM12,2.65h.52V2H12ZM9.7,3.22H8.61a.28.28,0,0,1-.28-.28V1.75a.28.28,0,0,1,.28-.28H9.7a.28.28,0,0,1,.28.28V2.94A.28.28,0,0,1,9.7,3.22Zm-.8-.57h.52V2H8.89Z" transform="translate(-2.2 0.06)"/></svg>