<svg id="Layer_1" data-name="Layer 1" xmlns="http://www.w3.org/2000/svg" viewBox="0 0 20 20"><title>2</title><path d="M5.31,18a1.67,1.67,0,0,0-3.14-.45L2,17.5V12a.33.33,0,0,0-.67,0v5.33a1.33,1.33,0,0,0,0,2.67H5a1,1,0,0,0,.31-2ZM5,19.33H1.33a.67.67,0,1,1,0-1.33.72.72,0,0,1,.69.45.33.33,0,0,0,.65-.12,1,1,0,1,1,2,0,.33.33,0,0,0,.33.33.33.33,0,0,1,0,.67Z"/><path d="M19.67,2.67H13.33a.33.33,0,0,0,0,.67h6v7.2l-9.1-9.1a.34.34,0,0,0-.47,0l-9.1,9.1V3.33H4.33A.33.33,0,0,0,4.67,3V1.67a.33.33,0,0,0-.33-.33H4V.67H6v.67H5.67a.33.33,0,0,0-.33.33V3a.33.33,0,0,0,.33.33h1a.33.33,0,1,0,0-.67H6V2h.33a.33.33,0,0,0,.33-.33V.33A.33.33,0,0,0,6.33,0H3.67a.33.33,0,0,0-.33.33V1.67A.33.33,0,0,0,3.67,2H4v.67H.33A.33.33,0,0,0,0,3v8.33a.33.33,0,0,0,.21.31l.13,0a.33.33,0,0,0,.24-.1L10,2.14l9.43,9.43a.33.33,0,0,0,.24.1l.13,0a.33.33,0,0,0,.21-.31V3A.33.33,0,0,0,19.67,2.67Z"/><path d="M18.67,17.33V12A.33.33,0,1,0,18,12v5.5l-.17.1a1.67,1.67,0,0,0-3.14.45A1,1,0,0,0,14,19a1,1,0,0,0,.06.33H8.33a.33.33,0,1,0,0,.67H18.67a1.33,1.33,0,1,0,0-2.67Zm0,2H15a.33.33,0,0,1,0-.67.33.33,0,0,0,.33-.33,1,1,0,1,1,2,0,.33.33,0,0,0,.65.12.72.72,0,0,1,.69-.45.67.67,0,1,1,0,1.33Z"/><path d="M11.33,6.67A1.33,1.33,0,1,0,10,8,1.33,1.33,0,0,0,11.33,6.67Zm-2,0a.67.67,0,1,1,.67.67A.67.67,0,0,1,9.33,6.67Z"/><path d="M16.33,11.33H13.67a.33.33,0,0,0-.33.33v3.67H13A.33.33,0,0,0,13,16h4a.33.33,0,1,0,0-.67h-.33V11.67A.33.33,0,0,0,16.33,11.33Zm-.33,4H14V14h2Zm0-2H14V12h2Z"/><path d="M13.33,18.33A.33.33,0,0,0,13,18H12V11.67a.33.33,0,0,0-.33-.33H8.33a.33.33,0,0,0-.33.33V18H7a.33.33,0,0,0-.33.33v1.33a.33.33,0,0,0,.67,0v-1H13A.33.33,0,0,0,13.33,18.33Zm-2-3.67H11a.33.33,0,1,0,0,.67h.33V18H8.67V12h2.67Z"/><path d="M6.33,11.33H3.67a.33.33,0,0,0-.33.33v3.67H3A.33.33,0,0,0,3,16H7a.33.33,0,1,0,0-.67H6.67V11.67A.33.33,0,0,0,6.33,11.33Zm-.33,4H4V14H6Zm0-2H4V12H6Z"/></svg>