<svg id="Layer_1" data-name="Layer 1" xmlns="http://www.w3.org/2000/svg" viewBox="0 0 20 16.7"><title>4</title><path d="M19.48,8.66A.32.32,0,0,0,20,8.4V6.67a.32.32,0,0,0-.12-.25L14.6,2.26a1,1,0,0,0-1.26,0l-2,1.56V3.22A.32.32,0,0,0,11,2.9H9.65a.32.32,0,0,0-.32.32V5.43l-1.26,1a.32.32,0,0,0-.12.25V8.4a.32.32,0,0,0,.52.25l.17-.13v3.16l-3-2.38a1,1,0,0,0-1.26,0L.12,12.64A.32.32,0,0,0,0,12.9v1.73a.32.32,0,0,0,.52.25l.17-.13V18.1H.32a.32.32,0,0,0,0,.65H19.68a.32.32,0,0,0,0-.65h-.37V8.53l.17.13ZM10,3.54h.73v.8L10,4.92ZM8.6,6.83l5.15-4.06a.37.37,0,0,1,.45,0l5.15,4.06v.9L14.17,3.66a.32.32,0,0,0-.4,0L8.6,7.74ZM.65,13.05,4.76,9.81a.37.37,0,0,1,.45,0l3.42,2.7v.9L5.19,10.69a.32.32,0,0,0-.4,0L.65,14v-.9Zm.69,1.18L5,11.36l3.65,2.88V18.1H7.21V14.28A.32.32,0,0,0,6.89,14H3.09a.32.32,0,0,0-.32.32V18.1H1.34V14.24ZM3.41,16H6.57v.73H3.41Zm3.15-.65H3.41V14.6H6.57Zm-3.15,2H6.57v.73H3.41Zm9.37-1.68h0a.32.32,0,0,0,0,.65h0V18.1H11.36V13.91h1.43Zm5.87,2.42H13.43V13.59a.32.32,0,0,0-.32-.32H11a.32.32,0,0,0-.32.32V18.1H9.29V8L14,4.32,18.66,8Z" transform="translate(0 -2.05)"/><path d="M14.84,16.67h2.07a.32.32,0,0,0,.32-.32V13.59a.32.32,0,0,0-.32-.32H14.84a.32.32,0,0,0-.32.32v2.76A.32.32,0,0,0,14.84,16.67Zm.32-.65V14.95h1.43V16Zm1.43-2.12v.39H15.16v-.39Z" transform="translate(0 -2.05)"/><path d="M14.84,11.84h2.07a.32.32,0,0,0,.32-.32V8.75a.32.32,0,0,0-.32-.32H14.84a.32.32,0,0,0-.32.32v2.76A.32.32,0,0,0,14.84,11.84Zm.32-.65V10.11h1.43v1.08Zm1.43-2.12v.39H15.16V9.07Z" transform="translate(0 -2.05)"/><path d="M13.11,8.42H11a.32.32,0,0,0-.32.32v2.76a.32.32,0,0,0,.32.32h2.07a.32.32,0,0,0,.32-.32V8.75a.32.32,0,0,0-.32-.32Zm-.32.65v.39H11.36V9.07Zm-1.43,2.12V10.11h1.43v1.08Z" transform="translate(0 -2.05)"/></svg>