<svg id="Layer_1" data-name="Layer 1" xmlns="http://www.w3.org/2000/svg" viewBox="0 0 16.23 20"><title>14</title><path d="M17.13,19.07h-.36V3.71a.46.46,0,0,0-.46-.46h-5.9a.46.46,0,0,0-.46.46V19.07H9.32V2a.46.46,0,0,0-.66-.42L7.71,2V.46a.46.46,0,1,0-.93,0v2l-1.3.62a.46.46,0,0,0-.26.42v2.6L2.71,7.65A.46.46,0,0,0,2.5,8v11H1.83a.46.46,0,0,0,0,.93H17.13a.46.46,0,1,0,0-.93ZM15.84,4.17V9.71h-5V4.17ZM3.42,19.07V8.3l2.5-1.56a.46.46,0,0,0,.22-.39V3.77L8.4,2.69V19.07Zm10.4,0v-.6a.46.46,0,0,0-.93,0v.6h-2V10.64h5v8.44Z" transform="translate(-1.36)"/><path d="M4.91,10.21a.46.46,0,0,0-.46.46v.57a.46.46,0,1,0,.93,0v-.57A.46.46,0,0,0,4.91,10.21Z" transform="translate(-1.36)"/><path d="M6.85,10.21a.46.46,0,0,0-.46.46v.57a.46.46,0,1,0,.93,0v-.57A.46.46,0,0,0,6.85,10.21Z" transform="translate(-1.36)"/><path d="M4.91,12.21a.46.46,0,0,0-.46.46v.57a.46.46,0,1,0,.93,0v-.57A.46.46,0,0,0,4.91,12.21Z" transform="translate(-1.36)"/><path d="M6.85,12.21a.46.46,0,0,0-.46.46v.57a.46.46,0,1,0,.93,0v-.57A.46.46,0,0,0,6.85,12.21Z" transform="translate(-1.36)"/><path d="M4.91,14.2a.46.46,0,0,0-.46.46v.57a.46.46,0,1,0,.93,0v-.57A.46.46,0,0,0,4.91,14.2Z" transform="translate(-1.36)"/><path d="M6.85,14.2a.46.46,0,0,0-.46.46v.57a.46.46,0,1,0,.93,0v-.57A.46.46,0,0,0,6.85,14.2Z" transform="translate(-1.36)"/><path d="M4.91,16.19a.46.46,0,0,0-.46.46v.57a.46.46,0,0,0,.93,0v-.57A.46.46,0,0,0,4.91,16.19Z" transform="translate(-1.36)"/><path d="M6.85,16.19a.46.46,0,0,0-.46.46v.57a.46.46,0,0,0,.93,0v-.57A.46.46,0,0,0,6.85,16.19Z" transform="translate(-1.36)"/><path d="M12.39,14.2a.46.46,0,0,0-.46.46v.57a.46.46,0,1,0,.93,0v-.57A.46.46,0,0,0,12.39,14.2Z" transform="translate(-1.36)"/><path d="M14.33,14.2a.46.46,0,0,0-.46.46v.57a.46.46,0,0,0,.93,0v-.57A.46.46,0,0,0,14.33,14.2Z" transform="translate(-1.36)"/><path d="M12.39,11.92a.46.46,0,0,0-.46.46V13a.46.46,0,1,0,.93,0v-.57A.46.46,0,0,0,12.39,11.92Z" transform="translate(-1.36)"/><path d="M14.33,11.92a.46.46,0,0,0-.46.46V13a.46.46,0,0,0,.93,0v-.57A.46.46,0,0,0,14.33,11.92Z" transform="translate(-1.36)"/><path d="M12.39,8.78a.46.46,0,0,0,.46-.46V7.75a.46.46,0,1,0-.93,0v.57A.46.46,0,0,0,12.39,8.78Z" transform="translate(-1.36)"/><path d="M14.33,8.78a.46.46,0,0,0,.46-.46V7.75a.46.46,0,0,0-.93,0v.57A.46.46,0,0,0,14.33,8.78Z" transform="translate(-1.36)"/><path d="M12.39,6.52a.46.46,0,0,0,.46-.46V5.48a.46.46,0,1,0-.93,0v.57A.46.46,0,0,0,12.39,6.52Z" transform="translate(-1.36)"/><path d="M14.33,6.52a.46.46,0,0,0,.46-.46V5.48a.46.46,0,0,0-.93,0v.57A.46.46,0,0,0,14.33,6.52Z" transform="translate(-1.36)"/></svg>