<svg id="Layer_1" data-name="Layer 1" xmlns="http://www.w3.org/2000/svg" viewBox="0 0 20 17.01"><title>6</title><path d="M19.74,6.36,10.21,1.67a.47.47,0,0,0-.42,0L.26,6.36A.47.47,0,0,0,0,6.78V17.72a.9.9,0,0,0,.9.9H19.1a.9.9,0,0,0,.9-.9V6.78A.47.47,0,0,0,19.74,6.36Zm-4,6.24H4.26V11H15.74Zm-11.49.94H15.74v1.62H4.26V13.54ZM15.74,10H4.26V8.36H15.74ZM4.26,16.09H15.74v1.59H4.26V16.09Zm14.8,1.59H16.68V7.89a.47.47,0,0,0-.47-.47H3.79a.47.47,0,0,0-.47.47v9.79H.94V7.07L10,2.61l9.06,4.46Z" transform="translate(0 -1.62)"/></svg>