<svg id="Layer_1" data-name="Layer 1" xmlns="http://www.w3.org/2000/svg" viewBox="0 0 20 19.26"><title>3</title><path d="M4.67,11.6H9.33V8.26H4.67Zm.67-.67v-1H8.67v1Zm3.33-2v.33H5.33V8.93Z"/><path d="M4.67,12.93v4H9.33v-4Zm2,.67v1H5.33v-1ZM5.33,15.26H6.67v1H5.33Zm2,1v-1H8.67v1ZM8.67,14.6H7.33v-1H8.67Z"/><path d="M10.67,11.6h4.67V8.26H10.67Zm.67-.67V10.6h3.33v.33Zm3.33-2v1H11.33v-1Z"/><path d="M19.67,15.6a.33.33,0,0,0-.33.33v.33H19v-.33a.33.33,0,0,0-.67,0v.33H18V9.53a1.33,1.33,0,0,0,1.87-1.32,1.34,1.34,0,0,0-.51-.94L10.91.65,10,0,9.11.63.64,7.27a1.33,1.33,0,0,0-.15,2A1.32,1.32,0,0,0,2,9.53v6.73H1.67v-.33a.33.33,0,1,0-.67,0v.33H.67v-.33a.33.33,0,1,0-.67,0v3a.33.33,0,0,0,.67,0V18.6H1v.33a.33.33,0,0,0,.67,0V18.6H2v.67H18V18.6h.33v.33a.33.33,0,0,0,.67,0V18.6h.33v.33a.33.33,0,0,0,.67,0v-3A.33.33,0,0,0,19.67,15.6ZM1,8.77a.67.67,0,0,1,.08-1l8.5-6.65L10,.72l.47.44L19,7.79a.67.67,0,0,1-.82,1.05L18,8.74h0L10,2.57,2.13,8.64h0l-.26.2A.66.66,0,0,1,1,8.77Zm-.3,9.16v-1H1v1Zm1,0v-1H2v1Zm9.67.67v-5h3.33v5Zm6,0h-2V12.93H10.67V18.6h-8V9.07L10,3.41l7.33,5.65Zm.67-.67v-1h.33v1Zm1,0v-1h.33v1Z"/></svg>