<svg id="Layer_1" data-name="Layer 1" xmlns="http://www.w3.org/2000/svg" viewBox="0 0 20 14.47"><title>9</title><path d="M19.68,16.35a10,10,0,0,1-4.5-1.06,9.4,9.4,0,0,0-4.14-1,11.91,11.91,0,0,0-4.41,1.16,9.22,9.22,0,0,1-3.19.91H2.38c.61-.27,1.31-.62,2.08-1,2.92-1.43,6.55-3.2,9.34-3.2a10.27,10.27,0,0,1,5.68,1.66.32.32,0,0,0,.39-.52,10.32,10.32,0,0,0-4.36-1.66v-.55a1.18,1.18,0,0,0,1-1.07,5.55,5.55,0,0,0-.32-1.44c-.29-.82-.63-1.22-1-1.22s-.54.2-.76.59A9.18,9.18,0,0,0,14,6.52c-.37-1.06-.79-1.57-1.28-1.57s-.91.51-1.28,1.57a7.42,7.42,0,0,0-.42,1.9,1.49,1.49,0,0,0,1.38,1.35v1.56a10.18,10.18,0,0,0-5.61-1.22,8.61,8.61,0,0,0-3.37,1,8.68,8.68,0,0,0-3.14-.64.32.32,0,0,0,0,.65,11.09,11.09,0,0,1,4.93,1.52A16.81,16.81,0,0,0,7,13.44c-1,.44-1.94.91-2.83,1.34A15.15,15.15,0,0,1,.32,16.35a.32.32,0,1,0,0,.65H3.43a9.63,9.63,0,0,0,3.44-1A11.25,11.25,0,0,1,11,14.93a8.74,8.74,0,0,1,3.88,1A10.59,10.59,0,0,0,19.68,17a.32.32,0,1,0,0-.65ZM13.8,11.51q-.35,0-.71,0V9.76a1.89,1.89,0,0,0,.82-.33,3.25,3.25,0,0,0-.08.59,1.18,1.18,0,0,0,1,1.07v.47C14.52,11.53,14.17,11.51,13.8,11.51Zm.92-2.62A1.91,1.91,0,0,1,15.18,8a1.91,1.91,0,0,1,.46.87A5,5,0,0,1,15.9,10c0,.17-.16.32-.39.4v-.31a.32.32,0,0,0-.65,0v.31c-.23-.08-.39-.23-.39-.4A5,5,0,0,1,14.73,8.89Zm-3-.48a7.08,7.08,0,0,1,.39-1.68c.33-.94.61-1.14.67-1.14s.34.19.67,1.14a7.08,7.08,0,0,1,.39,1.68c0,.32-.31.59-.73.69V8.38a.32.32,0,0,0-.65,0V9.1C12,9,11.71,8.73,11.71,8.41ZM5.54,12.06c-.41-.21-.84-.42-1.29-.62a8,8,0,0,1,2.63-.69,9.41,9.41,0,0,1,4.94,1A21.86,21.86,0,0,0,8,13a8.93,8.93,0,0,1-2.42-1Z" transform="translate(0 -2.53)"/><path d="M3.09,5.6h.74a1.7,1.7,0,0,0,.26.63l-.53.53A.32.32,0,1,0,4,7.21l.53-.53a1.7,1.7,0,0,0,.63.26v.74a.32.32,0,0,0,.65,0V6.95a1.7,1.7,0,0,0,.63-.26L7,7.21a.32.32,0,1,0,.46-.46l-.53-.53a1.7,1.7,0,0,0,.26-.63h.74a.32.32,0,0,0,0-.65H7.18a1.7,1.7,0,0,0-.26-.63l.53-.53A.32.32,0,1,0,7,3.33l-.53.53a1.7,1.7,0,0,0-.63-.26V2.85a.32.32,0,1,0-.65,0V3.6a1.7,1.7,0,0,0-.63.26L4,3.33a.32.32,0,1,0-.46.46l.53.53a1.7,1.7,0,0,0-.26.63H3.09a.32.32,0,0,0,0,.65ZM5.51,4.21A1.06,1.06,0,1,1,4.45,5.27,1.06,1.06,0,0,1,5.51,4.21Z" transform="translate(0 -2.53)"/></svg>