<svg id="Layer_1" data-name="Layer 1" xmlns="http://www.w3.org/2000/svg" viewBox="0 0 20 12.53"><title>5</title><path d="M19.56,7.73H10.74V6.26H11a.44.44,0,0,0,.44-.44V4.39A.44.44,0,0,0,11,3.94H.44A.44.44,0,0,0,0,4.39V5.82a.44.44,0,0,0,.44.44H.66v9.49a.44.44,0,0,0,.44.44h9.2a.44.44,0,0,0,.44-.44V10h7.12v5.7a.44.44,0,0,0,.89,0V10h.81A.44.44,0,0,0,20,9.6V8.17A.44.44,0,0,0,19.56,7.73Zm-.44,1.43H10.74V8.61h8.37ZM.89,5.38V4.83h9.63v.55H.89Zm.66.89H9.86v9H7.24V12.19a.44.44,0,0,0-.44-.44H4.6a.44.44,0,0,0-.44.44V15.3H1.54Zm4.82,9H5V12.64H6.36Z" transform="translate(0 -3.94)"/><path d="M16.69,12.85V12a1.08,1.08,0,0,0-1.08-1.08H13.09A1.08,1.08,0,0,0,12,12v.86a1,1,0,0,0-.63.9v1.76a.44.44,0,0,0,.44.44h.25V16A.44.44,0,0,0,13,16V16h2.77V16a.44.44,0,0,0,.89,0V16h.25a.44.44,0,0,0,.44-.44V13.75A1,1,0,0,0,16.69,12.85Zm-4.42,2.21V13.75a.07.07,0,0,1,.07-.07h4a.07.07,0,0,1,.07.07v1.32Zm.82-3.27h2.52a.19.19,0,0,1,.19.19v.81H12.9V12a.19.19,0,0,1,.19-.19Z" transform="translate(0 -3.94)"/><path d="M12.93,14.13a.44.44,0,1,0,.31.13A.45.45,0,0,0,12.93,14.13Z" transform="translate(0 -3.94)"/><path d="M15.77,14.13a.44.44,0,1,0,.31.13.44.44,0,0,0-.31-.13Z" transform="translate(0 -3.94)"/><path d="M3.55,7.55A.44.44,0,0,0,3.1,8v.93a.44.44,0,1,0,.89,0V8A.44.44,0,0,0,3.55,7.55Z" transform="translate(0 -3.94)"/><path d="M5.7,9.37a.44.44,0,0,0,.44-.44V8a.44.44,0,0,0-.89,0v.93A.44.44,0,0,0,5.7,9.37Z" transform="translate(0 -3.94)"/><path d="M7.85,9.37a.44.44,0,0,0,.44-.44V8a.44.44,0,1,0-.89,0v.93A.44.44,0,0,0,7.85,9.37Z" transform="translate(0 -3.94)"/></svg>