<svg id="Layer_1" data-name="Layer 1" xmlns="http://www.w3.org/2000/svg" viewBox="0 0 20 18.58"><title>13</title><path d="M16,9V1.57a.73.73,0,1,0-1.46,0V3.28H5.92V1.57a.73.73,0,1,0-1.45,0v8.74L5.9,9.49h0V8.57h8.64V9A4.23,4.23,0,0,1,16,9ZM5.92,7.11V4.74h8.64V7.11Z" transform="translate(0 -0.84)"/><path d="M.38,13.83l2.68,1.49a3,3,0,0,0,2.65,0l1.58-.91A1.49,1.49,0,0,1,8,14.23a1.39,1.39,0,0,1,.58.11l2.08,1a3,3,0,0,0,2.64-.12l1.4-.86a1.4,1.4,0,0,1,.68-.16,1.27,1.27,0,0,1,.55.11l3,1.53a.74.74,0,0,0,1-.32.73.73,0,0,0-.32-1l-3-1.52a3,3,0,0,0-2.65.11l-1.4.86a1.41,1.41,0,0,1-.69.16,1.29,1.29,0,0,1-.55-.11L9.2,13a3.1,3.1,0,0,0-2.64.08L5,14a1.32,1.32,0,0,1-.62.14A1.29,1.29,0,0,1,3.76,14L1.08,12.56a.74.74,0,0,0-1,.28A.73.73,0,0,0,.38,13.83Z" transform="translate(0 -0.84)"/><path d="M.38,17.31,3.06,18.8a3,3,0,0,0,2.65,0l1.58-.91A1.5,1.5,0,0,1,8,17.71a1.39,1.39,0,0,1,.58.11l2.08,1a3,3,0,0,0,2.64-.12l1.4-.86a1.4,1.4,0,0,1,.68-.16,1.27,1.27,0,0,1,.55.11l3,1.53a.74.74,0,0,0,1-.32.73.73,0,0,0-.32-1l-3-1.52a3,3,0,0,0-2.65.11l-1.4.86a1.42,1.42,0,0,1-.69.16,1.27,1.27,0,0,1-.55-.11l-2.08-1a3.1,3.1,0,0,0-2.64.08L5,17.51a1.31,1.31,0,0,1-.62.14,1.3,1.3,0,0,1-.59-.13L1.08,16a.74.74,0,0,0-1,.28A.73.73,0,0,0,.38,17.31Z" transform="translate(0 -0.84)"/><path d="M.39,10.35l2.68,1.49a2.93,2.93,0,0,0,2.62,0l1.57-.91a1.53,1.53,0,0,1,.7-.15,1.42,1.42,0,0,1,.59.11l2.08,1a3,3,0,0,0,2.62-.12l1.4-.86a1.44,1.44,0,0,1,.69-.16,1.29,1.29,0,0,1,.56.11l3,1.52a.72.72,0,0,0,1-.33.73.73,0,0,0-.32-1l-3-1.52-.31-.13a3,3,0,0,0-1.88,0,2.27,2.27,0,0,0-.42.2l-1.4.86a1.45,1.45,0,0,1-.7.16,1.3,1.3,0,0,1-.56-.11l-2.08-1a3.07,3.07,0,0,0-2.62.08l-1.65.95a1.43,1.43,0,0,1-.56.1,1.32,1.32,0,0,1-.6-.13L1.07,9.07a.72.72,0,0,0-1,.29A.74.74,0,0,0,.39,10.35Z" transform="translate(0 -0.84)"/></svg>