<?xml version="1.0" standalone="no"?>
<!DOCTYPE svg PUBLIC "-//W3C//DTD SVG 1.1//EN" "http://www.w3.org/Graphics/SVG/1.1/DTD/svg11.dtd" >
<svg xmlns="http://www.w3.org/2000/svg">
<metadata>Generated by IcoMoon</metadata>
<defs>
<font id="wpl-backend" horiz-adv-x="1024">
<font-face units-per-em="1024" ascent="960" descent="-64" />
<missing-glyph horiz-adv-x="1024" />
<glyph unicode="&#x20;" horiz-adv-x="512" d="" />
<glyph unicode="&#xe00b;" glyph-name="uniE00B" d="M1024 765.582c-37.674-16.708-78.164-28.002-120.662-33.082 43.37 26 76.686 67.17 92.374 116.23-40.596-24.078-85.558-41.562-133.41-50.98-38.32 40.83-92.922 66.342-153.346 66.342-116.024 0-210.086-94.058-210.086-210.078 0-16.466 1.858-32.5 5.44-47.878-174.6 8.762-329.402 92.4-433.016 219.506-18.086-31.028-28.446-67.116-28.446-105.618 0-72.888 37.088-137.192 93.46-174.866-34.438 1.094-66.832 10.542-95.154 26.278-0.022-0.876-0.022-1.754-0.022-2.642 0-101.786 72.418-186.696 168.522-206-17.626-4.8-36.188-7.37-55.348-7.37-13.538 0-26.698 1.322-39.528 3.77 26.736-83.462 104.32-144.206 196.25-145.894-71.9-56.35-162.486-89.934-260.916-89.934-16.958 0-33.68 0.994-50.116 2.938 92.972-59.61 203.402-94.394 322.040-94.394 386.424 0 597.736 320.124 597.736 597.744 0 9.11-0.206 18.168-0.61 27.178 41.056 29.62 76.672 66.62 104.836 108.748z" />
<glyph unicode="&#xe00c;" glyph-name="uniE00C" d="M575.87-64h-191.87v512h-128v176.45l128 0.058-0.208 103.952c0 143.952 39.034 231.54 208.598 231.54h141.176v-176.486h-88.23c-66.032 0-69.206-24.656-69.206-70.682l-0.264-88.324h158.69l-18.704-176.45-139.85-0.058-0.13-512z" />
<glyph unicode="&#xe029;" glyph-name="no-pic" d="M512 878.080c-237.526 0-430.080-192.552-430.080-430.080s192.552-430.080 430.080-430.080c237.528 0 430.080 192.552 430.080 430.080s-192.552 430.080-430.080 430.080zM510.086 820.736c204.8 0 370.822-166.024 370.822-370.822 0-56.672-12.73-110.366-35.462-158.404l-640.172 369.602c66.958 96.456 178.498 159.626 304.81 159.626zM510.086 79.090c-204.8 0-370.822 166.024-370.822 370.822 0 57.976 13.312 112.836 37.034 161.71l640.682-369.902c-66.712-98.154-179.274-162.63-306.896-162.63zM386.6 439.466c0-66.962 54.308-121.236 121.308-121.236 32.846 0 62.62 13.062 84.464 34.25l-202.092 116.678c-2.392-9.5-3.68-19.45-3.68-29.694zM772.576 604.374h-178.37v0.552l-22.090 22.188c-0.304 11.77-9.732 21.256-21.448 21.566l-0.032 0.024h-88.856c-12.118-0.050-21.902-9.908-21.966-22.078l-22.062-22.172v-0.082h-81.44l87.422-50.472c23.478 17.776 52.608 28.308 84.168 28.308 77.762 0 140.794-63.914 140.794-142.74 0-5.068-0.264-10.072-0.778-15.004l146.712-84.702v242.442c-0.002 12.242-9.874 22.168-22.058 22.168zM507.904 296.734c-77.754 0-140.79 63.91-140.79 142.734 0 13.834 1.978 27.19 5.6 39.838l-151.538 87.488v-272.74c0-12.236 9.878-22.16 22.056-22.16h488.726l-121.312 70.042c-25.684-27.802-62.206-45.2-102.742-45.2zM629.216 439.466c0 66.966-54.298 121.254-121.308 121.254-23.572 0-45.558-6.742-64.17-18.366l185.376-107.024c0.046 1.37 0.102 2.746 0.102 4.134z" />
<glyph unicode="&#xe600;" glyph-name="uniE600" d="M634.88 929.754c-35.746-34.888-384.98-401.572-384.98-401.572-19.074-18.64-28.562-43.014-28.562-67.386s9.492-48.744 28.562-67.386c0 0 349.236-366.68 384.98-401.486 35.746-34.888 100.052-37.282 138.188 0 38.054 37.198 41.048 89.104-0.086 134.684l-320.418 334.186 320.418 334.186c41.13 45.664 38.14 97.572 0.086 134.766-38.226 37.2-102.53 34.888-138.188 0z" />
<glyph unicode="&#xe601;" glyph-name="uniE601" d="M389.12 929.754c35.746-34.888 384.98-401.572 384.98-401.572 19.154-18.64 28.648-43.014 28.648-67.386s-9.492-48.744-28.648-67.386c0 0-349.238-366.68-384.98-401.486-35.746-34.888-99.964-37.282-138.188 0-38.14 37.198-41.132 89.104 0 134.684l320.504 334.186-320.418 334.186c-41.132 45.664-38.14 97.572 0 134.766s102.444 34.888 138.104 0z" />
<glyph unicode="&#xe602;" glyph-name="uniE602" d="M737.23 80.998c13.722-13.876 13.722-36.25 0-50.126s-35.89-13.876-49.614 0l-400.896 404.838c-13.722 13.876-13.722 36.302 0 50.126l400.896 404.89c13.722 13.876 35.89 13.876 49.614 0s13.722-36.25 0-50.126l-365.568-379.802 365.568-379.802z" />
<glyph unicode="&#xe603;" glyph-name="uniE603" d="M286.704 80.998c-13.722-13.876-13.722-36.25 0-50.126s35.892-13.876 49.612 0l400.896 404.838c13.722 13.876 13.722 36.302 0 50.126l-400.896 404.89c-13.722 13.876-35.892 13.876-49.612 0s-13.722-36.25 0-50.126l365.568-379.802-365.568-379.802z" />
<glyph unicode="&#xe604;" glyph-name="uniE604" d="M574.752 577.472v318.528l449.248-448-449.248-448v321.344c-228.32 0-453.664-39.744-574.752-228.352 12.608 343.712 269.76 425.536 574.752 484.48z" />
<glyph unicode="&#xe605;" glyph-name="uniE605" d="M873.984 810.048c-199.872 199.936-524.096 199.936-724.032 0-200-199.936-200-524.16 0-724.032 199.936-200 524.16-200 724.032 0 200 199.872 200 524.096 0 724.032zM783.488 176.512c-149.952-150.016-393.088-150.016-543.040 0-149.952 149.952-149.952 393.088 0 543.040s393.088 149.952 543.040 0c150.016-150.016 150.016-393.088 0-543.040zM602.496 448l135.744-135.744-90.496-90.496-135.744 135.744-135.744-135.744-90.56 90.496 135.744 135.744-135.744 135.744 90.56 90.56 135.744-135.744 135.744 135.744 90.496-90.56z" />
<glyph unicode="&#xe606;" glyph-name="uniE606" d="M626.784 447.968l195.072-195.072c12.672-12.672 12.672-33.248 0-45.92l-68.832-68.832c-12.672-12.672-33.216-12.672-45.92 0l-195.104 195.072-195.104-195.072c-12.672-12.672-33.216-12.672-45.888 0l-68.864 68.832c-12.672 12.672-12.672 33.216 0 45.92l195.104 195.072-195.104 195.104c-12.672 12.672-12.672 33.248 0 45.92l68.896 68.832c12.672 12.672 33.216 12.672 45.888 0l195.072-195.104 195.104 195.104c12.672 12.672 33.216 12.672 45.92 0l68.832-68.864c12.672-12.672 12.672-33.216 0-45.92l-195.072-195.072z" />
<glyph unicode="&#xe607;" glyph-name="uniE607" d="M512 768c-188.544 0-341.334-152.832-341.334-341.332s152.788-341.334 341.334-341.334 341.334 152.832 341.334 341.334-152.788 341.334-341.334 341.334zM670.164 328.832c16.682-16.682 16.682-43.648 0-60.332-8.32-8.32-19.244-12.5-30.164-12.5s-21.846 4.182-30.164 12.5l-97.836 97.836-97.834-97.836c-8.32-8.32-19.242-12.5-30.166-12.5s-21.846 4.182-30.166 12.5c-16.682 16.682-16.682 43.648 0 60.332l97.834 97.836-97.834 97.836c-16.682 16.682-16.682 43.648 0 60.332s43.648 16.682 60.332 0l97.834-97.834 97.836 97.834c16.682 16.682 43.648 16.682 60.332 0s16.682-43.648 0-60.332l-97.836-97.836 97.836-97.836z" />
<glyph unicode="&#xe608;" glyph-name="uniE608" d="M930.908 791.272h-46.544v-744.726c0-51.386-41.706-93.092-93.092-93.092h-558.544c-51.386 0-93.092 41.706-93.092 93.092v744.726h-46.546c-25.692 0-46.546 20.806-46.546 46.544s20.852 46.544 46.546 46.544h279.274c0 51.386 41.704 93.092 93.092 93.092h93.090c51.386 0 93.092-41.704 93.092-93.092h279.274c25.74 0 46.544-20.806 46.544-46.544s-20.806-46.544-46.544-46.544zM791.274 791.272h-558.544v-744.726h558.544v744.726zM418.908 698.182c25.692 0 46.546-20.806 46.546-46.544v-465.454c0-25.74-20.852-46.544-46.546-46.544s-46.546 20.806-46.546 46.544v465.454c0 25.74 20.852 46.544 46.546 46.544zM605.092 698.182c25.74 0 46.544-20.806 46.544-46.544v-465.454c0-25.74-20.806-46.544-46.544-46.544s-46.544 20.806-46.544 46.544v465.454c0 25.74 20.806 46.544 46.544 46.544z" />
<glyph unicode="&#xe609;" glyph-name="uniE609" d="M0 71.68c119.040-73.6 257.302-114.346 393.814-114.346 60.138 0 119.040 6.186 176 21.334 39.254 11.094 70.186 43.286 70.186 85.334 0 25.366-11.094 48.426-28.8 64l7.466-0.002c47.146 0 85.334 38.186 85.334 85.334s-38.186 85.334-85.334 85.334h42.666c47.146 0 85.334 38.186 85.334 85.334s-38.186 85.334-85.334 85.334h277.334c47.146 0 85.334 38.186 85.334 85.334s-38.186 85.334-85.334 85.334l-486.634-0.004c-23.658 0-42.666 19.2-42.666 42.666 0 4.032 0.64 7.894 1.706 11.52l49.066 120.746c5.782 11.522 9.196 24.534 9.196 38.402 0 47.146-38.186 85.334-85.334 85.334-35.414 0-65.92-21.76-78.934-52.48-71.466-138.454-159.146-249.388-305.066-327.042v-487.466z" />
<glyph unicode="&#xe60a;" glyph-name="uniE60A" d="M906.666 746.666h-138.666v128c0 47.146-38.186 85.334-85.334 85.334h-341.332c-47.146 0-85.334-38.186-85.334-85.334v-128h-138.666c-29.44 0-53.334-23.892-53.334-53.332s23.894-53.334 53.334-53.334h32v-618.666c0-47.146 38.186-85.334 85.334-85.334h554.666c47.146 0 85.334 38.186 85.334 85.334l-0.002 618.666h32c29.44 0 53.334 23.894 53.334 53.334s-23.894 53.332-53.334 53.332zM661.334 746.666h-298.668v59.734c0 26.026 20.908 46.934 46.934 46.934h204.8c26.026 0 46.934-20.908 46.934-46.934v-59.734zM362.666 597.334v-512c0-23.466-19.2-42.666-42.666-42.666s-42.666 19.2-42.666 42.666v512c0 23.466 19.2 42.666 42.666 42.666s42.666-19.2 42.666-42.666zM554.666 597.334v-512c0-23.466-19.2-42.666-42.666-42.666s-42.666 19.2-42.666 42.666v512c0 23.466 19.2 42.666 42.666 42.666s42.666-19.2 42.666-42.666zM746.666 597.334v-512c0-23.466-19.2-42.666-42.666-42.666s-42.666 19.2-42.666 42.666v512c0 23.466 19.2 42.666 42.666 42.666s42.666-19.2 42.666-42.666z" />
<glyph unicode="&#xe60b;" glyph-name="uniE60B" d="M786.096 595.392v237.904l-160.432-0.112v-121.456l-113.824 81.744-511.84-368.736h98.272l413.024 300.72 161.056-115.232-0.016 166.176h67.232v-217.2l191.344-134.464h93.088zM250.096 191.52v124.128h124.128v-124.128h-124.128zM105.296 46.704v144.816h144.8v-144.816h-144.8zM633.776 393.696v-347.008h-62.064v450.448h124.128v-103.44h-62.064zM670.464 46.704v310.304h124.128v-186.192h124.112v-124.128h-248.24zM286.784 46.704v108.128h124.128v119.44l124.272-0.064-0.144-227.504h-248.256z" />
<glyph unicode="&#xe60c;" glyph-name="uniE60C" d="M938.667 704.057l-170.724 170.61-255.943-256.057-256.057 256.057-170.61-170.61 256.057-256.057-256.057-256.057 170.61-170.61 256.057 256.057 255.943-256.057 170.724 170.61-256.057 256.057z" />
<glyph unicode="&#xe60d;" glyph-name="uniE60D" d="M512 960c-282.795 0-512-229.205-512-512 0-282.852 229.205-512 512-512 282.852 0 512 229.148 512 512 0 282.795-229.148 512-512 512zM814.421 576.398l-352.882-359.538c-13.938-14.222-36.523-14.222-50.404 0l-201.557 205.483c-13.938 14.165-13.938 37.148 0 51.314l50.404 51.371c13.881 14.222 36.466 14.222 50.347 0l126.066-128.455 277.276 282.453c13.938 14.222 36.409 14.222 50.46 0l50.347-51.314c13.881-14.108 13.881-37.148-0.057-51.314z" />
<glyph unicode="&#xe60e;" glyph-name="uniE60E" d="M885.76 666.567c-18.204 29.924-40.562 59.221-67.812 86.471-27.705 27.307-57.515 49.892-88.064 67.982l53.532 53.646c0 0 77.596 0 116.452-38.798 38.798-38.741 38.798-116.338 38.798-116.338l-52.907-52.964zM434.46 215.211h-155.25v155.193l18.66 18.716c31.573-14.905 62.919-35.954 91.079-64.114 28.274-28.217 49.152-59.62 64.114-91.079l-18.603-18.716zM840.818 621.796l-343.040-343.040c-18.034 29.867-40.448 59.278-67.755 86.414-27.705 27.364-57.515 49.948-88.007 68.039l343.78 343.723c31.573-14.848 62.862-35.84 91.022-64.057 28.274-28.217 49.266-59.563 64-91.079zM201.785 758.329v-620.772h620.544v271.644l116.338 117.874v-428.089c0-43.065-34.645-77.596-77.596-77.596h-698.197c-42.78 0-77.54 34.532-77.54 77.596v698.027c0 42.894 34.759 77.653 77.54 77.653h427.008l-116.338-116.338h-271.758z" />
<glyph unicode="&#xe60f;" glyph-name="uniE60F" d="M661.732 62.35c-0.455-0.114-35.84-11.89-66.56-11.89-16.953 0-23.836 3.584-25.941 5.177-10.695 7.396-30.72 21.504 3.47 89.486l64 127.659c38.002 75.662 43.577 149.106 15.644 206.336-22.699 46.99-66.446 79.189-122.823 90.681-20.309 4.153-40.96 6.201-61.383 6.201-118.329 0-197.973-69.12-201.33-72.078-11.378-10.069-14.165-26.852-6.542-39.993 7.737-13.198 23.495-19.228 38.116-14.279 0.284 0.171 35.783 12.004 66.56 12.004 16.782 0 23.609-3.527 25.714-5.006 10.752-7.509 30.834-21.732-3.243-89.771l-64-127.659c-38.059-75.89-43.634-149.106-15.758-206.336 22.812-46.99 66.503-79.132 122.994-90.681 20.025-3.982 40.619-6.201 60.985-6.201 118.443 0 198.144 69.12 201.5 72.135 11.492 10.012 14.108 26.908 6.542 39.993-7.68 13.084-23.666 19.001-37.945 14.222zM768.057 799.972c0-88.381-71.647-160.028-160.028-160.028s-160.028 71.647-160.028 160.028c0 88.381 71.647 160.028 160.028 160.028s160.028-71.647 160.028-160.028z" />
<glyph unicode="&#xe610;" glyph-name="uniE610" d="M448 576h128v192h128l-192 192-192-192h128v-192zM576 320h-128v-192h-128l192-192 192 192h-128v192zM1024 448l-192 192v-128h-192v-128h192v-128l192 192zM384 512h-192v128l-192-192 192-192v128h192v128z" />
<glyph unicode="&#xe611;" glyph-name="uniE611" d="M353.508 960l-211.285-204.8 316.928-307.2-316.928-307.2 211.285-204.8 528.27 512z" />
<glyph unicode="&#xe612;" glyph-name="uniE612" d="M933.205 624.868c-39.993 10.524-134.030 10.354-271.531 13.995 6.428 30.037 8.021 57.116 8.021 105.188-0.057 114.859-83.684 215.95-157.696 215.95-52.224 0-95.346-42.667-95.972-95.232-0.683-64.455-20.594-175.787-128-232.22-7.908-4.153-30.379-15.36-33.678-16.668l1.65-1.479c-16.839 14.507-40.107 25.6-64 25.6h-95.972c-52.964 0-96.028-43.065-96.028-96.028v-512c0-52.907 43.065-95.972 96.028-95.972h96.028c38.059 0 69.916 22.983 85.39 55.239 0.398-0.114 1.081-0.284 1.479-0.341 2.105-0.626 4.608-1.195 7.623-1.991 0.626-0.114 0.91-0.171 1.479-0.455 18.432-4.494 53.931-13.028 129.764-30.436 16.213-3.755 102.116-22.016 191.090-22.016h174.933c53.305 0 91.762 20.423 114.574 61.724 0.398 0.626 7.737 15.019 13.71 34.361 4.551 14.677 6.144 35.271 0.796 56.263 34.361 23.666 45.397 59.392 52.679 82.603 12.060 38.116 8.363 66.788 0.057 87.211 19.285 18.204 35.726 46.080 42.667 88.576 4.38 26.34-0.284 53.362-12.402 75.89 18.091 20.366 26.34 45.966 27.25 69.689l0.455 6.656c0.228 4.21 0.398 6.884 0.398 16.043 0 40.448-27.989 91.989-90.795 109.852zM224.028 31.972c0-17.749-14.336-32.028-32.028-32.028h-95.972c-17.692 0-32.028 14.279-32.028 32.028v512c0 17.692 14.336 32.028 32.028 32.028h96.028c17.692 0 32.028-14.336 32.028-32.028v-512zM959.204 494.876c-0.512-15.815-7.225-46.876-63.204-46.876-48.014 0-64 0-64 0-8.875 0-15.986-7.168-15.986-15.986s7.111-15.986 15.986-15.986c0 0 13.995 0 62.009 0s54.272-39.822 51.2-58.994c-3.982-23.893-15.189-69.006-69.234-69.006-53.988 0-76.004 0-76.004 0-8.875 0-15.986-7.111-15.986-15.986 0-8.818 7.111-15.986 15.986-15.986 0 0 38.002 0 62.976 0 53.988 0 49.209-41.188 41.472-65.764-10.183-32.256-16.384-62.236-84.423-62.236-22.983 0-52.167 0-52.167 0-8.875 0-15.986-7.111-15.986-15.986 0-8.818 7.111-15.986 15.986-15.986 0 0 22.187 0 50.176 0 34.987 0 36.693-33.109 32.996-44.999-3.982-13.028-8.761-22.642-8.932-23.040-9.728-17.522-25.202-27.932-58.197-27.932h-174.933c-87.893 0-175.047 19.968-177.323 20.366-132.949 30.663-139.947 32.996-148.196 35.442 0 0-27.136 4.494-27.136 28.16l-0.284 441.913c0 15.019 9.557 28.558 25.372 33.337 1.991 0.796 4.665 1.593 6.656 2.446 146.148 60.473 190.692 193.195 192 302.251 0.114 15.303 11.947 31.972 31.972 31.972 33.849 0 93.639-67.925 93.639-151.95 0-75.89-3.072-88.974-29.639-168.050 320 0 317.781-4.608 345.998-12.004 34.987-10.012 38.002-39.026 38.002-48.981 0-11.036-0.284-9.387-0.796-20.139zM143.986 128c-26.51 0-48.014-21.561-48.014-48.014s21.504-48.014 48.014-48.014 48.014 21.561 48.014 48.014-21.504 48.014-48.014 48.014zM143.986 64c-8.818 0-15.986 7.168-15.986 15.986s7.168 15.986 15.986 15.986 15.986-7.168 15.986-15.986-7.111-15.986-15.986-15.986z" />
<glyph unicode="&#xe613;" glyph-name="uniE613" d="M128 256h256v64h-256v-64zM448 448h-320v-64h320v64zM512 576h-384v-64h384v64zM768 508.757v259.243l-192 192h-576v-1024h736.028c159.004 0 287.972 128.967 287.972 287.972 0 148.139-112.242 268.686-256 284.786zM576 876.43l112.014-108.43h-112.014v108.43zM64 0v896h448v-192h192v-195.243c-143.758-16.1-256-136.647-256-284.786 0-91.079 43.065-171.236 108.999-224.028h-492.999zM736.028 0c-123.733 0-224.028 100.295-224.028 223.972s100.295 224.028 224.028 224.028 224.028-100.295 224.028-224.028-100.352-223.972-224.028-223.972zM811.349 366.194l-23.097-23.097c13.141-7.851 25.998-17.579 37.831-29.412 11.947-11.719 21.561-24.348 29.298-37.262l22.869 22.869c0 0 0 33.394-16.725 50.176-16.782 16.725-50.176 16.725-50.176 16.725zM601.828 156.672l-8.078-8.021v-66.901h66.901l8.021 8.078c-6.315 13.483-15.417 27.136-27.534 39.253-12.117 12.174-25.828 21.276-39.31 27.591zM769.138 324.096l-148.309-148.309c13.198-7.794 26.112-17.522 38.002-29.355 11.776-11.662 21.447-24.462 29.298-37.319l148.082 148.025c-6.485 13.653-15.474 27.193-27.591 39.367-12.345 12.117-25.828 21.106-39.481 27.591z" />
<glyph unicode="&#xe614;" glyph-name="uniE614" d="M1024 594.318h-365.682v365.682h-292.58v-365.682h-365.739v-292.523h365.739v-365.796h292.58v365.796h365.682z" />
<glyph unicode="&#xe615;" glyph-name="uniE615" d="M796.444 732.444v-682.667h-568.889v682.667h-113.778v-796.444h796.444v796.444h-113.778zM455.111 334.222h113.778v398.222h113.778l-170.667 227.556-170.667-227.556h113.778v-398.222z" />
<glyph unicode="&#xe616;" glyph-name="uniE616" d="M881.778 755.2l-211.342 204.8-528.213-512 528.213-512 211.342 204.8-316.928 307.2z" />
<glyph unicode="&#xe617;" glyph-name="uniE617" d="M0 960l1024-1024v1024h-1024zM931.044 766.18l-256.569-253.838c-10.126-9.956-26.567-9.956-36.693 0l-36.693 36.352c0 0 0 0 0 0l-109.966 108.772c-10.126 10.012-10.126 26.226 0 36.238l36.75 36.238c10.126 10.012 26.453 10.012 36.636 0l91.591-90.624 201.671 199.396c10.126 10.012 26.567 10.012 36.75 0l36.58-36.295c10.126-9.956 10.126-26.226-0.057-36.238z" />
<glyph unicode="&#xe618;" glyph-name="uniE618" d="M448 960h-448v-448h128v320h320v128zM896 384v-320h-320v-128h448v448h-128zM832 256l-512 512-128-128 512-512 128 128z" />
<glyph unicode="&#xe619;" glyph-name="uniE619" d="M170.667-37.945c0-14.45 11.15-26.055 24.917-26.055h632.832c13.824 0 24.917 11.605 24.917 26.055v713.5h-682.667v-713.5zM652.231 531.968h93.525v-437.476h-93.525v437.476zM465.237 531.968h93.525v-437.476h-93.525v437.476zM278.244 531.968h93.525v-437.476h-93.525v437.476zM731.079 859.25v78.791c0 12.117-11.719 21.959-26.055 21.959h-386.048c-14.336 0-25.998-9.842-25.998-21.959v-106.268h-181.646c-14.336 0-25.998-9.785-25.998-21.902v-55.524c0-12.117 11.662-21.902 25.998-21.902h801.28c14.45 0 26.055 9.785 26.055 21.902v55.524c0 12.060-11.605 21.902-26.055 21.902h-181.532v27.477zM633.685 836.267h-243.257v41.472h243.2v-41.472z" />
<glyph unicode="&#xe61a;" glyph-name="uniE61A" d="M1024 380.985c0 9.159-0.171 11.833-0.398 15.986l-0.455 6.656c-0.967 23.723-9.159 49.266-27.25 69.689 12.117 22.528 16.782 49.55 12.402 75.89-6.94 42.496-23.381 70.315-42.667 88.576 8.306 20.423 12.004 49.095-0.057 87.211-7.282 23.211-18.318 58.937-52.679 82.603 5.404 20.992 3.755 41.586-0.796 56.263-5.973 19.399-13.312 33.792-13.71 34.361-22.756 41.358-61.269 61.781-114.574 61.781h-174.933c-88.974 0-174.876-18.261-191.090-22.016-75.833-17.351-111.332-25.941-129.764-30.436-0.626-0.284-0.91-0.341-1.536-0.455-3.015-0.796-5.518-1.365-7.623-1.991-0.455-0.057-1.138-0.228-1.479-0.341-15.474 32.256-47.332 55.239-85.39 55.239h-95.972c-52.964 0-96.028-43.065-96.028-96.028v-512c0-52.964 43.065-96.028 96.028-96.028h96.028c23.893 0 47.161 11.093 64 25.6l-1.65-1.479c3.3-1.308 25.771-12.516 33.678-16.668 107.406-56.434 127.317-167.765 128-232.22 0.569-52.508 43.691-95.175 95.915-95.175 74.012 0 157.639 101.092 157.639 215.95 0 48.071-1.536 75.093-8.021 105.188 137.5 3.641 231.538 3.527 271.531 13.995 62.862 17.863 90.852 69.404 90.852 109.852zM224.028 351.972c0-17.692-14.336-32.028-32.028-32.028h-95.972c-17.692 0-32.028 14.336-32.028 32.028v512c0 17.749 14.336 32.028 32.028 32.028h96.028c17.692 0 32.028-14.279 32.028-32.028v-512zM960 380.985c0-10.012-3.015-39.026-38.002-48.981-28.217-7.396-25.998-12.004-345.998-12.004 26.624-79.076 29.639-92.16 29.639-168.050 0-84.082-59.847-151.95-93.639-151.95-20.025 0-31.858 16.668-32.028 32.028-1.308 108.999-45.796 241.721-191.943 302.194-1.934 0.853-4.608 1.65-6.599 2.446-15.872 4.779-25.429 18.318-25.429 33.337l0.228 442.027c0 23.666 27.136 28.16 27.136 28.16 8.306 2.446 15.303 4.779 148.196 35.442 2.276 0.455 89.429 20.366 177.323 20.366h174.933c32.996 0 48.526-10.468 58.197-27.932 0.171-0.398 4.949-10.069 8.932-23.040 3.641-11.89 1.991-44.999-32.996-44.999-27.989 0-50.176 0-50.176 0-8.875 0-15.986-7.168-15.986-15.986 0-8.875 7.111-15.986 15.986-15.986 0 0 29.184 0 52.167 0 68.039 0 74.297-29.924 84.423-62.236 7.794-24.633 12.572-65.764-41.472-65.764-24.974 0-62.976 0-62.976 0-8.875 0-15.986-7.168-15.986-15.986 0-8.875 7.111-15.986 15.986-15.986 0 0 22.016 0 76.004 0 54.044 0 65.195-45.113 69.234-69.006 3.072-19.172-3.243-58.994-51.2-58.994s-62.009 0-62.009 0c-8.875 0-15.986-7.168-15.986-15.986s7.168-16.1 16.043-16.1c0 0 15.986 0 64 0 55.979 0 62.692-31.061 63.204-46.876 0.512-10.752 0.796-9.102 0.796-20.139zM192 816.014c0 26.453-21.504 48.014-48.014 48.014s-47.957-21.561-47.957-48.014 21.504-48.014 48.014-48.014 47.957 21.561 47.957 48.014zM160.028 816.014c0-8.818-7.168-15.986-15.986-15.986s-16.043 7.111-16.043 15.986 7.168 15.986 15.986 15.986 16.043-7.168 16.043-15.986z" />
<glyph unicode="&#xe61b;" glyph-name="uniE61B" d="M120.491 598.585h-120.491v-120.491h120.491v120.491zM120.491 417.906h-120.491v-120.491h120.491v120.491zM903.566 478.094h120.434v120.491h-120.434v-120.491zM903.566 297.415h120.434v120.491h-120.434v-120.491zM542.094-64h120.491v120.434h-120.491v-120.434zM361.415-64h120.491v120.434h-120.491v-120.434zM361.415 839.509h120.491v120.491h-120.491v-120.491zM542.094 839.509h120.491v120.491h-120.491v-120.491zM0 658.83h120.491v180.679h180.679v120.491h-301.17v-301.17zM722.83 960v-120.491h180.736v-180.679h120.434v301.17h-301.17zM120.491 237.17h-120.491v-301.17h301.17v120.434h-180.679v180.736zM903.566 56.434h-180.736v-120.434h301.17v301.17h-120.434v-180.736z" />
<glyph unicode="&#xe61c;" glyph-name="uniE61C" d="M193.536 587.036v-651.036h644.437v651.036h-644.437zM377.685 67.527h-92.103v431.787h92.103v-431.787zM561.778 67.527h-92.103v431.787h92.103v-431.787zM745.87 67.527h-92.046v431.787h92.046v-431.787zM699.676 761.515l38.571 126.805-264.761 71.68-38.628-126.635-176.583 47.9-38.684-126.578 617.984-167.652 38.684 126.635-176.583 47.844zM655.417 773.461l-176.071 49.209 25.429 83.115 176.128-49.038-25.486-83.285z" />
<glyph unicode="&#xe61d;" glyph-name="uniE61D" d="M871.424 392.761v383.317h-423.652l135.566-154.624h152.576v-228.693h-152.576l220.331-257.65 220.331 257.65h-152.576zM327.68 302.023v223.744h163.84l-245.76 292.011-245.76-292.011h163.84v-390.656h453.404l-125.724 166.912h-163.84z" />
<glyph unicode="&#xe61e;" glyph-name="uniE61E" d="M120.491 598.585h-120.491v-120.491h120.491v120.491zM120.491 417.906h-120.491v-120.491h120.491v120.491zM903.566 478.094h120.434v120.491h-120.434v-120.491zM903.566 297.415h120.434v120.491h-120.434v-120.491zM542.094-64h120.491v120.434h-120.491v-120.434zM361.415-64h120.491v120.434h-120.491v-120.434zM361.415 839.509h120.491v120.491h-120.491v-120.491zM542.094 839.509h120.491v120.491h-120.491v-120.491zM0 658.83h120.491v180.679h180.679v120.491h-301.17v-301.17zM722.83 960v-120.491h180.736v-180.679h120.434v301.17h-301.17zM120.491 237.17h-120.491v-301.17h301.17v120.434h-180.679v180.736zM903.566 56.434h-180.736v-120.434h301.17v301.17h-120.434v-180.736zM739.556 584.533l-91.022 91.022-136.533-136.533-136.533 136.533-91.022-91.022 136.533-136.533-136.533-136.533 91.022-91.022 136.533 136.533 136.533-136.533 91.022 91.022-136.533 136.533z" />
<glyph unicode="&#xe61f;" glyph-name="uniE61F" d="M918.357 527.132c-17.522 2.56-36.124 18.261-41.472 34.987l-25.941 63.204c-8.249 15.588-6.201 39.936 4.267 53.988l42.155 56.206c10.581 14.108 9.671 36.466-1.991 49.607l-46.251 46.308c-13.198 11.605-35.556 12.516-49.664 1.934l-56.206-42.155c-14.108-10.581-38.343-12.516-53.874-4.324l-63.147 25.998c-16.839 5.404-32.597 23.95-34.93 41.472l-10.069 69.518c-2.446 17.465-18.716 33.223-36.295 35.1 0 0-10.809 1.138-32.825 1.138-21.959 0-32.825-1.138-32.825-1.138-17.522-1.877-33.849-17.636-36.352-35.1l-10.069-69.518c-2.503-17.465-18.261-36.068-34.987-41.415l-63.204-25.998c-15.531-8.135-39.822-6.258-53.874 4.324l-56.32 42.212c-14.108 10.581-36.466 9.671-49.607-1.934l-46.251-46.364c-11.605-13.198-12.572-35.499-1.934-49.607l42.155-56.263c10.638-14.108 12.516-38.343 4.324-53.931l-26.055-63.26c-5.348-16.782-24.007-32.484-41.472-34.987l-69.518-9.842c-17.408-2.503-33.166-18.83-34.987-36.409 0 0-1.138-10.866-1.138-32.882s1.138-32.825 1.138-32.825c1.82-17.636 17.636-33.849 34.987-36.409l69.575-9.899c17.408-2.56 36.124-18.204 41.472-34.987l26.055-63.204c8.192-15.531 6.201-39.879-4.324-53.874l-42.155-56.149c-10.638-14.108-13.141-33.394-5.689-42.439 7.452-9.216 28.9-32.028 29.013-32.199 0 0 7.225-6.599 15.986-14.677 8.647-8.078 44.373-19.115 58.482-8.59l56.206 42.325c14.108 10.468 38.286 12.459 53.931 4.153l63.147-25.998c16.782-5.348 32.54-24.007 34.93-41.472l10.012-69.575c2.446-17.465 18.773-33.223 36.409-35.1 0 0 10.809-1.138 32.768-1.138s32.882 1.138 32.882 1.138c17.465 1.877 33.849 17.749 36.295 35.1l10.012 69.575c2.446 17.522 18.148 36.181 34.93 41.472l63.147 26.112c15.531 8.192 39.879 6.144 53.874-4.267l56.206-42.325c14.165-10.524 36.58-9.671 49.721 1.934l46.194 46.308c11.662 13.141 12.572 35.556 1.991 49.664l-42.212 56.149c-10.468 13.995-12.459 38.343-4.21 53.874l25.998 63.204c5.404 16.782 24.007 32.54 41.472 34.987l69.461 9.899c17.579 2.56 33.223 18.83 35.1 36.409 0 0 1.195 10.809 1.195 32.825s-1.195 32.825-1.195 32.825c-1.877 17.522-17.636 33.963-35.1 36.466l-69.348 9.842zM512 320c-70.713 0-128.057 57.344-128.057 128 0 70.713 57.344 128.057 128.057 128.057s128.057-57.344 128.057-128.057c0-70.656-57.401-128-128.057-128z" />
<glyph unicode="&#xe620;" glyph-name="uniE620" d="M979.456 601.828l-281.884 26.51c-17.863 1.593-33.223 12.857-40.505 29.696l-101.092 243.371c-16.043 40.164-73.5 40.164-89.714 0l-100.124-243.371c-6.428-16.839-22.585-28.103-40.391-29.696l-282.055-26.51c-41.984-4.039-58.937-56.263-27.42-84.309l212.537-185.572c13.71-12.004 19.342-29.639 15.36-47.388l-63.886-260.21c-9.614-41.017 34.816-74.752 71.908-53.020l235.179 137.387c15.417 8.704 33.963 8.704 49.266 0l235.122-137.387c37.035-21.732 81.636 11.207 71.964 53.020l-63.033 260.21c-3.982 17.806 1.65 35.385 15.417 47.388l212.423 185.572c30.834 28.046 12.971 80.27-29.070 84.309z" />
<glyph unicode="&#xe621;" glyph-name="uniE621" d="M862.265 846.222l-485.035-477.753-215.609 212.252-161.621-159.289 377.23-371.655 646.77 637.156z" />
<glyph unicode="&#xe622;" glyph-name="uniE622" d="M512 960c-282.795 0-512-229.205-512-512s229.205-512 512-512 512 229.205 512 512-229.205 512-512 512zM563.143 144.555h-102.343v101.205h102.4v-101.205zM563.143 346.908h-102.343v410.852h102.4v-410.852z" />
<glyph unicode="&#xe623;" glyph-name="uniE623" d="M665.543 751.388c-25.543 53.76-59.164 151.723-153.543 151.723-94.436 0-123.221-96.37-153.6-151.723-30.379-55.239-358.4-657.465-358.4-657.465 0-71.566 45.852-101.035 102.4-101.035h819.143c56.604 0 102.457 45.227 102.457 101.035 0 0-332.8 603.762-358.457 657.465zM563.143 144.555h-102.343v101.205h102.4v-101.205zM563.143 346.908h-102.343v353.963h102.4v-353.963z" />
<glyph unicode="&#xe624;" glyph-name="uniE624" d="M786.096 595.392v237.904l-160.432-0.112v-121.456l-113.824 81.744-511.84-368.736h98.272l413.024 300.72 161.056-115.232-0.016 166.176h67.232v-217.2l191.344-134.464h93.088z" />
<glyph unicode="&#xe625;" glyph-name="uniE625" d="M250.096 191.52v124.128h124.128v-124.128h-124.128zM105.296 46.704v144.816h144.8v-144.816h-144.8z" />
<glyph unicode="&#xe626;" glyph-name="uniE626" d="M633.776 393.696v-347.008h-62.064v450.448h124.128v-103.44h-62.064z" />
<glyph unicode="&#xe627;" glyph-name="uniE627" d="M670.464 46.704v310.304h124.128v-186.192h124.112v-124.128h-248.24z" />
<glyph unicode="&#xe628;" glyph-name="uniE628" d="M286.784 46.704v108.128h124.128v119.44l124.272-0.064-0.144-227.504h-248.256z" />
<glyph unicode="&#xe629;" glyph-name="uniE629" d="M879.002 222.704c13.876-13.722 36.25-13.722 50.126 0s13.876 35.892 0 49.612l-404.838 400.896c-13.876 13.722-36.302 13.722-50.126 0l-404.89-400.896c-13.876-13.722-13.876-35.892 0-49.612s36.25-13.722 50.126 0l379.802 365.568 379.802-365.568z" />
<glyph unicode="&#xe62a;" glyph-name="Export" d="M953.408 359.488c31.552 0 56.896-25.28 56.896-56.896v-309.76c0-31.616-25.344-56.896-56.896-56.896h-880.704c-31.616 0-59.008 25.28-59.008 56.896v309.76c0 31.616 27.392 56.896 59.008 56.896s56.896-25.28 56.896-56.896v-250.752h766.912v250.752c0 31.68 25.28 56.896 56.896 56.896zM321.344 631.296c-23.168-23.168-56.896-23.168-80.064 0s-23.168 56.896 0 80.064l231.808 231.744c10.496 10.56 25.216 16.896 40 16.896s29.504-6.336 40-16.896l231.808-231.744c23.104-23.168 23.104-56.896 0-80.064-10.56-10.56-25.344-16.832-40.064-16.832s-31.552 6.336-42.176 16.832l-132.736 132.736v-493.056c0-31.616-25.28-56.896-56.896-56.896s-56.896 25.28-56.896 56.896v493.056l-134.784-132.736z" />
<glyph unicode="&#xe62b;" glyph-name="Import" d="M953.408 359.488c31.552 0 56.896-25.28 56.896-56.896v-309.76c0-31.616-25.344-56.896-56.896-56.896h-880.704c-31.616 0-59.008 25.28-59.008 56.896v309.76c0 31.616 27.392 56.896 59.008 56.896s56.896-25.28 56.896-56.896v-250.752h766.912v250.752c0 31.68 25.28 56.896 56.896 56.896zM473.024 230.976l-231.744 231.744c-23.168 23.168-23.168 56.896 0 80.064s56.896 23.168 80.064 0l134.848-132.736v493.056c-0.064 31.616 25.216 56.896 56.896 56.896 31.552 0 56.832-25.28 56.832-56.896v-493.056l132.736 132.736c23.168 23.168 59.008 23.168 82.176 0 23.104-23.168 23.104-56.896 0-80.064l-231.808-231.744c-10.56-10.56-25.28-16.896-40-16.896s-29.44 6.336-40 16.896z" />
<glyph unicode="&#xe62c;" glyph-name="contacts" d="M42.667 856v-858.667c0-33.856 27.435-61.333 61.333-61.333h61.333v981.333h-61.333c-33.899 0-61.333-27.499-61.333-61.333zM840 917.333h-613.333v-981.333h613.333c33.92 0 61.333 27.477 61.333 61.333v858.667c0 33.835-27.413 61.333-61.333 61.333zM560.64 680.981c51.264 0 92.8-41.621 92.8-92.843 0-51.264-41.643-92.843-92.8-92.843-51.264 0-92.843 41.579-92.843 92.843s41.579 92.843 92.843 92.843zM410.667 254.549c0 112.341 68.032 203.627 151.893 203.627 83.797 0 151.893-91.285 151.893-203.627-0.064-112.512-303.787-112.512-303.787 0zM962.667 856h61.333v-184h-61.333v184zM962.667 610.667h61.333v-184h-61.333v184zM962.667 365.333h61.333v-184h-61.333v184zM21.333 877.333v-858.667c0-33.856 27.435-61.333 61.333-61.333h61.333v981.333h-61.333c-33.899 0-61.333-27.499-61.333-61.333zM818.667 938.667h-613.333v-981.333h613.333c33.92 0 61.333 27.477 61.333 61.333v858.667c0 33.835-27.413 61.333-61.333 61.333zM539.307 702.315c51.264 0 92.8-41.621 92.8-92.843 0-51.264-41.643-92.843-92.8-92.843-51.264 0-92.843 41.579-92.843 92.843s41.579 92.843 92.843 92.843zM389.333 275.883c0 112.341 68.032 203.627 151.893 203.627 83.797 0 151.893-91.285 151.893-203.627-0.064-112.512-303.787-112.512-303.787 0zM941.333 877.333h61.333v-184h-61.333v184zM941.333 632h61.333v-184h-61.333v184zM941.333 386.667h61.333v-184h-61.333v184z" />
<glyph unicode="&#xe62d;" glyph-name="crm-ex" d="M209.344 92.672v93.995h62.677l-125.333 156.672-125.355-156.672h62.677c0 0 0-62.357 0-93.995 0-156.011 156.672-156.672 156.672-156.672h125.333c0 0 0 20.373 0 31.339-140.587 0-156.672 125.333-156.672 125.333zM814.208 123.989h-291.541v62.677l-156.672-125.333 156.672-125.333v62.677c0 0 249.301 0 282.005 0 178.453 0 188.011 156.672 188.011 156.672v125.333c0 0-20.011 0-31.339 0 0-140.587-147.136-156.693-147.136-156.693zM836.011 781.995v-93.995h-62.677l125.333-156.672 125.333 156.672h-62.677c0 0 0 62.357 0 93.995 0.021 156.011-156.651 156.672-156.651 156.672h-125.333c0 0 0-20.373 0-31.339 140.565 0 156.672-125.333 156.672-125.333zM231.125 750.656h260.203v-62.677l156.672 125.333-156.672 125.355v-62.677c0 0-217.963 0-250.667 0-178.453 0-188.011-156.672-188.011-156.672v-125.333c0 0 20.011 0 31.339 0 0.021 140.587 147.136 156.672 147.136 156.672zM188.011 114.005v93.995h62.677l-125.333 156.672-125.355-156.672h62.677c0 0 0-62.357 0-93.995 0-156.011 156.672-156.672 156.672-156.672h125.333c0 0 0 20.373 0 31.339-140.587 0-156.672 125.333-156.672 125.333zM792.875 145.323h-291.541v62.677l-156.672-125.333 156.672-125.333v62.677c0 0 249.301 0 282.005 0 178.453 0 188.011 156.672 188.011 156.672v125.333c0 0-20.011 0-31.339 0 0-140.587-147.136-156.693-147.136-156.693zM814.677 803.328v-93.995h-62.677l125.333-156.672 125.333 156.672h-62.677c0 0 0 62.357 0 93.995 0.021 156.011-156.651 156.672-156.651 156.672h-125.333c0 0 0-20.373 0-31.339 140.565 0 156.672-125.333 156.672-125.333zM209.792 771.989h260.203v-62.677l156.672 125.333-156.672 125.355v-62.677c0 0-217.963 0-250.667 0-178.453 0-188.011-156.672-188.011-156.672v-125.333c0 0 20.011 0 31.339 0 0.021 140.587 147.136 156.672 147.136 156.672zM271.253 511.189c24.469 0 32.384-15.189 32.384-50.325h54.293c0 35.157-5.611 86.165-83.285 86.165-81.408 0-91.605-52.011-91.605-125.355 0-73.237 10.219-125.312 91.605-125.312 71.232 0 85.632 44.885 85.632 96.981h-54.315c0-52.075-14.4-61.205-34.005-61.205-23.381 0-34.688 13.163-34.688 86.165-0.021 68.203 6.443 92.885 33.984 92.885v0zM249.92 532.523c24.469 0 32.384-15.189 32.384-50.325h54.293c0 35.157-5.611 86.165-83.285 86.165-81.408 0-91.605-52.011-91.605-125.355 0-73.237 10.219-125.312 91.605-125.312 71.232 0 85.632 44.885 85.632 96.981h-54.315c0-52.075-14.4-61.205-34.005-61.205-23.381 0-34.688 13.163-34.688 86.165-0.021 68.203 6.443 92.885 33.984 92.885v0zM840.981 303.253v241.28h-80.299l-38.848-170.304h-0.725l-38.443 170.304h-80.661v-241.28h49.707v192.619h0.853l47.787-192.619h42.304l47.723 192.619h0.853v-192.619zM819.648 324.587v241.28h-80.299l-38.848-170.304h-0.725l-38.443 170.304h-80.661v-241.28h49.707v192.619h0.853l47.787-192.619h42.304l47.723 192.619h0.853v-192.619zM561.515 348.544c-0.704 50.987-6.4 69.205-43.285 73.621v0.661c30.507 5.781 44.8 27.435 44.8 59.52 0 41.237-27.115 62.187-71.573 62.187h-100.267v-241.301h54.272v102.101h29.035c21.867 0 31.339-11.52 32.021-30.421l1.536-46.336c0.405-9.408 1.451-18.539 6.72-25.344h58.88v2.048c-10.197 4.757-11.605 17.92-12.139 43.264zM468.011 439.083h-22.571v69.653h25.643c24.469 0 37.739-11.136 37.739-33.472 0-26.027-14.763-36.181-40.811-36.181zM540.181 369.877c-0.704 50.987-6.4 69.205-43.285 73.621v0.661c30.507 5.781 44.8 27.435 44.8 59.52 0 41.237-27.115 62.187-71.573 62.187h-100.267v-241.301h54.272v102.101h29.035c21.867 0 31.339-11.52 32.021-30.421l1.536-46.336c0.405-9.408 1.451-18.539 6.72-25.344h58.88v2.048c-10.197 4.757-11.605 17.92-12.139 43.264zM446.677 460.416h-22.571v69.653h25.643c24.469 0 37.739-11.136 37.739-33.472 0-26.027-14.763-36.181-40.811-36.181z" />
<glyph unicode="&#xe62e;" glyph-name="events" d="M836.011 423.211c-17.621 4.075-35.968 6.293-54.827 6.293-5.269 0-10.475-0.213-15.659-0.533-120.32-7.659-216.747-102.912-226.304-222.699-0.512-6.464-0.853-12.949-0.853-19.584 0-20.245 2.517-39.915 7.211-58.752 26.261-105.707 121.771-184.085 235.627-184.085 134.059-0.021 242.795 108.693 242.795 242.816 0 115.243-80.32 211.669-187.989 236.544zM781.163 26.091c-88.683 0-160.576 71.915-160.576 160.576 0 88.704 71.893 160.576 160.576 160.576s160.576-71.872 160.576-160.576c0.021-88.661-71.893-160.576-160.576-160.576zM757.675 61.333c82.261 0 148.843 66.581 148.843 148.843h-148.843v-148.843zM225.003 754.603c15.104 0 27.413 12.288 27.413 27.413v129.237c0 15.125-12.309 27.413-27.413 27.413h-23.509c-15.125 0-27.413-12.288-27.413-27.413v-129.28c0-15.104 12.288-27.413 27.413-27.413h23.509zM655.829 754.603c15.125 0 27.413 12.288 27.413 27.413v129.237c0 15.125-12.288 27.413-27.413 27.413h-23.509c-15.125 0-27.413-12.288-27.413-27.413v-129.28c0-15.104 12.288-27.413 27.413-27.413h23.509zM489.344 127.915c-3.84 19.008-5.845 38.677-5.845 58.752 0 6.592 0.299 13.12 0.704 19.584h-345.365c-25.963 0-46.997 21.035-46.997 46.997v376.021h673.664v-145.344c5.184 0.277 10.411 0.427 15.659 0.427 18.731 0 37.035-1.835 54.827-5.141v306.709c0 34.603-28.053 62.677-62.677 62.677h-50.923v-66.603c0-36.715-29.867-66.581-66.581-66.581h-23.509c-36.715 0-66.581 29.867-66.581 66.581v66.603h-274.133v-66.603c0-36.715-29.867-66.581-66.581-66.581h-23.509c-36.715 0-66.581 29.867-66.581 66.581v66.603h-50.901c-34.624 0-62.677-28.075-62.677-62.677v-595.349c0-34.581 28.053-62.677 62.677-62.677h405.333zM304.32 511.765c0-34.345-27.842-62.187-62.187-62.187s-62.187 27.842-62.187 62.187c0 34.345 27.842 62.187 62.187 62.187s62.187-27.842 62.187-62.187zM490.859 511.765c0-34.345-27.842-62.187-62.187-62.187s-62.187 27.842-62.187 62.187c0 34.345 27.842 62.187 62.187 62.187s62.187-27.842 62.187-62.187zM677.376 511.765c0-34.345-27.842-62.187-62.187-62.187s-62.187 27.842-62.187 62.187c0 34.345 27.842 62.187 62.187 62.187s62.187-27.842 62.187-62.187zM490.837 323.755c0-34.333-27.832-62.165-62.165-62.165s-62.165 27.832-62.165 62.165c0 34.333 27.832 62.165 62.165 62.165s62.165-27.832 62.165-62.165zM304.299 323.755c0-34.333-27.832-62.165-62.165-62.165s-62.165 27.832-62.165 62.165c0 34.333 27.832 62.165 62.165 62.165s62.165-27.832 62.165-62.165zM814.677 444.544c-17.621 4.075-35.968 6.293-54.827 6.293-5.269 0-10.475-0.213-15.659-0.533-120.32-7.659-216.747-102.912-226.304-222.699-0.512-6.464-0.853-12.949-0.853-19.584 0-20.245 2.517-39.915 7.211-58.752 26.261-105.707 121.771-184.085 235.627-184.085 134.059-0.021 242.795 108.693 242.795 242.816 0 115.243-80.32 211.669-187.989 236.544zM759.829 47.424c-88.683 0-160.576 71.915-160.576 160.576 0 88.704 71.893 160.576 160.576 160.576s160.576-71.872 160.576-160.576c0.021-88.661-71.893-160.576-160.576-160.576zM736.341 82.667c82.261 0 148.843 66.581 148.843 148.843h-148.843v-148.843zM203.669 775.936c15.104 0 27.413 12.288 27.413 27.413v129.237c0 15.125-12.309 27.413-27.413 27.413h-23.509c-15.125 0-27.413-12.288-27.413-27.413v-129.28c0-15.104 12.288-27.413 27.413-27.413h23.509zM634.496 775.936c15.125 0 27.413 12.288 27.413 27.413v129.237c0 15.125-12.288 27.413-27.413 27.413h-23.509c-15.125 0-27.413-12.288-27.413-27.413v-129.28c0-15.104 12.288-27.413 27.413-27.413h23.509zM468.011 149.248c-3.84 19.008-5.845 38.677-5.845 58.752 0 6.592 0.299 13.12 0.704 19.584h-345.365c-25.963 0-46.997 21.035-46.997 46.997v376.021h673.664v-145.344c5.184 0.277 10.411 0.427 15.659 0.427 18.731 0 37.035-1.835 54.827-5.141v306.709c0 34.603-28.053 62.677-62.677 62.677h-50.923v-66.603c0-36.715-29.867-66.581-66.581-66.581h-23.509c-36.715 0-66.581 29.867-66.581 66.581v66.603h-274.133v-66.603c0-36.715-29.867-66.581-66.581-66.581h-23.509c-36.715 0-66.581 29.867-66.581 66.581v66.603h-50.901c-34.624 0-62.677-28.075-62.677-62.677v-595.349c0-34.581 28.053-62.677 62.677-62.677h405.333zM282.987 533.099c0-34.345-27.842-62.187-62.187-62.187s-62.187 27.842-62.187 62.187c0 34.345 27.842 62.187 62.187 62.187s62.187-27.842 62.187-62.187zM469.525 533.099c0-34.345-27.842-62.187-62.187-62.187s-62.187 27.842-62.187 62.187c0 34.345 27.842 62.187 62.187 62.187s62.187-27.842 62.187-62.187zM656.043 533.099c0-34.345-27.842-62.187-62.187-62.187s-62.187 27.842-62.187 62.187c0 34.345 27.842 62.187 62.187 62.187s62.187-27.842 62.187-62.187zM469.504 345.088c0-34.333-27.832-62.165-62.165-62.165s-62.165 27.832-62.165 62.165c0 34.333 27.832 62.165 62.165 62.165s62.165-27.832 62.165-62.165zM282.965 345.088c0-34.333-27.832-62.165-62.165-62.165s-62.165 27.832-62.165 62.165c0 34.333 27.832 62.165 62.165 62.165s62.165-27.832 62.165-62.165z" />
<glyph unicode="&#xe62f;" glyph-name="flex" d="M106.667 938.667v-838.336l162.133-164.331h648.533v1002.667h-810.667zM852.501 1.728h-535.061v147.925h-145.92v723.264h680.981v-871.189zM593.941 133.205h65.493v32.896h-65.493v49.323h81.877v32.875h-114.667v-197.248h32.811l-0.021 82.155zM675.819 51.051h28.075c2.027 0 3.712 0.597 5.077 1.856 1.344 1.237 2.453 2.539 3.392 4.032l27.584 45.781 27.691-45.781c0.981-1.536 2.133-2.923 3.52-4.096s3.221-1.792 5.547-1.792h30.208l-44.715 69.184 42.944 62.293h-28.821c-1.621 0-2.944-0.363-4.096-1.173-1.088-0.747-2.176-1.963-3.2-3.563l-25.835-43.285-27.307 43.925c-0.853 1.472-1.813 2.517-2.923 3.157s-2.837 0.981-5.099 0.981h-30.229l42.816-63.701-44.629-67.819zM237.227 281.621h280.597v-64.277h-280.597v64.277zM231.381 640.832v-140.885h561.259v140.885h-561.259zM761.429 531.243h-498.859v78.272h498.88v-78.272zM231.381 813.035v-140.907h561.259v140.907h-561.259zM761.429 703.445h-498.859v78.293h498.88v-78.293zM231.381 468.629v-156.544h561.259v156.544h-561.259zM761.429 343.403h-498.859v93.909h498.88v-93.909zM85.333 960v-838.336l162.133-164.331h648.533v1002.667h-810.667zM831.168 23.061h-535.061v147.925h-145.92v723.264h680.981v-871.189zM572.608 154.539h65.493v32.896h-65.493v49.323h81.877v32.875h-114.667v-197.248h32.811l-0.021 82.155zM654.485 72.384h28.075c2.027 0 3.712 0.597 5.077 1.856 1.344 1.237 2.453 2.539 3.392 4.032l27.584 45.781 27.691-45.781c0.981-1.536 2.133-2.923 3.52-4.096s3.221-1.792 5.547-1.792h30.208l-44.715 69.184 42.944 62.293h-28.821c-1.621 0-2.944-0.363-4.096-1.173-1.088-0.747-2.176-1.963-3.2-3.563l-25.835-43.285-27.307 43.925c-0.853 1.472-1.813 2.517-2.923 3.157s-2.837 0.981-5.099 0.981h-30.229l42.816-63.701-44.629-67.819zM215.893 302.955h280.597v-64.277h-280.597v64.277zM210.048 662.165v-140.885h561.259v140.885h-561.259zM740.096 552.576h-498.859v78.272h498.88v-78.272zM210.048 834.368v-140.907h561.259v140.907h-561.259zM740.096 724.779h-498.859v78.293h498.88v-78.293zM210.048 489.963v-156.544h561.259v156.544h-561.259zM740.096 364.736h-498.859v93.909h498.88v-93.909z" />
<glyph unicode="&#xe630;" glyph-name="reminders" d="M1024 629.248c0-170.624-138.795-309.419-309.44-309.419v-323.456c0-28.437-23.168-51.605-51.627-51.605h-589.973c-28.459-0.043-51.627 23.147-51.627 51.584v540.864c0 0.811 0.213 1.557 0.235 2.347v89.685c0 10.923 14.101 19.797 31.509 19.797h56.277v36.949c0 32.725 26.603 59.328 59.307 59.328s59.307-26.603 59.307-59.328v-36.949h92.885v36.949c0 32.725 26.603 59.328 59.328 59.328 16.149 0 30.613-6.656 41.259-17.152 41.365 122.219 157.099 210.496 293.12 210.496 170.645 0 309.44-138.816 309.44-309.419zM350.4 649.024h55.467c0.747 11.648 2.155 23.125 4.139 34.411v2.539c0 16.448-13.376 29.803-29.781 29.803-16.448 0-29.803-13.376-29.803-29.803v-36.949h-0.021zM138.837 649.024h59.627v36.949c0 16.448-13.376 29.803-29.803 29.803s-29.824-13.376-29.824-29.803v-36.949zM670.379 323.029c-78.528 11.285-147.627 52.16-195.605 110.933h-409.195v-437.611c0-4.053 3.328-7.36 7.381-7.36h590.016c4.032 0 7.403 3.285 7.403 7.36v326.677zM973.589 629.248c0 142.805-116.203 259.008-259.029 259.008s-259.008-116.203-259.008-259.008c0-142.805 116.181-259.008 259.008-259.008s259.029 116.203 259.029 259.008zM892.053 754.027c-9.045 10.624-24.96 11.861-35.52 2.859l-144.917-123.499-150.955 85.291c-12.075 6.848-27.499 2.56-34.347-9.557-6.827-12.117-2.539-27.499 9.557-34.347l166.272-93.952c3.883-2.197 8.149-3.264 12.395-3.264 5.845 0 11.691 2.048 16.341 6.016l158.336 134.933c10.645 9.024 11.883 24.939 2.837 35.52zM1002.667 650.581c0-170.624-138.795-309.419-309.44-309.419v-323.456c0-28.437-23.168-51.605-51.627-51.605h-589.973c-28.459-0.043-51.627 23.147-51.627 51.584v540.864c0 0.811 0.213 1.557 0.235 2.347v89.685c0 10.923 14.101 19.797 31.509 19.797h56.277v36.949c0 32.725 26.603 59.328 59.307 59.328s59.307-26.603 59.307-59.328v-36.949h92.885v36.949c0 32.725 26.603 59.328 59.328 59.328 16.149 0 30.613-6.656 41.259-17.152 41.365 122.219 157.099 210.496 293.12 210.496 170.645 0 309.44-138.816 309.44-309.419zM329.067 670.357h55.467c0.747 11.648 2.155 23.125 4.139 34.411v2.539c0 16.448-13.376 29.803-29.781 29.803-16.448 0-29.803-13.376-29.803-29.803v-36.949h-0.021zM117.504 670.357h59.627v36.949c0 16.448-13.376 29.803-29.803 29.803s-29.824-13.376-29.824-29.803v-36.949zM649.045 344.363c-78.528 11.285-147.627 52.16-195.605 110.933h-409.195v-437.611c0-4.053 3.328-7.36 7.381-7.36h590.016c4.032 0 7.403 3.285 7.403 7.36v326.677zM952.256 650.581c0 142.805-116.203 259.008-259.029 259.008s-259.008-116.203-259.008-259.008c0-142.805 116.181-259.008 259.008-259.008s259.029 116.203 259.029 259.008zM870.72 775.36c-9.045 10.624-24.96 11.861-35.52 2.859l-144.917-123.499-150.955 85.291c-12.075 6.848-27.499 2.56-34.347-9.557-6.827-12.117-2.539-27.499 9.557-34.347l166.272-93.952c3.883-2.197 8.149-3.264 12.395-3.264 5.845 0 11.691 2.048 16.341 6.016l158.336 134.933c10.645 9.024 11.883 24.939 2.837 35.52zM285.867 338.603h-39.381l-85.483-72.683 15.125-20.8c1.024-1.365 2.603-2.624 4.736-3.733 2.112-1.131 4.459-1.621 7.083-1.621 1.664 0 3.392 0.213 5.141 0.768 1.728 0.491 3.435 1.451 5.12 2.901l40.32 33.685c-0.384-6.912-0.576-13.611-0.576-19.947v-163.413h-56.789v-35.883h155.093v35.883h-50.389v244.843zM532.608 181.952c-8.299 10.901-20.821 18.923-37.611 24.277 6.976 2.24 13.184 5.205 18.667 8.725 5.525 3.499 10.176 7.68 13.995 12.757 3.797 5.035 6.699 10.987 8.704 17.749s3.008 14.635 3.008 23.573c0 10.219-1.963 19.712-5.909 28.48-3.925 8.768-9.579 16.448-16.939 22.955-7.403 6.571-16.277 11.669-26.645 15.339-10.411 3.669-22.101 5.525-35.051 5.525-12.416 0-23.979-1.707-34.795-5.12-10.795-3.456-20.352-8.576-28.672-15.339-8.363-6.784-15.296-15.317-20.864-25.387-5.547-10.176-9.301-21.973-11.243-35.413l25.195-4.373c2.304-0.405 4.523-0.533 6.592-0.533 4.395 0 7.957 1.003 10.667 3.157 2.731 2.133 4.864 5.632 6.379 10.517 3.008 9.429 8.213 17.173 15.723 23.168 7.488 5.995 16.96 9.024 28.288 9.024 12.565 0 22.464-3.413 29.696-10.197 7.211-6.763 10.837-16.853 10.837-30.123 0-6.208-0.896-11.968-2.688-17.109-1.813-5.184-5.013-9.6-9.621-13.248-4.587-3.733-10.731-6.592-18.496-8.64-7.787-2.048-17.515-3.115-29.312-3.115v-34.304c14.251 0 25.579-1.109 34.048-3.285 8.469-2.219 14.933-5.205 19.477-9.088 4.501-3.904 7.488-8.576 8.939-14.101 1.408-5.483 2.112-11.563 2.112-18.283 0-5.333-0.981-10.581-2.987-15.787-2.005-5.291-5.035-10.027-9.109-14.251-4.075-4.245-9.131-7.723-15.189-10.389-6.101-2.603-13.205-3.989-21.333-3.989-7.232 0-13.461 1.088-18.688 3.179-5.269 2.176-9.813 4.928-13.675 8.341-3.904 3.456-7.211 7.36-10.005 11.755-2.773 4.395-5.333 8.896-7.659 13.376-1.429 2.731-3.456 4.779-6.123 6.208-2.645 1.387-5.632 2.133-8.981 2.133-3.755 0-7.445-0.768-11.051-2.325l-21.141-8.725c3.861-11.989 8.512-22.592 13.952-31.744 5.44-9.237 12.011-16.939 19.797-23.275 7.744-6.336 16.853-11.157 27.307-14.379 10.475-3.221 22.763-4.843 36.864-4.843 12.907 0 25.152 1.877 36.757 5.589 11.563 3.797 21.717 9.323 30.549 16.597 8.768 7.317 15.744 16.341 20.885 27.093 5.163 10.688 7.787 23.019 7.787 37.013-0.043 16.341-4.203 29.995-12.437 40.832zM264.533 359.936h-39.381l-85.483-72.683 15.125-20.8c1.024-1.365 2.603-2.624 4.736-3.733 2.112-1.131 4.459-1.621 7.083-1.621 1.664 0 3.392 0.213 5.141 0.768 1.728 0.491 3.435 1.451 5.12 2.901l40.32 33.685c-0.384-6.912-0.576-13.611-0.576-19.947v-163.413h-56.789v-35.883h155.093v35.883h-50.389v244.843zM511.275 203.285c-8.299 10.901-20.821 18.923-37.611 24.277 6.976 2.24 13.163 5.205 18.688 8.725 5.504 3.499 10.155 7.68 13.995 12.757 3.797 5.035 6.699 10.987 8.704 17.749s3.008 14.635 3.008 23.573c0 10.219-1.963 19.712-5.909 28.48-3.925 8.768-9.579 16.448-16.939 22.955-7.403 6.571-16.277 11.669-26.645 15.339-10.432 3.669-22.123 5.525-35.072 5.525-12.416 0-23.979-1.707-34.795-5.12-10.795-3.456-20.352-8.576-28.672-15.339-8.363-6.784-15.296-15.317-20.864-25.387-5.547-10.176-9.301-21.973-11.243-35.413l25.195-4.373c2.304-0.405 4.523-0.533 6.592-0.533 4.395 0 7.957 1.003 10.667 3.157 2.731 2.133 4.864 5.632 6.379 10.517 3.008 9.429 8.213 17.173 15.723 23.168 7.488 5.995 16.96 9.024 28.288 9.024 12.565 0 22.464-3.413 29.696-10.197 7.211-6.763 10.837-16.853 10.837-30.123 0-6.208-0.896-11.968-2.688-17.109-1.813-5.184-5.013-9.6-9.621-13.248-4.587-3.733-10.731-6.592-18.496-8.64-7.787-2.048-17.515-3.115-29.312-3.115v-34.304c14.251 0 25.579-1.109 34.048-3.285 8.469-2.219 14.933-5.205 19.477-9.088 4.501-3.904 7.488-8.576 8.939-14.101 1.408-5.483 2.112-11.563 2.112-18.283 0-5.333-0.981-10.581-2.987-15.787-2.005-5.291-5.035-10.027-9.109-14.251-4.075-4.245-9.131-7.723-15.189-10.389-6.101-2.603-13.205-3.989-21.333-3.989-7.232 0-13.461 1.088-18.688 3.179-5.269 2.176-9.813 4.928-13.675 8.341-3.904 3.456-7.211 7.36-10.005 11.755-2.773 4.395-5.333 8.896-7.659 13.376-1.429 2.731-3.456 4.779-6.123 6.208-2.645 1.387-5.632 2.133-8.981 2.133-3.755 0-7.445-0.768-11.051-2.325l-21.141-8.725c3.861-11.989 8.512-22.592 13.952-31.744 5.44-9.237 12.011-16.939 19.797-23.275 7.744-6.336 16.853-11.157 27.307-14.379 10.475-3.221 22.763-4.843 36.864-4.843 12.907 0 25.152 1.877 36.757 5.589 11.563 3.797 21.717 9.323 30.528 16.597 8.789 7.317 15.765 16.341 20.885 27.093 5.163 10.688 7.787 23.019 7.787 37.013-0.021 16.341-4.181 29.995-12.416 40.832z" />
<glyph unicode="&#xe631;" glyph-name="request" d="M866.283 735.339h-114.837v-2.56c0 36.949-29.931 66.901-66.859 66.901h-31.957c-0.896 65.259-54.059 117.653-119.339 117.653-65.259 0-118.421-52.395-119.339-117.675h-31.957c-36.907 0-66.859-29.931-66.859-66.901v2.56h-114.859c-23.915 0-44.011-19.328-44.011-43.264v-712.747c0-23.957 20.096-43.307 44.011-43.307h666.069c23.936 0 44.053 19.349 44.053 43.307v712.768c-0.043 23.915-20.16 43.264-44.117 43.264zM533.291 854.784c30.805 0 55.915-24.555 56.832-55.125h-113.685c0.939 30.571 26.069 55.125 56.853 55.125zM855.296-10.901h-643.989v693.248h103.851v-48.939h436.309v48.939h103.829v-693.248zM733.269 479.723l-8.043 8.149c-17.877 17.941-46.784 17.941-64.64 0l-177.749-179.072-76.757 77.312c-17.835 17.984-46.784 17.984-64.64 0l-8.085-8.149c-17.835-17.984-17.835-47.104 0-65.109l117.163-118.016c17.856-18.005 46.784-18.005 64.64 0l218.112 219.755c17.877 17.984 17.877 47.125 0 65.131zM844.949 756.672h-114.837v-2.56c0 36.949-29.931 66.901-66.859 66.901h-31.957c-0.896 65.259-54.059 117.653-119.317 117.653s-118.421-52.395-119.339-117.675h-31.957c-36.907 0-66.859-29.931-66.859-66.901v2.56h-114.88c-23.915 0-44.011-19.328-44.011-43.264v-712.747c0-23.957 20.096-43.307 44.011-43.307h666.069c23.936 0 44.053 19.349 44.053 43.307v712.768c-0.043 23.915-20.16 43.264-44.117 43.264zM511.979 876.117c30.805 0 55.915-24.555 56.832-55.125h-113.685c0.917 30.571 26.048 55.125 56.853 55.125zM833.963 10.432h-643.989v693.248h103.851v-48.939h436.309v48.939h103.829v-693.248zM711.936 501.056l-8.043 8.149c-17.877 17.941-46.784 17.941-64.64 0l-177.749-179.072-76.757 77.312c-17.835 17.984-46.784 17.984-64.64 0l-8.085-8.149c-17.835-17.984-17.835-47.104 0-65.109l117.163-118.016c17.856-18.005 46.784-18.005 64.64 0l218.112 219.755c17.877 17.984 17.877 47.125 0 65.131z" />
<glyph unicode="&#xe632;" glyph-name="save" d="M776.858 870.4h-572.058c-56.371 0-102.4-46.080-102.4-102.4v-614.4c0-56.32 46.029-102.4 102.4-102.4h614.4c56.371 0 102.4 46.080 102.4 102.4v556.698l-144.742 160.102zM716.8 563.2c0-28.109-23.040-51.2-51.2-51.2h-307.2c-28.16 0-51.2 23.091-51.2 51.2v256h409.6v-256zM665.6 768h-102.4v-204.8h102.4v204.8z" />
<glyph unicode="&#xe633;" glyph-name="archive" d="M896-64h-768c-70.656 0-128 57.344-128 128v768c0 70.656 57.344 128 128 128h768c70.656 0 128-57.344 128-128v-768c0-70.656-57.344-128-128-128zM896 768c0 35.328-28.608 64-64 64h-640c-35.392 0-64-28.672-64-64v-448c0-35.392 28.608-64 64-64h64c63.616 0 64-64 64-64v-64c0-35.392 28.608-64 64-64h256c35.392 0 64 28.608 64 64v64c0 0 8.704 64 64 64h64c35.392 0 64 28.608 64 64v448zM256 448h192v256h128v-256h192l-256-256-256 256z" />
<glyph unicode="&#xe634;" glyph-name="download" d="M736 512l-256-256-256 256h160v384h192v-384zM480 256h-480v-256h960v256h-480zM896 128h-128v64h128v-64z" />
<glyph unicode="&#xe635;" glyph-name="floppy-disk" d="M896 960h-896v-1024h1024v896l-128 128zM512 832h128v-256h-128v256zM896 64h-768v768h64v-320h576v320h74.978l53.022-53.018v-714.982z" />
<glyph unicode="&#xe636;" glyph-name="floppy-o" d="M219.429 73.143h438.857v219.429h-438.857v-219.429zM731.429 73.143h73.143v512q0 8-5.714 22t-11.429 19.714l-160.571 160.571q-5.714 5.714-19.429 11.429t-22.286 5.714v-237.714q0-22.857-16-38.857t-38.857-16h-329.143q-22.857 0-38.857 16t-16 38.857v237.714h-73.143v-731.429h73.143v237.714q0 22.857 16 38.857t38.857 16h475.429q22.857 0 38.857-16t16-38.857v-237.714zM512 603.428v182.857q0 7.429-5.429 12.857t-12.857 5.429h-109.714q-7.429 0-12.857-5.429t-5.429-12.857v-182.857q0-7.429 5.429-12.857t12.857-5.429h109.714q7.429 0 12.857 5.429t5.429 12.857zM877.714 585.143v-530.286q0-22.857-16-38.857t-38.857-16h-768q-22.857 0-38.857 16t-16 38.857v768q0 22.857 16 38.857t38.857 16h530.286q22.857 0 50.286-11.429t43.429-27.429l160-160q16-16 27.429-43.429t11.429-50.286z" />
<glyph unicode="&#xe637;" glyph-name="download2" d="M640 469.334v469.333h-213.333v-469.333h-168.661l271.488-271.531 271.488 271.531zM860.16 640h-134.827v-85.333h134.827c23.509 0 35.84-0.683 35.84-24.149v-320c0-35.328-21.931-82.517-57.173-82.517h-653.568c-35.243 0-57.173 47.189-57.173 82.517v320c0 23.467 12.331 24.149 35.84 24.149h134.827v85.333h-134.827c-70.571 0-121.173-38.912-121.173-109.483v-469.333c0-70.571 50.603-146.517 121.173-146.517h696.235c70.571 0 121.173 75.904 121.173 146.517v469.333c0 70.571-50.603 109.483-121.173 109.483zM896 61.184c0-23.509-12.331-61.184-35.84-61.184h-696.235c-23.509 0-35.84 37.675-35.84 61.184v64.555c0-13.525 33.067-40.363 57.173-40.363h653.568c24.064 0 57.173 26.837 57.173 40.363v-64.555z" />
<glyph unicode="&#xe638;" glyph-name="tours" horiz-adv-x="1408" d="M1204.992 864h-896c-70.656 0-128-57.344-128-128v-107.008l-180.992-180.992 180.992-180.992v-107.008c0-70.656 57.344-128 128-128h896c70.656 0 128 57.344 128 128v576c0 70.656-57.28 128-128 128zM797.056 200.32c-3.456-7.936-7.872-14.784-13.568-20.608s-12.416-10.368-20.352-13.696c-7.936-3.392-16.192-4.992-24.96-4.992-9.152 0-17.6 1.6-25.536 4.992-7.808 3.328-14.656 7.872-20.416 13.696-5.824 5.824-10.432 12.672-13.632 20.608-3.328 8.064-4.8 16.64-4.8 25.92 0 9.024 1.472 17.472 4.8 25.6 3.2 8.128 7.808 15.040 13.632 20.864 5.76 5.76 12.608 10.432 20.416 13.888 7.936 3.584 16.448 5.248 25.536 5.248 8.768 0 17.024-1.664 24.96-5.248 7.936-3.456 14.656-8.128 20.352-13.888 5.696-5.824 10.112-12.736 13.568-20.864 3.328-8.128 5.12-16.64 5.12-25.6 0-9.28-1.792-17.856-5.12-25.92zM911.040 535.232c-6.272-16.128-14.080-30.080-23.488-41.984-9.472-11.904-19.776-22.144-30.72-30.848-11.008-8.64-21.504-16.896-31.36-24.512-9.92-7.68-18.432-15.232-25.6-22.656-7.232-7.36-11.52-15.744-12.864-25.024l-9.856-63.552h-71.488l-7.232 70.912c-0.384 1.408-0.512 2.624-0.512 3.712v3.712c0 12.736 3.136 23.872 9.344 33.344 6.144 9.344 13.952 18.176 23.296 26.432s19.392 16.384 30.080 24.192c10.752 7.872 20.736 16.32 30.144 25.408s17.024 19.52 23.296 31.104c6.272 11.648 9.344 25.28 9.344 40.896 0 10.368-1.856 19.776-5.632 28.032-3.968 8.256-9.28 15.424-16 21.376s-14.848 10.432-24.384 13.696c-9.408 3.2-19.776 4.736-30.72 4.736-16.064 0-29.696-1.792-40.896-5.44-11.136-3.648-20.608-7.616-28.416-12.096s-14.336-8.64-19.648-12.224c-5.568-3.648-10.304-5.44-14.528-5.44-10.112 0-17.472 4.352-22.144 12.992l-27.52 44.8c9.728 8.768 20.224 17.024 31.616 24.832 11.456 7.808 23.872 14.656 37.12 20.416s27.712 10.304 43.328 13.696c15.488 3.328 32.256 4.992 50.368 4.992 24.576 0 46.912-3.456 67.136-10.432 20.224-6.912 37.504-16.96 51.968-29.824s25.536-28.48 33.472-46.72 11.968-38.656 11.968-61.312c-0.064-22.080-3.264-41.088-9.472-57.216z" />
<glyph unicode="&#xe6c5;" glyph-name="linkedin" d="M384 576h177.106v-90.782h2.532c24.64 44.194 84.958 90.782 174.842 90.782 186.946 0 221.52-116.376 221.52-267.734v-308.266h-184.61v273.278c0 65.184-1.334 149.026-96.028 149.026-96.148 0-110.82-70.986-110.82-144.292v-278.012h-184.542v576zM64 576h192v-576h-192v576zM256 736c0-53.019-42.981-96-96-96s-96 42.981-96 96c0 53.019 42.981 96 96 96s96-42.981 96-96z" />
<glyph unicode="&#xe900;" glyph-name="sort2" d="M550.016 298.048l-168.704-170.048v768c0 35.328-28.608 64-64 64s-64-28.672-64-64v-768l-157.504 173.056c-21.312 18.944-55.808 18.944-77.12 0s-21.312-49.536 0-68.48l262.528-283.776c9.92-9.024 23.104-12.8 36.032-12.16 13.056-0.64 26.24 3.2 36.096 12.16l265.024 269.824c19.008 21.888 19.008 57.408 0.128 79.424-18.88 21.952-49.6 21.952-68.48 0zM957.376 64h-256c-17.728 0-64-0.704-64-64.704s46.272-63.296 64-63.296h256c17.6 0 64 3.328 64 63.296s-46.4 64.704-64 64.704zM957.376 320h-192c-17.728 0-64-0.704-64-64.704s46.272-63.296 64-63.296h192c17.6 0 64 3.328 64 63.296s-46.4 64.704-64 64.704zM989.376 768h-160v160c0 17.664-14.4 32-32 32h-64c-17.728 0-32-14.336-32-32v-160h-160c-17.6 0-32-14.336-32-32v-64c0-17.664 14.4-32 32-32h160v-160c0-17.664 14.272-32 32-32h64c17.6 0 32 14.336 32 32v160h160c17.6 0 32 14.336 32 32v64c0 17.664-14.4 32-32 32z" />
<glyph unicode="&#xe901;" glyph-name="copy" d="M640 704v256h-448l-192-192v-576h384v-256h640v768h-384zM192 869.49v-101.49h-101.49l101.49 101.49zM64 256v448h192v192h320v-192l-192-192v-256h-320zM576 613.49v-101.49h-101.49l101.49 101.49zM960 0h-512v448h192v192h320v-640z" />
<glyph unicode="&#xe902;" glyph-name="Drop" d="M0 704h1024l-512-512-512 512z" />
<glyph unicode="&#xe903;" glyph-name="recycle" d="M863.429 356.571q0-2.857-0.571-4-36.571-153.143-153.143-248.286t-273.143-95.143q-83.429 0-161.429 31.429t-139.143 89.714l-73.714-73.714q-10.857-10.857-25.714-10.857t-25.714 10.857-10.857 25.714v256q0 14.857 10.857 25.714t25.714 10.857h256q14.857 0 25.714-10.857t10.857-25.714-10.857-25.714l-78.286-78.286q40.571-37.714 92-58.286t106.857-20.571q76.571 0 142.857 37.143t106.286 102.286q6.286 9.714 30.286 66.857 4.571 13.143 17.143 13.143h109.714q7.429 0 12.857-5.429t5.429-12.857zM877.714 813.714v-256q0-14.857-10.857-25.714t-25.714-10.857h-256q-14.857 0-25.714 10.857t-10.857 25.714 10.857 25.714l78.857 78.857q-84.571 78.286-199.429 78.286-76.571 0-142.857-37.143t-106.286-102.286q-6.286-9.714-30.286-66.857-4.571-13.143-17.143-13.143h-113.714q-7.429 0-12.857 5.429t-5.429 12.857v4q37.143 153.143 154.286 248.286t274.286 95.143q83.429 0 162.286-31.714t140-89.429l74.286 73.714q10.857 10.857 25.714 10.857t25.714-10.857 10.857-25.714z" />
<glyph unicode="&#xe904;" glyph-name="disable" d="M867.021 802.918c-195.686 195.686-514.253 195.686-709.939 0s-195.686-514.253 0-709.939c195.686-195.686 514.15-195.686 709.939 0 195.686 195.686 195.686 514.253 0 709.939zM226.099 733.901c143.565 143.565 368.845 155.955 527.053 38.093l-565.146-565.146c-117.862 158.208-105.472 383.488 38.093 527.053zM797.901 162.099c-143.565-143.565-368.845-155.955-527.053-38.093l565.146 565.146c117.862-158.208 105.574-383.488-38.093-527.053z" />
<glyph unicode="&#xe905;" glyph-name="ProfileAgentListing" d="M177.393 398.421c0 31.653 24.804 56.47 56.47 56.47h14.668l31.597-83.548c1.157-3.416 5.675-6.775 10.208-6.775 4.518 0 8.978 3.359 12.396 6.775l31.609 83.548h12.465c31.597 0 56.47-24.819 56.47-56.47v-158.104h22.545v158.104c0 44.061-35.012 79.089-79.017 79.089h-112.942c-44.076 0-79.086-35.027-79.086-79.089v-158.104h22.616v158.104zM291.437 407.47l-18.098 47.421h36.184l-18.086-47.421zM279.026 341.951h22.56v-22.56h-22.56v22.56zM279.026 296.787h22.56v-22.616h-22.56v22.616zM279.026 488.818h22.545c31.665 0 56.472 24.804 56.472 56.47v33.853c0 31.594-24.807 56.47-56.472 56.47h-22.545c-31.651 0-56.47-24.876-56.47-56.47v-33.853c0-31.665 24.819-56.47 56.47-56.47v0zM245.102 579.143c0 19.186 14.724 33.853 33.925 33.853h22.545c19.257 0 33.925-14.668 33.925-33.853v-33.853c0-19.257-14.668-33.925-33.925-33.925h-22.545c-19.201 0-33.925 14.668-33.925 33.925v33.853zM369.352 227.494v159.619h-22.545v-158.968c7.514-0.219 15.031-0.437 22.545-0.651zM233.865 229.488v157.625h-22.616v-158.337c7.534 0.314 15.073 0.557 22.616 0.712zM630.683 725.919h268.308v-76.726h-268.308v76.726zM630.683 572.705h383.16v-76.729h-383.16v76.729zM630.683 419.249h383.16v-76.535h-383.16v76.535zM630.683 266.032h76.726v-76.535h-76.726v76.535zM784.138 266.032h76.535v-76.535h-76.535v76.535zM937.353 266.032h76.537v-76.535h-76.537v76.535z" />
<glyph unicode="&#xe906;" glyph-name="ProfileAgentShow" d="M232.045 568.14h-131.025c-51.131 0-91.75-40.633-91.75-91.75v-183.419h26.238v183.419c0 36.719 28.775 65.511 65.514 65.511h17.018l36.655-96.926c1.343-3.963 6.584-7.86 11.841-7.86 5.24 0 10.417 3.897 14.38 7.86l36.67 96.926h14.461c36.655 0 65.514-28.792 65.514-65.511v-183.419h26.155v183.419c-0.002 51.117-40.621 91.75-91.671 91.75zM167.811 486.887l-20.996 55.014h41.977l-20.981-55.014zM153.413 410.878h26.172v-26.172h-26.172v26.172zM153.413 358.485h26.172v-26.238h-26.172v26.238zM153.413 581.26h26.155c36.736 0 65.514 28.775 65.514 65.511v39.275c0 36.653-28.778 65.514-65.514 65.514h-26.155c-36.719 0-65.511-28.859-65.511-65.514v-39.275c0-36.736 28.792-65.511 65.511-65.511v0zM114.057 686.047c0 22.258 17.081 39.275 39.356 39.275h26.155c22.339 0 39.356-17.018 39.356-39.275v-39.275c0-22.339-17.018-39.356-39.356-39.356h-26.155c-22.275 0-39.356 17.018-39.356 39.356v39.275zM153.413 279.853h26.155v-193.592h-26.155v193.592zM232.045 463.272h26.155v-377.011h-26.155v377.011zM74.781 463.272h26.238v-377.011h-26.238v377.011zM1000.048 752.541h-638.399c-7.485 0-13.545-6.063-13.545-13.545v-638.404c0-7.47 6.061-13.543 13.545-13.543h542.651c7.482 0 13.545 6.073 13.545 13.543 0 7.485-6.063 13.545-13.545 13.545h-529.106v611.313h611.308v-624.859c0-7.47 6.063-13.543 13.545-13.543 7.475 0 13.545 6.073 13.545 13.543v638.404c0 7.482-6.070 13.545-13.545 13.545v0zM496.655 611.646c-28.63 0-51.907-23.287-51.907-51.907 0-28.635 23.277-51.922 51.907-51.922 28.623 0 51.91 23.287 51.91 51.922 0 28.62-23.287 51.907-51.91 51.907v0zM496.655 534.907c-13.688 0-24.829 11.141-24.829 24.831 0 13.688 11.141 24.829 24.829 24.829 13.69 0 24.831-11.141 24.831-24.829-0.002-13.69-11.144-24.831-24.831-24.831v0zM905.191 573.282h-315.994c-7.482 0-13.545-6.073-13.545-13.543 0-7.485 6.063-13.545 13.545-13.545h315.994c7.475 0 13.545 6.061 13.545 13.545 0 7.47-6.073 13.543-13.545 13.543v0zM496.655 471.712c-7.482 0-13.543-6.070-13.543-13.543 0-7.485 6.061-13.545 13.543-13.545 13.69 0 24.831-11.141 24.831-24.831 0-13.685-11.141-24.831-24.831-24.831-13.688 0-24.829 11.144-24.829 24.831 0 7.482-6.063 13.545-13.545 13.545-7.475 0-13.533-6.063-13.533-13.545 0-28.62 23.277-51.907 51.907-51.907 28.623 0 51.91 23.287 51.91 51.907 0 28.635-23.287 51.92-51.91 51.92v0zM905.191 433.34h-315.994c-7.482 0-13.545-6.063-13.545-13.545 0-7.47 6.063-13.545 13.545-13.545h315.994c7.475 0 13.545 6.075 13.545 13.545 0 7.48-6.073 13.545-13.545 13.545v0zM496.655 331.77c-28.63 0-51.907-23.287-51.907-51.91 0-28.63 23.277-51.92 51.907-51.92 28.623 0 51.91 23.287 51.91 51.92 0 28.62-23.287 51.91-51.91 51.91v0zM496.655 255.031c-13.688 0-24.829 11.131-24.829 24.829 0 13.69 11.141 24.819 24.829 24.819 13.69 0 24.831-11.131 24.831-24.819-0.002-13.7-11.144-24.829-24.831-24.829v0zM905.191 293.393h-315.994c-7.482 0-13.545-6.061-13.545-13.533 0-7.482 6.063-13.543 13.545-13.543h315.994c7.475 0 13.545 6.061 13.545 13.543 0 7.472-6.073 13.533-13.545 13.533v0z" />
<glyph unicode="&#xe907;" glyph-name="PropertyListing" d="M632.677 681.988c8.526 0 15.416 6.91 15.416 15.416v77.117c0 8.504-6.891 15.416-15.416 15.416h-462.649c-8.524 0-15.424-6.91-15.424-15.416v-539.756c0-8.514 6.9-15.424 15.424-15.424 8.536 0 15.426 6.91 15.426 15.424v30.843h15.416c8.533 0 15.424 6.908 15.424 15.424 0 8.506-6.893 15.416-15.424 15.416h-15.416v92.531h61.681v-61.69c0-8.506 6.893-15.416 15.424-15.416 8.526 0 15.419 6.91 15.419 15.416v61.69h61.688c8.526 0 15.416 6.908 15.416 15.416 8.536 0 15.426 6.91 15.426 15.424v92.531h61.681c0-8.514 6.893-15.424 15.424-15.424 8.526 0 15.419 6.91 15.419 15.424 8.533 0 15.424 6.91 15.424 15.416 0 8.516-6.893 15.426-15.424 15.426v92.528h61.69v-30.85c0-8.506 6.893-15.416 15.416-15.416 8.536 0 15.424 6.91 15.424 15.416v30.85h30.843c8.531 0 15.424 6.91 15.424 15.426 0 8.506-6.893 15.416-15.424 15.416h-30.843v92.531h61.683v-61.69c0.007-8.506 6.898-15.416 15.431-15.416zM247.135 419.819h-61.681v92.531h61.681v-92.531zM247.135 543.193h-61.681v92.528h61.681v-92.528zM247.135 666.564h-61.681v92.531h61.681v-92.531zM339.666 419.819h-61.683v92.531h61.683v-92.531zM339.666 543.193h-61.683v92.528h61.683v-92.528zM339.666 666.564h-61.683v92.531h61.683v-92.531zM432.199 543.193h-61.69v92.528h61.69v-92.528zM432.199 666.564h-61.69v92.531h61.69v-92.531zM524.73 666.564h-61.69v92.531h61.69v-92.531zM108.348 157.658c8.524 0 15.416 6.91 15.416 15.419v647.708h107.947c8.533 0 15.424 6.9 15.424 15.419v46.264h107.947c8.536 0 15.426 6.91 15.426 15.424v15.416h61.681v-15.416c0-8.514 6.893-15.424 15.424-15.424h107.947v-30.84h-262.159c-8.526 0-15.416-6.91-15.416-15.424 0-8.506 6.893-15.419 15.416-15.419h385.542v-61.69c0-8.506 6.891-15.416 15.416-15.416 8.533 0 15.424 6.908 15.424 15.416v77.107c0 8.514-6.893 15.424-15.424 15.424h-107.947v46.264c0 8.506-6.893 15.416-15.424 15.416h-107.95v15.424c0 8.506-6.891 15.416-15.416 15.416h-92.531c-8.533 0-15.424-6.91-15.424-15.416v-15.424h-107.947c-8.533 0-15.424-6.908-15.424-15.416v-46.264h-107.947c-8.533 0-15.424-6.91-15.424-15.424v-663.127c-0.002-8.506 6.888-15.416 15.421-15.416zM703.459 443.469l-24.652-24.468c-13.106 13.562-31.346 21.349-50.498 21.349-38.765 0-70.288-31.523-70.288-70.288s31.525-70.288 70.288-70.288c31.253 0 58.285 20.067 67.358 49.945 1.834 5.955-1.557 12.19-7.512 14.019-5.962 1.741-12.19-1.557-14.024-7.514-6.051-19.979-24.922-33.998-45.822-33.998-26.393 0-47.833 21.443-47.833 47.836s21.443 47.841 47.833 47.841c13.108 0 25.568-5.501 34.551-14.847l-32.898-32.714-18.879 18.97c-4.398 4.398-11.456 4.398-15.854 0.093-4.491-4.403-4.491-11.456-0.093-15.858l26.764-26.941c2.107-2.107 4.943-3.298 7.969-3.298 2.934 0 5.778 1.191 7.885 3.298l81.466 81.014c4.398 4.398 4.398 11.456 0.093 15.854-4.398 4.393-11.453 4.393-15.854-0.005zM628.311 290.424c-38.765 0-70.288-31.525-70.288-70.29s31.525-70.288 70.288-70.288c38.765 0 70.29 31.523 70.29 70.288 0 38.767-31.525 70.29-70.29 70.29zM628.311 172.296c-26.393 0-47.833 21.448-47.833 47.841 0 26.391 21.443 47.841 47.833 47.841s47.841-21.448 47.841-47.841c-0.002-26.393-21.45-47.841-47.841-47.841zM628.311 140.405c-38.765 0-70.288-31.525-70.288-70.29s31.525-70.288 70.288-70.288c38.765 0 70.29 31.523 70.29 70.288s-31.525 70.29-70.29 70.29zM628.311 22.185c-26.393 0-47.833 21.443-47.833 47.841 0 26.391 21.443 47.836 47.833 47.836s47.841-21.443 47.841-47.836c-0.002-26.396-21.45-47.841-47.841-47.841zM952.818 231.408h-218.385c-6.232 0-11.271-5.039-11.271-11.271s5.039-11.271 11.271-11.271h218.385c6.227 0 11.271 5.039 11.271 11.271s-5.044 11.271-11.271 11.271zM952.818 381.244h-218.385c-6.232 0-11.271-5.044-11.271-11.271 0-6.232 5.039-11.271 11.271-11.271h218.385c6.227 0 11.271 5.039 11.271 11.271 0 6.227-5.044 11.271-11.271 11.271zM952.818 81.297h-218.385c-6.232 0-11.271-5.041-11.271-11.271 0-6.232 5.039-11.271 11.271-11.271h218.385c6.227 0 11.271 5.039 11.271 11.271 0 6.323-5.044 11.271-11.271 11.271zM1004.932 940.136c-6.488 6.488-16.988 6.488-23.476 0l-962.914-962.916c-6.488-6.488-6.488-16.986 0-23.473 3.239-3.239 7.495-4.865 11.74-4.865s8.501 1.626 11.74 4.865l962.906 962.904c6.49 6.5 6.49 16.988 0.002 23.486z" />
<glyph unicode="&#xe908;" glyph-name="PropertyShow" d="M1011.864 436.083v144.261c0 9.486-7.686 17.175-17.175 17.175h-51.008c-9.489 0-17.175-7.689-17.175-17.175s7.686-17.175 17.175-17.175h33.834v-90.642c12.32-11.289 23.8-23.471 34.349-36.444zM191.498 497.442c9.484 0 17.175 7.686 17.175 17.175 0 9.486-7.689 17.175-17.175 17.175h-86.63c-9.486 0-17.175-7.686-17.175-17.175v-113.831c0-9.486 7.689-17.175 17.175-17.175h119.42c9.484 0 17.175 7.689 17.175 17.175v30.713c0 9.489-7.689 17.175-17.175 17.175s-17.175-7.689-17.175-17.175v-13.535h-85.071v79.479h69.455zM512.361 495.6c0 9.486-7.689 17.175-17.175 17.175h-189.411c-9.484 0-17.175-7.689-17.175-17.175s7.689-17.175 17.175-17.175h189.411c9.484 0.002 17.175 7.689 17.175 17.175zM305.776 74.132h134.107c-5.331 11.126-10.061 22.594-14.181 34.349h-119.926c-9.484 0-17.175-7.686-17.175-17.175s7.691-17.175 17.175-17.175zM288.601 419.804c0-9.486 7.689-17.175 17.175-17.175h153.084c7.544 11.971 15.802 23.444 24.733 34.349h-177.817c-9.484 0-17.175-7.689-17.175-17.175zM33.212 317.883h387.305c3.462 11.726 7.531 23.191 12.185 34.352h-382.315v210.934h636.886c9.486 0 17.175 7.689 17.175 17.175s-7.686 17.175-17.175 17.175h-654.061c-9.486 0-17.175-7.691-17.175-17.175v-245.281c0-9.489 7.691-17.18 17.175-17.18zM33.212 648.522h961.477c9.486 0 17.175 7.689 17.175 17.175v245.284c0 9.486-7.686 17.175-17.175 17.175h-51.008c-9.489 0-17.175-7.689-17.175-17.175s7.686-17.175 17.175-17.175h33.834v-210.932h-927.128v210.932h636.886c9.486 0 17.175 7.686 17.175 17.175s-7.686 17.175-17.175 17.175h-654.061c-9.486 0-17.175-7.689-17.175-17.175v-245.281c0-9.486 7.691-17.177 17.175-17.177zM305.776 733.269h378.819c9.486 0 17.175 7.686 17.175 17.175s-7.686 17.175-17.175 17.175h-378.819c-9.484 0-17.175-7.689-17.175-17.175s7.691-17.175 17.175-17.175zM305.776 809.064h189.411c9.486 0 17.175 7.686 17.175 17.175 0 9.486-7.689 17.175-17.175 17.175h-189.411c-9.484 0-17.175-7.686-17.175-17.175 0-9.486 7.691-17.175 17.175-17.175zM191.498 828.081c9.484 0 17.175 7.689 17.175 17.175s-7.689 17.175-17.175 17.175h-86.63c-9.486 0-17.175-7.689-17.175-17.175v-113.831c0-9.486 7.689-17.175 17.175-17.175h119.42c9.484 0 17.175 7.686 17.175 17.175v30.713c0 9.486-7.689 17.175-17.175 17.175s-17.175-7.689-17.175-17.175v-13.535h-85.071v79.479h69.455zM257.856 857.755c-6.905 6.505-17.771 6.183-24.279-0.72l-57.047-60.534-17.634 19.21c-6.414 6.991-17.28 7.45-24.267 1.039-6.986-6.417-7.45-17.28-1.039-24.267l30.123-32.812c3.227-3.514 7.77-5.53 12.541-5.562 0.039 0 0.076 0 0.113 0 4.73 0 9.253 1.95 12.499 5.395l69.711 73.971c6.503 6.903 6.181 17.774-0.722 24.279zM305.776 149.93h108.301c-2.397 11.254-4.238 22.712-5.493 34.349h-102.808c-9.484 0-17.175-7.689-17.175-17.175 0-9.489 7.691-17.175 17.175-17.175zM257.856 198.618c-6.905 6.505-17.771 6.183-24.279-0.72l-57.047-60.534-17.634 19.21c-6.414 6.991-17.28 7.45-24.267 1.039-6.986-6.417-7.45-17.28-1.039-24.267l30.123-32.812c3.227-3.514 7.77-5.53 12.541-5.562 0.039 0 0.076 0 0.113 0 4.73 0 9.253 1.95 12.499 5.395l69.711 73.971c6.503 6.903 6.181 17.776-0.722 24.279zM257.856 527.116c-6.905 6.505-17.771 6.183-24.279-0.72l-57.047-60.534-17.634 19.21c-6.414 6.991-17.28 7.45-24.267 1.039-6.986-6.417-7.45-17.28-1.039-24.267l30.123-32.812c3.227-3.516 7.77-5.53 12.541-5.562 0.039 0 0.076 0 0.113 0 4.73 0 9.253 1.952 12.499 5.395l69.711 73.971c6.503 6.903 6.181 17.776-0.722 24.279zM191.498 168.944c9.484 0 17.175 7.686 17.175 17.175s-7.689 17.175-17.175 17.175h-86.63c-9.486 0-17.175-7.686-17.175-17.175v-113.831c0-9.486 7.689-17.175 17.175-17.175h119.42c9.484 0 17.175 7.689 17.175 17.175v30.713c0 9.486-7.689 17.175-17.175 17.175s-17.175-7.686-17.175-17.175v-13.535h-85.071v79.479h69.455zM50.387 23.737v210.932h356.487c0.452 11.608 1.481 23.066 3.065 34.349h-376.726c-9.486 0-17.175-7.689-17.175-17.175v-245.281c0-9.489 7.689-17.177 17.175-17.177h464.41c-10.053 10.824-19.427 22.29-28.016 34.352h-419.219zM749.295 488.403c-148.784 0-269.828-121.043-269.828-269.825 0-148.784 121.043-269.83 269.828-269.83 148.782 0 269.828 121.046 269.828 269.83 0 148.78-121.046 269.825-269.828 269.825zM749.295-23.843c-133.673 0-242.42 108.748-242.42 242.42 0 133.67 108.75 242.418 242.42 242.418s242.418-108.75 242.418-242.418c0-133.673-108.75-242.42-242.418-242.42zM857.25 222.995c-4.339 0-7.851-3.516-7.851-7.846v-133.427h-54.94c-4.337 0-7.846-3.516-7.846-7.846 0-4.334 3.507-7.851 7.846-7.851h62.788c4.342 0 7.851 3.516 7.851 7.851v141.273c0.002 4.329-3.509 7.846-7.848 7.846zM684.587 81.722h-54.94v133.427c0 4.329-3.512 7.846-7.851 7.846-4.337 0-7.851-3.516-7.851-7.846v-141.273c0-4.334 3.507-7.851 7.851-7.851h62.788c4.337 0 7.846 3.516 7.846 7.851 0.002 4.329-3.507 7.846-7.843 7.846zM818.004 152.361v62.788c0 4.329-3.507 7.846-7.851 7.846h-47.087c-4.342 0-7.851-3.516-7.851-7.846v-62.788c0-4.334 3.507-7.851 7.851-7.851h47.087c4.344 0 7.851 3.516 7.851 7.851zM802.31 160.212h-31.398v47.087h31.398v-47.087zM888.64 364.27h-54.937v7.846c0 4.334-3.507 7.851-7.846 7.851h-31.398c-4.337 0-7.846-3.516-7.846-7.851v-15.696c0-4.334 3.507-7.851 7.846-7.851 4.344 0 7.851 3.516 7.851 7.851v7.846h15.696v-7.846c0-4.334 3.507-7.851 7.851-7.851h54.937v-106.629l-120.029 120.024c-3.067 3.072-8.025 3.072-11.097 0-3.067-3.067-3.067-8.025 0-11.097l133.427-133.422c1.5-1.5 3.507-2.298 5.545-2.298 1.014 0 2.036 0.194 3.011 0.597 2.932 1.216 4.843 4.076 4.843 7.251v133.422c0 4.339-3.509 7.853-7.853 7.853zM731.671 222.995h-47.092c-4.339 0-7.846-3.516-7.846-7.846v-94.186c0-4.329 3.507-7.846 7.846-7.846 4.342 0 7.851 3.516 7.851 7.846v86.335h31.39v-31.393h-7.846c-4.342 0-7.851-3.516-7.851-7.851 0-4.329 3.507-7.846 7.851-7.846h7.846v-39.244c0.005-4.334 3.512-7.851 7.851-7.851 4.342 0 7.851 3.516 7.851 7.846v94.186c0 4.332-3.509 7.848-7.851 7.848zM736.737 368.13c-3.072 3.072-8.030 3.072-11.097 0l-135.725-135.568v-3.401c0-3.175 1.91-6.036 4.84-7.251 0.975-0.405 1.994-0.597 3.011-0.597 2.038 0 4.047 0.798 5.547 2.298l133.427 133.422c3.065 3.072 3.065 8.030-0.002 11.097z" />
<glyph unicode="&#xe909;" glyph-name="SavedSearches" d="M848.032 949.726h-674.787c-55.817 0-101.216-45.427-101.216-101.216v-729.822c0-55.802 45.402-101.221 101.216-101.221h638.838l-48.663 50.608h-82.956c-32.628-11.291-67.122-17.116-102.407-17.116-35.781 0-70.177 6.036-102.243 17.116h-81.159v42.21c-18.479 13.351-35.447 28.662-50.608 45.628v-87.838h-170.802c-27.918 0-50.608 22.705-50.608 50.611v729.825c0 27.894 22.7 50.608 50.608 50.608h95.834v-343.926c0-13.975 11.333-25.318 25.305-25.318h16.75c11.279 18.184 24.353 35.14 38.988 50.608h-30.435v318.636h381.905v-245.652c17.776-7.637 34.71-16.865 50.62-27.513v273.165h95.821c27.921 0 50.608-22.715 50.608-50.608v-729.822c0-1.009-0.093-1.994-0.152-2.989l40.25-41.856c6.714 13.526 10.51 28.748 10.51 44.842v729.825c0 55.79-45.402 101.216-101.219 101.216zM615.667 676.544c16.831-2.019 33.257-5.363 49.169-9.943-4.622 6.036-11.878 9.943-20.070 9.943h-29.099zM376.523 625.935h27.395c40.005 26.779 86.478 44.604 136.538 50.608h-163.933c-13.973 0-25.305-11.32-25.305-25.305 0.002-13.958 11.335-25.303 25.305-25.303zM376.523 803.068h268.241c13.975 0 25.291 11.328 25.291 25.305 0 13.985-11.316 25.305-25.291 25.305h-268.241c-13.973 0-25.305-11.32-25.305-25.305 0.002-13.975 11.335-25.305 25.305-25.305zM376.523 714.493h268.241c13.975 0 25.291 11.345 25.291 25.305 0 14.002-11.316 25.308-25.291 25.308h-268.241c-13.973 0-25.305-11.306-25.305-25.308 0.002-13.958 11.335-25.305 25.305-25.305zM965.593 5.679l-168.57 175.3c43.354 51.561 67.108 116.414 67.108 183.927 0 157.703-128.307 286.010-286.072 286.010-157.686 0-285.993-128.307-285.993-286.010 0-157.75 128.307-286.057 285.993-286.057 59.21 0 115.685 17.845 163.889 51.794l169.905-176.7c7.104-7.414 16.634-11.473 26.909-11.473 9.653 0 18.81 3.701 25.804 10.432 14.876 14.272 15.296 37.9 1.026 52.777v0zM578.059 576.285c116.586 0 211.442-94.856 211.442-211.379 0-116.586-94.856-211.425-211.442-211.425-116.525 0-211.364 94.839-211.364 211.425 0 116.522 94.839 211.379 211.364 211.379v0z" />
<glyph unicode="&#xe90a;" glyph-name="WPL_AgentWidget" d="M368.139 519.555c0 40.403 31.661 72.080 72.080 72.080h18.722l40.331-106.643c1.478-4.361 7.244-8.649 13.030-8.649 5.766 0 11.46 4.29 15.822 8.649l40.349 106.643h15.913c40.329 0 72.080-31.68 72.080-72.080v-201.809h28.778v201.809c0 56.241-44.69 100.951-100.86 100.951h-144.163c-56.259 0-100.949-44.71-100.949-100.951v-201.809h28.868v201.809zM513.707 531.106l-23.103 60.531h46.186l-23.083-60.531zM497.865 447.474h28.797v-28.797h-28.797v28.797zM497.865 389.826h28.797v-28.868h-28.797v28.868zM497.865 634.94h28.778c40.42 0 72.083 31.661 72.083 72.080v43.212c0 40.329-31.663 72.080-72.083 72.080h-28.778c-40.4 0-72.080-31.751-72.080-72.080v-43.212c0-40.42 31.68-72.080 72.080-72.080v0zM454.563 750.232c0 24.49 18.795 43.212 43.303 43.212h28.778c24.581 0 43.303-18.724 43.303-43.212v-43.212c0-24.581-18.724-43.303-43.303-43.303h-28.778c-24.507 0-43.303 18.724-43.303 43.303v43.212zM613.16 301.379v203.742h-28.778v-202.912c9.592-0.28 19.186-0.56 28.778-0.83zM440.219 303.923v201.198h-28.868v-202.106c9.619 0.4 19.24 0.71 28.868 0.909z" />
<glyph unicode="&#xe90b;" glyph-name="WPL_Carousel" d="M66.801 483.882c-5.054 5.054-13.248 5.054-18.304 0l-25.885-25.885c-5.054-5.054-5.054-13.248 0-18.304l25.885-25.885c5.054-5.054 13.251-5.054 18.304 0s5.054 13.248 0 18.304l-16.733 16.733 16.733 16.733c5.054 5.056 5.054 13.251 0 18.304zM1007.034 457.997l-25.885 25.885c-5.054 5.054-13.248 5.054-18.304 0-5.054-5.054-5.054-13.248 0-18.304l16.733-16.733-16.733-16.733c-5.054-5.054-5.054-13.248 0-18.304s13.248-5.054 18.304 0l25.885 25.885c5.054 5.054 5.054 13.251 0 18.304zM339.163 578.912h-194.147c-18.194 0-32.994-14.8-32.994-32.994v-194.147c0-18.191 14.8-32.994 32.994-32.994h194.147c18.194 0 32.994 14.8 32.994 32.994v194.147c0 18.194-14.8 32.994-32.994 32.994zM350.547 351.771c0-6.279-5.108-11.387-11.384-11.387h-194.147c-6.279 0-11.384 5.108-11.384 11.387v194.147c0 6.279 5.108 11.384 11.384 11.384h194.147c6.279 0 11.384-5.108 11.384-11.384v-194.147zM613.742 578.912h-194.147c-18.194 0-32.994-14.8-32.994-32.994v-194.147c0-18.191 14.8-32.994 32.994-32.994h194.147c18.191 0 32.994 14.8 32.994 32.994v194.147c0 18.194-14.803 32.994-32.994 32.994zM625.129 351.771c0-6.279-5.108-11.387-11.387-11.387h-194.147c-6.279 0-11.384 5.108-11.384 11.387v194.147c0 6.279 5.108 11.384 11.384 11.384h194.147c6.279 0 11.387-5.108 11.387-11.384v-194.147zM890.021 578.912h-194.147c-18.191 0-32.994-14.8-32.994-32.994v-194.147c0-18.191 14.8-32.994 32.994-32.994h194.147c18.191 0 32.994 14.8 32.994 32.994v194.147c0 18.194-14.803 32.994-32.994 32.994zM901.407 351.771c0-6.279-5.108-11.387-11.387-11.387h-194.147c-6.279 0-11.387 5.108-11.387 11.387v194.147c0 6.279 5.108 11.384 11.387 11.384h194.147c6.279 0 11.387-5.108 11.387-11.384v-194.147zM485.167 177.404c0-10.939-8.868-19.807-19.807-19.807s-19.807 8.868-19.807 19.807c0 10.939 8.868 19.807 19.807 19.807s19.807-8.868 19.807-19.807zM544.586 177.404c0-10.939-8.868-19.807-19.807-19.807s-19.807 8.868-19.807 19.807c0 10.939 8.868 19.807 19.807 19.807s19.807-8.868 19.807-19.807zM604.008 177.404c0-10.939-8.868-19.807-19.807-19.807s-19.807 8.868-19.807 19.807c0 10.939 8.868 19.807 19.807 19.807s19.807-8.868 19.807-19.807z" />
<glyph unicode="&#xe90c;" glyph-name="WPL_FavoriteWidget" d="M1017.883 326.738c0 62.304-23.847 119.14-62.886 161.871l12.671 10.336c25.426 21.801 34.512 55.308 23.82 87.197-10.495 31.489-38.553 53.081-70.85 54.893l-241.603 17.356c-5.046 0.403-9.481 3.438-11.293 8.278l-92.040 224.040c-12.723 30.875-41.382 50.056-74.882 50.056-33.507 0-61.968-19.179-74.88-50.262l-92.246-224.236c-2.021-4.641-6.257-7.873-11.303-8.268l-241.188-17.366c-32.699-1.815-60.551-23.208-71.253-54.697-10.898-31.891-1.815-65.389 24.016-87.396l186.697-154.194c3.846-3.234 5.66-8.487 4.445-13.327l-56.912-232.919c-6.662-24.225-2.021-49.248 12.713-68.829 15.137-19.78 38.75-31.685 63.576-31.685 15.345 0 30.276 4.641 42.586 12.919l204.063 126.956c4.236 2.623 9.685 2.623 13.923 0l206.074-126.554c12.919-8.681 27.852-13.324 42.988-13.324 23.208 0 46.22 11.099 61.15 29.873 14.589 18.189 20.468 41.535 16.453 65.197-0.022-0.005-0.044-0.010-0.066-0.015 106.545 24.566 186.226 120.203 186.226 234.101zM776.926 58.335c-5.646-7.057-14.122-11.5-22.599-11.5-5.253 0-10.495 1.616-16.151 5.449l-206.882 127.15c-9.886 6.063-21.19 9.295-32.896 9.295-11.708 0-23.211-3.232-33.107-9.491l-204.861-127.359c-13.116-8.683-30.678-4.84-39.963 7.264-3.833 5.046-7.875 13.727-4.236 26.44l57.121 233.727c5.648 23.208-2.632 48.035-20.991 63.171l-186.294 154.008c-14.734 12.713-10.702 29.062-9.086 33.704 1.616 4.644 8.278 20.183 27.655 21.19l241.59 17.352c23.822 1.825 44.41 16.558 53.494 38.762l92.236 224.236c7.47 18.162 24.225 19.571 29.065 19.571 4.847 0 21.59-1.407 29.062-19.571l92.246-224.236c9.076-22.204 29.662-36.938 53.484-38.762l241.996-17.553c18.97-1.014 25.632-16.556 27.25-21.197 1.211-4.238 5.253-20.588-8.88-32.896l-18.616-15.198c-39.425 28.343-87.742 45.056-139.895 45.056-132.455 0-240.218-107.761-240.218-240.215s107.763-240.218 240.218-240.218c1.729 0 3.453 0.029 5.174 0.066l0.147-0.597c3.025-13.712-2.426-23.203-6.063-27.648zM777.668 120.593c-113.669 0-206.146 92.477-206.146 206.146s92.477 206.146 206.146 206.146 206.143-92.477 206.143-206.146-92.474-206.146-206.143-206.146zM719.703 317.368l-17.091 55.853h-22.646l-17.226-55.853-19.176 55.853h-23.478l33.9-97.118h16.116l21.118 67.523 21.258-67.523h16.116l33.9 97.118h-23.481zM840.923 364.538c-6.807 5.785-17.668 8.683-32.581 8.683h-34.318v-97.118h21.673v27.093h12.922c14.356 0 25.028 2.777 32.024 8.337 6.994 5.557 10.488 14.331 10.488 26.329 0.002 11.991-3.399 20.883-10.208 26.676zM825.015 326.328c-2.596-2.917-7.502-4.376-14.726-4.376h-14.586v32.65h12.364c7.131 0 12.386-1.179 15.77-3.541 3.379-2.362 5.068-6.345 5.068-11.949s-1.299-9.864-3.89-12.784zM889.758 295.414v77.807h-21.673v-97.118h63.075v19.311z" />
<glyph unicode="&#xe90d;" glyph-name="Agent" d="M853.333 960h-682.667c-53.861 0-97.524-43.663-97.524-97.524v0-682.667c0-53.861 43.663-97.524 97.524-97.524v0h195.048l146.286-146.286 146.286 146.286h195.048c53.794 0.166 97.358 43.73 97.524 97.508v682.683c-0.166 53.794-43.73 97.358-97.508 97.524h-0.016zM512 799.086c72.712 0 131.657-58.945 131.657-131.657s-58.945-131.657-131.657-131.657c-72.712 0-131.657 58.945-131.657 131.657v0c0 72.712 58.945 131.657 131.657 131.657v0zM804.571 277.333h-585.143v43.886c0 97.524 195.048 151.162 292.571 151.162s292.571-53.638 292.571-151.162v-43.886z" />
<glyph unicode="&#xe90e;" glyph-name="WPL_SearchWidget" d="M773.476 294.331c108.134 108.134 108.134 284.088 0 392.221-108.124 108.124-284.075 108.124-392.209 0-91.728-91.738-105.629-228.18-41.714-334.713 0 0 4.59-7.708-1.613-13.901l-141.494-141.494c-28.159-28.169-34.865-67.55-9.891-92.523l4.302-4.302c24.974-24.974 64.352-18.267 92.523 9.891l141.194 141.201c6.493 6.495 14.201 1.906 14.201 1.906 106.533-63.918 242.973-50.026 334.701 41.714v0zM432.477 345.539c-79.901 79.901-79.901 209.903 0 289.804 79.901 79.894 209.903 79.894 289.807 0 79.889-79.901 79.889-209.903 0-289.804-79.906-79.904-209.905-79.904-289.807 0v0zM450.17 506.901c-3.718 0-7.492 0.729-11.136 2.269-14.559 6.159-21.374 22.953-15.215 37.51 38.728 91.514 144.669 134.451 236.171 95.726 14.557-6.159 21.371-22.953 15.213-37.51-6.171-14.557-22.953-21.364-37.522-15.213-62.43 26.425-134.721-2.88-161.136-65.315-4.622-10.91-15.213-17.467-26.374-17.467v0z" />
<glyph unicode="&#xe90f;" glyph-name="WPL_SummaryWidget" d="M958.567 615.663h-721.701c-13.749 0-24.898-11.149-24.898-24.898 0-13.729 11.149-24.878 24.898-24.878h721.701c13.747 0 24.898 11.149 24.898 24.878 0.002 13.749-11.151 24.898-24.898 24.898v0zM62.656 466.331h49.778c13.729 0 24.878 11.153 24.878 24.898 0 13.747-11.149 24.878-24.878 24.878h-49.778c-13.747 0-24.898-11.134-24.898-24.878-0.002-13.744 11.151-24.898 24.898-24.898v0zM958.567 516.11h-721.701c-13.749 0-24.898-11.134-24.898-24.878 0-13.747 11.149-24.898 24.898-24.898h721.701c13.747 0 24.898 11.153 24.898 24.898 0.002 13.744-11.151 24.878-24.898 24.878v0zM659.923 366.797h-597.267c-13.747 0-24.898-11.149-24.898-24.898 0-13.729 11.153-24.878 24.898-24.878h597.269c13.749 0 24.898 11.149 24.898 24.878 0 13.749-11.149 24.898-24.9 24.898v0zM560.388 167.709h-497.733c-13.747 0-24.898-11.153-24.898-24.898s11.153-24.878 24.898-24.878h497.733c13.747 0 24.878 11.134 24.878 24.878s-11.131 24.898-24.878 24.898v0zM62.656 217.465h398.179c13.747 0 24.898 11.153 24.898 24.898 0 13.747-11.153 24.878-24.898 24.878h-398.179c-13.747 0-24.898-11.134-24.898-24.878-0.002-13.744 11.151-24.898 24.898-24.898v0zM336.4 68.152h-273.744c-13.747 0-24.898-11.149-24.898-24.878 0-13.749 11.153-24.898 24.898-24.898h273.747c13.747 0 24.898 11.149 24.898 24.898 0 13.729-11.153 24.878-24.9 24.878v0zM958.567 68.152h-99.534c-13.749 0-24.898-11.149-24.898-24.878 0-13.749 11.149-24.898 24.898-24.898h99.534c13.747 0 24.898 11.149 24.898 24.898 0.002 13.729-11.151 24.878-24.898 24.878v0zM958.567 167.709h-49.778c-13.729 0-24.878-11.153-24.878-24.898s11.149-24.878 24.878-24.878h49.778c13.747 0 24.898 11.134 24.898 24.878s-11.151 24.898-24.898 24.898v0zM341.071 766.518l27.621 89.54h36.307l27.398-89.54 30.958 89.54h37.645l-54.348-155.695h-25.836l-34.079 108.252-33.856-108.252h-25.838l-54.348 155.695h37.642l30.735-89.54zM626.732 842.139c10.915-9.282 16.372-23.537 16.372-42.767 0-19.233-5.606-33.301-16.816-42.207-11.212-8.909-28.326-13.364-51.342-13.364h-20.716v-43.435h-34.745v155.695h55.016c23.906 0 41.316-4.644 52.231-13.921zM601.228 780.886c4.155 4.678 6.237 11.505 6.237 20.492 0 8.983-2.711 15.37-8.131 19.154-5.422 3.787-13.85 5.68-25.281 5.68h-19.824v-52.342h23.387c11.583 0 19.454 2.338 23.611 7.016zM670.276 700.366v155.695h34.745v-124.734h66.376v-30.961h-101.121z" />
<glyph unicode="&#xe910;" glyph-name="WPL_TagsWidget" d="M693.155 663.71c0 32.044-26.040 58.157-58.154 58.157-32.024 0-58.137-26.113-58.137-58.157 0-32.098 26.113-58.137 58.137-58.137 32.115 0 58.154 26.040 58.154 58.137v0zM606.446 663.71c0 15.736 12.836 28.571 28.625 28.571 15.736 0 28.571-12.836 28.571-28.571 0-15.79-12.836-28.625-28.571-28.625-15.79 0.056-28.625 12.836-28.625 28.625v0zM677.421 854.82h-206.9l-462.35-461.129 371.302-372.169 113.986 109.146-354.717 351.539 343.968 343.025h182.52l146.876-146.508v-190.535h29.585v202.799l-164.272 163.833zM451.113 131.036l-71.12-68.11-330.045 330.688 67.888 67.741 333.276-330.32zM514.458 313.822l31.651 102.611h41.606l31.395-102.611 35.481 102.611h43.136l-62.28-178.422h-29.613l-39.052 124.054-38.799-124.054h-29.61l-62.282 178.422h43.138l35.229-102.611zM841.819 400.479c12.507-10.635 18.761-26.97 18.761-49.007 0-22.042-6.424-38.161-19.272-48.371-12.85-10.208-32.461-15.313-58.835-15.313h-23.739v-49.776h-39.821v178.422h63.048c27.395 0.002 47.347-5.319 59.856-15.954zM812.589 330.284c4.761 5.361 7.148 13.184 7.148 23.483 0 10.292-3.109 17.612-9.317 21.951-6.213 4.339-15.871 6.507-28.972 6.507h-22.717v-59.986h26.801c13.275 0.005 22.292 2.686 27.056 8.045zM891.717 238.011v178.422h39.821v-142.943h76.066v-35.479h-115.886z" />
<glyph unicode="&#xe911;" glyph-name="WPL_Unit_Switcher_Widget" d="M398.653 404.994c-13.715 12.104-33.394 21.29-62.265 27.262h-1.459v69.848c19.684-3.060 36.454-9.034 53.079-21.288l24.35 33.392c-24.35 16.767-50.159 25.809-77.429 27.27v18.228h-22.749v-18.228c-22.747-1.461-42.578-9.042-57.744-22.747-15.166-13.707-22.747-31.933-22.747-53.081 0-21.138 6.122-37.905 19.687-48.55 12.104-10.645 33.392-19.687 60.654-25.809v-71.309c-21.29 3.062-42.578 13.707-63.716 31.933l-27.27-31.933c27.27-24.35 57.744-37.913 91.136-40.975v-27.27h22.749v27.27c25.809 1.461 45.498 9.042 60.662 22.747 15.159 13.707 22.739 31.933 22.739 53.081 0.002 22.739-6.119 39.514-19.677 50.159zM312.030 435.326c-15.159 4.663-24.2 9.184-28.724 13.705-4.521 4.523-7.583 12.104-7.583 19.679 0 9.042 3.062 15.166 9.042 21.298 7.583 6.122 15.166 9.034 27.262 10.645v-65.327zM363.65 327.566c-7.583-6.124-16.767-9.042-27.262-10.645v66.928c15.166-4.523 24.353-9.042 30.325-13.707 4.523-6.122 7.583-12.104 7.583-21.29 0-9.184-3.060-15.164-10.645-21.285zM714.632 707.767h-402.798c-166.477 0-301.994-135.519-301.994-301.994 0-166.58 135.517-302.1 301.994-302.1h402.798c166.477 0 301.994 135.517 301.994 302.1 0.002 166.475-135.517 301.994-301.994 301.994zM714.632 137.276h-402.798c-147.957 0-268.394 120.437-268.394 268.497 0 147.957 120.437 268.394 268.394 268.394h402.798c147.957 0 268.394-120.437 268.394-268.394 0-148.060-120.437-268.497-268.394-268.497zM714.632 623.868c-120.289 0-218.2-97.825-218.2-218.095 0-120.289 97.911-218.2 218.2-218.2 120.27 0 218.095 97.911 218.095 218.2 0.002 120.27-97.825 218.095-218.095 218.095zM714.632 221.173c-101.852 0-184.597 82.745-184.597 184.597 0 101.749 82.745 184.494 184.597 184.494 101.749 0 184.494-82.745 184.494-184.494 0-101.85-82.745-184.597-184.494-184.597z" />
<glyph unicode="&#xe912;" glyph-name="WPL_UserLinksWidget" d="M972.856 716.701c-2.252 28.338-15.362 54.073-36.911 72.503l-137.351 117.18c-21.551 18.43-49.029 27.336-77.37 25.087-28.259-2.264-54.073-15.36-72.508-36.93l-257.775-302.011c-18.444-21.629-27.351-49.108-25.165-77.355 2.247-28.36 15.36-54.073 37.009-72.522l106.771-91.256c2.289-1.874 4.867-3.065 7.573-3.566 5.393-0.997 11.254 0.879 15.105 5.353 5.803 6.748 4.975 16.951-1.788 22.678l-106.791 91.261c-15.087 12.843-24.281 30.823-25.814 50.574-1.547 19.67 4.641 38.87 17.563 53.943l257.783 302.028c12.843 15.087 30.808 24.203 50.574 25.814 19.751 1.532 38.934-4.734 54.041-17.582l137.253-117.161c15.009-12.828 24.222-30.813 25.755-50.564 1.594-19.76-4.656-38.949-17.521-54.053l-132.83-155.577c-5.805-6.748-4.963-16.873 1.802-22.599 6.67-5.79 16.873-4.963 22.658 1.79l132.757 155.508c18.447 21.651 27.452 49.113 25.18 77.458v0zM653.467 453.385l-125.11 106.845c-6.763 5.724-16.951 4.975-22.678-1.788-5.8-6.731-4.96-16.873 1.79-22.658l125.124-106.869c31.145-26.518 34.833-73.465 8.246-104.536l-257.773-302.009c-12.924-15.092-30.813-24.22-50.579-25.833-19.751-1.532-38.949 4.656-54.022 17.577l-137.27 117.185c-31.054 26.563-34.833 73.468-8.236 104.595l132.838 155.513c5.704 6.768 4.955 16.956-1.788 22.678-6.753 5.783-16.956 4.955-22.678-1.788l-132.852-155.592c-38.013-44.582-32.741-111.781 11.846-149.877l137.331-117.176c14.324-12.232 31.331-20.323 49.461-23.68 9.027-1.67 18.422-2.225 27.903-1.427 28.269 2.203 54.073 15.36 72.429 36.945l257.856 301.994c38.018 44.604 32.746 111.803-11.841 149.899v0zM253.679 193.692c0 21.15 16.576 37.736 37.736 37.736h9.8l21.114-55.829c0.774-2.284 3.792-4.528 6.822-4.528 3.018 0 5.999 2.244 8.283 4.528l21.123 55.829h8.33c21.114 0 37.736-16.585 37.736-37.736v-105.649h15.065v105.649c0 29.443-23.397 52.848-52.801 52.848h-75.472c-29.453 0-52.848-23.405-52.848-52.848v-105.649h15.112v105.649zM329.888 199.738l-12.094 31.688h24.178l-12.084-31.688zM321.595 155.956h15.075v-15.075h-15.075v15.075zM321.595 125.776h15.075v-15.114h-15.075v15.114zM321.595 254.098h15.065c21.16 0 37.736 16.576 37.736 37.736v22.621c0 21.114-16.576 37.736-37.736 37.736h-15.065c-21.15 0-37.736-16.622-37.736-37.736v-22.621c0-21.16 16.583-37.736 37.736-37.736v0zM298.925 314.455c0 12.821 9.84 22.621 22.67 22.621h15.065c12.868 0 22.67-9.803 22.67-22.621v-22.621c0-12.868-9.803-22.67-22.67-22.67h-15.065c-12.831 0-22.67 9.803-22.67 22.67v22.621zM336.66 53.392v27.093h-15.065v-27.299c5.022 0.081 10.044 0.145 15.065 0.206zM381.952 53.718v132.418h-15.065v-132.482c5.022 0.027 10.044 0.052 15.065 0.064zM291.415 52.569v133.567h-15.114v-133.982c5.039 0.15 10.075 0.29 15.114 0.415z" />
<glyph unicode="&#xe913;" glyph-name="WPL_GoogleMapWidget2" d="M512 960c-212.062 0-384-171.938-384-384s384-640 384-640 384 427.938 384 640-171.938 384-384 384zM512 320c-141.376 0-256 114.624-256 256s114.624 256 256 256 256-114.624 256-256-114.624-256-256-256zM512 704c-70.688 0-128-57.312-128-128s57.312-128 128-128 128 57.312 128 128-57.312 128-128 128z" />
<glyph unicode="&#xe914;" glyph-name="Amount" d="M534.13 510.578c-127.26 33.564-168.164 68.267-168.164 122.311 0 62.009 56.889 105.244 151.324 105.244 99.783 0 136.533-48.356 140.117-119.467h123.847c-2.158 106.642-77.889 194.991-178.401 216.481l-1.482 0.265v124.587h-168.164v-122.88c-108.715-23.893-196.153-95.573-196.153-205.369 0-131.413 107.065-196.836 263.396-234.951 140.117-34.133 168.164-84.196 168.164-137.102 0-39.253-27.477-101.831-151.324-101.831-115.484 0-160.882 52.338-167.026 119.467h-123.278c8.342-112.9 94.734-203.291 205.025-217.756l1.197-0.128v-123.449h168.164v122.311c109.284 21.049 196.153 85.333 196.153 201.956 0 161.564-136.192 216.747-263.396 250.311z" />
<glyph unicode="&#xe915;" glyph-name="Bathroom" d="M148.372 438.892v374.191c0.652 34.828 29.039 62.812 63.963 62.812 33.785 0 61.453-26.189 63.81-59.374l0.012-0.204h-34.816v-56.805h127.838v56.805h-35.032c-2.674 64.645-55.73 116.040-120.789 116.040-0.375 0-0.75-0.002-1.125-0.005h0.057c-0.371 0.004-0.81 0.006-1.25 0.006-66.186 0-119.944-53.215-120.821-119.193l-0.001-0.083v-374.191h-90.22v-118.083h991.933v118.083h-843.56zM38.319 264.003v-120.67c0.929-77.065 62.182-139.523 138.678-142.382l0.262-0.008v-37.996h58.099v37.726h521.971v-37.726h58.099v38.050c76.416 3.267 137.247 65.547 138.185 142.245l0.001 0.091v120.67h-915.294zM276.211 701.305h57.937v-66.291h-57.937v66.291zM276.211 595.294h57.937v-66.452h-57.937v66.506zM187.069 701.305h58.152v-66.291h-58.152v66.291zM187.069 595.294h58.152v-66.452h-58.152v66.506zM365.514 701.305h58.152v-66.291h-58.152v66.291zM365.514 595.294h58.152v-66.452h-58.152v66.506z" />
<glyph unicode="&#xe916;" glyph-name="Bedroom" d="M1021.952 303.383l-112.733 174.266v320.559l-45.894 44.823h-702.65l-45.894-44.823v-320.559l-112.733-174.266h1019.904zM817.478 753.431v-223.697c-86.626 21.282-186.076 33.489-288.377 33.489-6.012 0-12.015-0.042-18.007-0.126l0.906 0.010c-5.087 0.074-11.091 0.116-17.106 0.116-102.3 0-201.748-12.208-296.968-35.246l8.596 1.757v223.697h610.956zM0 248.273v-89.6h107.055v-123.392h91.648v123.345h626.595v-123.392h91.648v123.392h107.055v89.647h-1024zM474.764 609.699v52.41c0 30.813-46.080 55.855-102.865 55.855s-102.865-25.041-102.865-55.855v-78.522c27.905 7.216 62.667 13.747 98.081 18.177l4.319 0.441c37.516 3.584 103.331 7.494 103.331 7.494zM754.967 583.54v78.569c0 30.999-46.033 56.134-102.865 56.134s-102.865-25.321-102.865-56.134v-52.41s65.815-3.91 103.331-7.401c39.753-4.909 74.509-11.472 108.483-20.005l-6.083 1.294z" />
<glyph unicode="&#xe917;" glyph-name="Calendar" horiz-adv-x="922" d="M307.2 499.2h-102.4v-102.4h102.4v102.4zM512 499.2h-102.4v-102.4h102.4v102.4zM716.8 499.2h-102.4v-102.4h102.4v102.4zM819.2 857.6h-51.2v102.4h-102.4v-102.4h-409.6v102.4h-102.4v-102.4h-51.2c-56.278-0.029-101.889-45.657-101.889-101.939 0-0.162 0-0.324 0.001-0.486v0.025l-0.512-716.8c0-56.554 45.846-102.4 102.4-102.4v0h716.8c56.484 0.174 102.226 45.916 102.4 102.383v716.817c-0.174 56.484-45.916 102.226-102.383 102.4h-0.017zM819.2 38.4h-716.8v563.2h716.8v-563.2z" />
<glyph unicode="&#xe918;" glyph-name="Card" d="M921.6 857.6h-819.2c-0.077 0-0.168 0-0.259 0-56.13 0-101.632-45.502-101.632-101.632 0-0.27 0.001-0.54 0.003-0.81v0.041l-0.512-614.4c0-0.107-0.001-0.233-0.001-0.359 0-56.356 45.686-102.042 102.042-102.042 0.126 0 0.252 0 0.379 0.001h819.18c0.107 0 0.233-0.001 0.359-0.001 56.356 0 102.042 45.686 102.042 102.042 0 0.126 0 0.252-0.001 0.379v-0.020 614.4c0 0.107 0.001 0.233 0.001 0.359 0 56.356-45.686 102.042-102.042 102.042-0.126 0-0.252 0-0.379-0.001h0.020zM921.6 140.8h-819.2v307.2h819.2v-307.2zM921.6 652.8h-819.2v102.4h819.2v-102.4z" />
<glyph unicode="&#xe919;" glyph-name="Email" d="M921.6 857.6h-819.2c-56.333-0.291-101.888-46.025-101.888-102.399 0 0 0-0.001 0-0.001v0l-0.512-614.4c0.174-56.484 45.916-102.226 102.383-102.4h819.217c56.484 0.174 102.226 45.916 102.4 102.383v614.417c-0.174 56.484-45.916 102.226-102.383 102.4h-0.017zM921.6 652.8l-409.6-256-409.6 256v102.4l409.6-256 409.6 256v-102.4z" />
<glyph unicode="&#xe91a;" glyph-name="HousePlan" d="M1016.548 61.156l-68.267 66.674c-6.245 6.038-14.762 9.759-24.149 9.759s-17.905-3.721-24.159-9.768l0.010 0.009c-6.179-5.968-10.015-14.326-10.015-23.58s3.836-17.613 10.005-23.571l0.009-0.009 10.012-9.785h-655.303l10.012 9.785c6.179 5.968 10.015 14.326 10.015 23.58s-3.836 17.613-10.005 23.571l-0.009 0.009c-6.248 6.055-14.777 9.787-24.178 9.787s-17.93-3.732-24.187-9.795l0.009 0.009-68.437-66.674c-6.196-5.97-10.044-14.34-10.044-23.609s3.848-17.639 10.034-23.599l0.010-0.010 68.267-66.674c6.248-6.055 14.777-9.787 24.178-9.787s17.93 3.732 24.187 9.795l-0.009-0.009c6.179 5.968 10.015 14.326 10.015 23.58s-3.836 17.613-10.005 23.571l-0.009 0.009-10.012 9.785h655.417l-10.012-9.785c-6.179-5.968-10.015-14.326-10.015-23.58s3.836-17.613 10.005-23.571l0.009-0.009c6.245-6.038 14.762-9.759 24.149-9.759s17.905 3.721 24.159 9.768l-0.010-0.009 68.267 66.674c6.213 5.973 10.073 14.354 10.073 23.636 0 9.255-3.837 17.614-10.006 23.572l-0.010 0.009zM147.911 261.006l-10.012-9.785v595.001l10.012-9.842c6.248-6.055 14.777-9.787 24.178-9.787s17.93 3.732 24.187 9.795l-0.009-0.009c6.179 5.968 10.015 14.326 10.015 23.58s-3.836 17.613-10.005 23.571l-0.009 0.009-68.267 66.674c-6.248 6.055-14.777 9.787-24.178 9.787s-17.93-3.732-24.187-9.795l0.009 0.009-68.267-66.674c-6.179-5.968-10.015-14.326-10.015-23.58s3.836-17.613 10.005-23.571l0.009-0.009c6.248-6.055 14.777-9.787 24.178-9.787s17.93 3.732 24.187 9.795l-0.009-0.009 9.899 9.842v-595.001l-10.012 9.785c-6.248 6.055-14.777 9.787-24.178 9.787s-17.93-3.732-24.187-9.795l0.009 0.009c-6.179-5.968-10.015-14.326-10.015-23.58s3.836-17.613 10.005-23.571l0.009-0.009 68.267-66.674c6.245-6.038 14.762-9.759 24.149-9.759s17.905 3.721 24.159 9.768l-0.010-0.009 68.267 66.674c6.179 5.968 10.015 14.326 10.015 23.58s-3.836 17.613-10.005 23.571l-0.009 0.009c-6.238 6.005-14.733 9.704-24.092 9.704s-17.854-3.699-24.103-9.715l0.011 0.011zM855.609 693.362h170.667v233.244c-0.225 18.491-15.267 33.394-33.79 33.394-0.021 0-0.042 0-0.062 0h-467.055v-266.809h170.667c18.411 0 33.337-14.925 33.337-33.337s-14.925-33.337-33.337-33.337h-170.667v-100.068c0-18.851-15.282-34.133-34.133-34.133s-34.133 15.282-34.133 34.133v0 433.55h-148.196c-0.102 0.001-0.223 0.002-0.344 0.002-18.503 0-33.533-14.872-33.789-33.315v-689.176c0.256-18.467 15.286-33.339 33.789-33.339 0.121 0 0.242 0.001 0.363 0.002h147.893v166.628c0 18.851 15.282 34.133 34.133 34.133s34.133-15.282 34.133-34.133v0-166.741h467.058c0.102-0.001 0.223-0.002 0.344-0.002 18.503 0 33.533 14.872 33.789 33.315v389.087h-170.667c-18.403 0.032-33.308 14.958-33.308 33.365 0 18.427 14.938 33.365 33.365 33.365 0.020 0 0.040 0 0.060 0h-0.003z" />
<glyph unicode="&#xe91b;" glyph-name="Location" horiz-adv-x="717" d="M358.4 960c-197.939 0-358.4-160.461-358.4-358.4v0c0-268.8 358.4-665.6 358.4-665.6s358.4 396.8 358.4 665.6c0 197.939-160.461 358.4-358.4 358.4v0zM358.4 473.6c-70.692 0-128 57.308-128 128s57.308 128 128 128c70.692 0 128-57.308 128-128v0c0-70.692-57.308-128-128-128v0z" />
<glyph unicode="&#xe91c;" glyph-name="MLSProvider" d="M673.684 474.947v323.368l-161.684 161.684-161.684-161.684v-107.789h-323.368v-754.526h970.105v538.947h-323.368zM242.526 43.789h-107.789v107.789h107.789v-107.789zM242.526 259.368h-107.789v107.789h107.789v-107.789zM242.526 474.947h-107.789v107.789h107.789v-107.789zM565.895 43.789h-107.789v107.789h107.789v-107.789zM565.895 259.368h-107.789v107.789h107.789v-107.789zM565.895 474.947h-107.789v107.789h107.789v-107.789zM565.895 690.526h-107.789v107.789h107.789v-107.789zM889.263 43.789h-107.789v107.789h107.789v-107.789zM889.263 259.368h-107.789v107.789h107.789v-107.789z" />
<glyph unicode="&#xe91d;" glyph-name="Name" d="M512 448c141.385 0 256 114.615 256 256s-114.615 256-256 256c-141.385 0-256-114.615-256-256v0c0-141.385 114.615-256 256-256v0zM512 320c-170.88 0-512-85.76-512-256v-128h1024v128c0 170.24-341.12 256-512 256z" />
<glyph unicode="&#xe91e;" glyph-name="Office" d="M921.6 729.6h-204.8v102.4c0 0.107 0.001 0.233 0.001 0.359 0 56.356-45.686 102.042-102.042 102.042-0.126 0-0.252 0-0.379-0.001h-204.78c-0.107 0-0.233 0.001-0.359 0.001-56.356 0-102.042-45.686-102.042-102.042 0-0.126 0-0.252 0.001-0.379v0.020-102.4h-204.8c-0.077 0-0.168 0-0.259 0-56.13 0-101.632-45.502-101.632-101.632 0-0.27 0.001-0.54 0.003-0.81v0.041l-0.512-563.2c0-0.107-0.001-0.233-0.001-0.359 0-56.356 45.686-102.042 102.042-102.042 0.126 0 0.252 0 0.379 0.001h819.18c0.107 0 0.233-0.001 0.359-0.001 56.356 0 102.042 45.686 102.042 102.042 0 0.126 0 0.252-0.001 0.379v-0.020 563.2c0 0.107 0.001 0.233 0.001 0.359 0 56.356-45.686 102.042-102.042 102.042-0.126 0-0.252 0-0.379-0.001h0.020zM614.4 729.6h-204.8v102.4h204.8v-102.4z" />
<glyph unicode="&#xe91f;" glyph-name="Phone" d="M205.938 516.836c84.054-162.004 212.892-290.843 370.119-372.635l4.779-2.262 125.156 125.156c10.237 10.254 24.387 16.597 40.020 16.597 6.443 0 12.635-1.078 18.405-3.063l-0.398 0.119c60.475-20.56 130.136-32.427 202.569-32.427 0.184 0 0.369 0 0.553 0h-0.029c31.419 0 56.889-25.47 56.889-56.889v0-198.542c0-31.419-25.47-56.889-56.889-56.889v0c-534.121 0-967.111 432.99-967.111 967.111v0c0 31.419 25.47 56.889 56.889 56.889v0h199.111c31.419 0 56.889-25.47 56.889-56.889v0c0-0.282-0.001-0.617-0.001-0.951 0-72.285 11.868-141.798 33.761-206.698l-1.334 4.556c1.747-5.224 2.755-11.238 2.755-17.488 0-15.865-6.494-30.214-16.97-40.532l-0.007-0.007z" />
<glyph unicode="&#xe920;" glyph-name="Search" d="M732.287 316.092h-46.294l-16.413 15.812c57.426 66.493 92.406 153.768 92.406 249.212 0 211.114-171.142 382.256-382.256 382.256s-382.256-171.142-382.256-382.256c0-211.114 171.142-382.256 382.256-382.256 95.247 0 182.358 34.836 249.287 92.462l-0.5-0.421 15.872-16.413v-46.354l293.035-292.434 87.297 87.297zM380.633 316.092c-145.668 0-263.756 118.087-263.756 263.756s118.087 263.756 263.756 263.756c145.668 0 263.756-118.087 263.756-263.756v0c0-0.125 0-0.273 0-0.421 0-145.436-117.899-263.335-263.335-263.335-0.148 0-0.296 0-0.444 0h0.023z" />
</font>
</defs>
</svg>
