<?xml version="1.0" encoding="utf-8"?>
<!-- Generator: Adobe Illustrator 16.0.0, SVG Export Plug-In . SVG Version: 6.00 Build 0)  -->
<!DOCTYPE svg PUBLIC "-//W3C//DTD SVG 1.1//EN" "http://www.w3.org/Graphics/SVG/1.1/DTD/svg11.dtd">
<svg version="1.1" id="A_1_" xmlns="http://www.w3.org/2000/svg" xmlns:xlink="http://www.w3.org/1999/xlink" x="0px" y="0px"
	 width="200px" height="40px" viewBox="0 0 200 40" enable-background="new 0 0 200 40" xml:space="preserve">
<g id="logo_1_">
</g>
<g id="Rectangle_12">
	<g>
		<path fill="#0E4E89" d="M43.689,7.5h-33c-1.104,0-2,0.896-2,2v21c0,1.104,0.896,2,2,2h33c1.104,0,2-0.896,2-2v-21
			C45.689,8.396,44.794,7.5,43.689,7.5z M23.689,28.5l-9.006-0.016l0.006-3.984h5v-4h4V28.5z M28.689,28.5h-3v-17h6v4h-3V28.5z
			 M39.689,28.5h-9v-11h4v7h5V28.5z"/>
	</g>
</g>
<g id="realtyna_2_">
	<g>
		<path d="M59.453,29.93l-1.368-2.109c-0.768-1.188-1.604-1.98-2.51-2.383V25.4c0.713-0.119,1.308-0.344,1.784-0.676
			c0.477-0.332,0.83-0.728,1.06-1.188c0.229-0.459,0.345-0.938,0.345-1.438c0-0.396-0.07-0.793-0.211-1.199
			c-0.141-0.406-0.374-0.792-0.699-1.158c-0.326-0.365-0.781-0.667-1.368-0.904c-0.586-0.237-1.301-0.356-2.145-0.356h-5.245v0.197
			h0.206c0.35,0,0.672,0.112,0.967,0.337c0.295,0.226,0.442,0.613,0.442,1.163v10.443c0,0.375-0.077,0.674-0.231,0.896
			c-0.154,0.224-0.349,0.379-0.581,0.469c-0.233,0.093-0.501,0.144-0.803,0.154v0.15h4.824v-0.15
			c-1.098-0.031-1.646-0.537-1.646-1.519v-5.054c0.356,0,0.666,0.02,0.931,0.057c0.264,0.038,0.561,0.132,0.89,0.281
			c0.329,0.15,0.684,0.398,1.064,0.744c0.38,0.349,0.752,0.8,1.115,1.354l1.811,2.729c0.027,0.023,0.108,0.133,0.241,0.322
			c0.134,0.19,0.235,0.334,0.304,0.428c0.116,0.145,0.227,0.279,0.329,0.408c0.104,0.127,0.213,0.26,0.329,0.396h2.757v-0.148
			c-0.364-0.031-0.732-0.174-1.106-0.424C60.565,31.469,60.07,30.872,59.453,29.93z M53.138,25.203h-0.863v-6.271
			c0.246-0.057,0.562-0.085,0.946-0.085c0.945,0,1.698,0.174,2.257,0.521c0.559,0.347,0.955,0.775,1.188,1.284
			c0.232,0.51,0.35,1.029,0.35,1.562c0,0.638-0.131,1.177-0.391,1.617c-0.261,0.44-0.681,0.778-1.261,1.017
			C54.785,25.085,54.043,25.203,53.138,25.203z M72.463,31.055c-0.203,0.256-0.479,0.455-0.828,0.6
			c-0.349,0.145-0.796,0.217-1.337,0.217h-2.253c-0.563,0-0.92-0.137-1.074-0.403c-0.154-0.268-0.231-0.587-0.231-0.956v-4.902h2.91
			c0.268,0,0.524,0.02,0.771,0.058c0.13,0,0.279,0.03,0.447,0.094c0.168,0.064,0.338,0.188,0.509,0.38
			c0.172,0.19,0.288,0.465,0.351,0.819h0.153v-3.131h-0.153c-0.063,0.581-0.309,0.952-0.741,1.114
			c-0.432,0.164-0.922,0.244-1.471,0.244H66.74v-6.271h3.157c1.7,0,2.551,0.581,2.551,1.743h0.144v-2.175h-9.03v0.159h0.206
			c0.521,0,0.886,0.156,1.096,0.469c0.209,0.313,0.313,0.682,0.313,1.106v10.406c0,0.538-0.154,0.925-0.463,1.162
			s-0.624,0.354-0.946,0.354h-0.206v0.15h9.03l0.524-2.166h-0.144C72.834,30.486,72.665,30.797,72.463,31.055z M87.066,31.477
			c-0.213-0.274-0.439-0.72-0.679-1.332l-4.536-11.832h-1.11L76.463,30.2c-0.227,0.632-0.492,1.102-0.798,1.411
			c-0.305,0.31-0.711,0.486-1.219,0.529v0.148h3.559v-0.148c-0.391,0-0.692-0.063-0.904-0.192c-0.213-0.128-0.319-0.386-0.319-0.773
			c0-0.28,0.082-0.651,0.247-1.114l1.203-3.395h5.245l1.348,3.665c0,0.024,0.014,0.063,0.041,0.112
			c0.13,0.354,0.195,0.642,0.195,0.854c0,0.389-0.137,0.625-0.411,0.713s-0.665,0.131-1.173,0.131v0.15h4.947v-0.15
			c-0.302-0.022-0.551-0.072-0.746-0.146C87.482,31.924,87.278,31.75,87.066,31.477z M78.406,26.169l2.314-6.553h0.041l2.468,6.553
			H78.406z M98.898,31.109c-0.199,0.257-0.468,0.447-0.808,0.572c-0.34,0.125-0.794,0.188-1.362,0.188h-1.307
			c-0.747,0-1.285-0.116-1.614-0.348c-0.329-0.23-0.494-0.646-0.494-1.246V20.197c0-0.588,0.165-0.99,0.494-1.21
			c0.329-0.219,0.706-0.334,1.131-0.347v-0.159h-4.844v0.159c0.438,0.013,0.817,0.132,1.136,0.356
			c0.319,0.225,0.479,0.625,0.479,1.2v10.425c0,0.48-0.143,0.854-0.427,1.12c-0.284,0.266-0.612,0.397-0.982,0.397h-0.205v0.149
			h9.009l0.576-2.271h-0.175C99.299,30.491,99.097,30.854,98.898,31.109z M111.296,18.481h-9.812c-0.24,0-0.447-0.011-0.623-0.033
			c-0.174-0.021-0.327-0.059-0.458-0.112c-0.131-0.053-0.236-0.117-0.319-0.192c-0.082-0.074-0.178-0.19-0.287-0.347h-0.165v3.375
			h0.165c0.082-0.899,0.371-1.482,0.868-1.748c0.497-0.266,1.112-0.398,1.849-0.398h3.014v11.597c0,0.544-0.156,0.93-0.469,1.158
			c-0.313,0.228-0.693,0.348-1.146,0.359v0.149h4.824v-0.149c-1.098-0.031-1.646-0.537-1.646-1.52V19.025h3.014
			c0.733,0,1.353,0.133,1.854,0.398c0.5,0.266,0.788,0.849,0.863,1.748h0.164v-3.375h-0.164
			C112.454,18.253,111.947,18.481,111.296,18.481z M124.383,18.641c0.131,0.025,0.254,0.057,0.37,0.094
			c0.116,0.038,0.231,0.116,0.345,0.234c0.113,0.119,0.17,0.285,0.17,0.497c0,0.307-0.213,0.747-0.639,1.322l-2.797,3.844
			l-3.157-4.266c-0.268-0.362-0.401-0.644-0.401-0.844c0-0.175,0.078-0.361,0.231-0.559c0.154-0.196,0.507-0.305,1.054-0.323v-0.159
			h-5.379v0.159c0.557,0.013,0.996,0.112,1.322,0.3c0.325,0.188,0.693,0.566,1.105,1.135l3.854,5.269v5.297
			c0,0.508-0.144,0.881-0.427,1.121c-0.284,0.24-0.67,0.366-1.157,0.379v0.15h4.806v-0.15c-0.461-0.013-0.854-0.142-1.18-0.389
			c-0.324-0.247-0.488-0.617-0.488-1.111v-5.531l3.539-4.854c0.227-0.287,0.438-0.532,0.637-0.735s0.476-0.398,0.828-0.586
			c0.354-0.188,0.756-0.284,1.209-0.291v-0.159h-3.848L124.383,18.641L124.383,18.641z M141.736,18.641
			c0.535,0.019,0.828,0.004,1.078,0.204c0.25,0.2,0.322,0.267,0.381,0.598c0.059,0.332,0.088,0.831,0.088,1.5v8.916l-11.275-11.377
			h-2.849v0.159c0.397,0.063,0.729,0.155,0.998,0.276c0.267,0.122,0.622,0.414,1.069,0.877l0.313,0.322l0.021,9.202
			c0,0.787-0.01,1.414-0.107,1.806s-0.143,0.622-0.378,0.769c-0.236,0.147-0.567,0.229-0.992,0.248v0.15h3.795v-0.15
			c-0.631-0.022-1.071-0.199-1.326-0.522c-0.116-0.15-0.204-0.396-0.268-0.741c-0.063-0.344-0.095-0.868-0.095-1.575v-8.491
			l11.621,11.662h0.104l0.012-11.943c0-0.5,0.063-0.883,0.187-1.148c0.123-0.265,0.297-0.444,0.52-0.534
			c0.223-0.091,0.526-0.158,0.91-0.202v-0.159h-3.807V18.641L141.736,18.641z M159.293,31.995c-0.195-0.071-0.398-0.245-0.611-0.521
			c-0.213-0.274-0.438-0.72-0.68-1.332l-4.535-11.832h-1.359L147.828,30.2c-0.227,0.632-0.492,1.102-0.797,1.411
			c-0.305,0.309-0.711,0.486-1.219,0.529v0.148h3.808v-0.148c-0.392,0-0.692-0.063-0.905-0.192
			c-0.213-0.128-0.318-0.386-0.318-0.773c0-0.28,0.082-0.651,0.246-1.114l1.205-3.395h5.244l1.348,3.665
			c0,0.024,0.015,0.063,0.041,0.112c0.131,0.354,0.195,0.642,0.195,0.854c0,0.389-0.138,0.625-0.412,0.713
			c-0.272,0.088-0.664,0.131-1.172,0.131v0.15h4.946v-0.15C159.736,32.116,159.488,32.066,159.293,31.995z M150.021,26.169
			l2.313-6.553h0.041l2.469,6.553H150.021z"/>
	</g>
</g>
<g id="IDX_2_" opacity="0.502">
	<g>
		<path d="M169.357,32.527h1.4v-8.564h-1.4V32.527z M177.566,23.963h-4.785v8.564h4.863c2.896,0,4.045-2.017,4.045-4.401
			C181.689,25.643,180.395,23.963,177.566,23.963z M177.579,31.425h-3.396v-6.358h3.133c2.432,0,2.974,1.572,2.974,3.084
			C180.289,29.673,179.879,31.425,177.579,31.425z M187.568,28.139l3.637-4.176h-1.732l-2.773,3.299l-2.696-3.299h-1.785
			l3.544,4.176l-3.729,4.391h1.744l2.843-3.467l2.854,3.467h1.838L187.568,28.139z"/>
	</g>
</g>
<g id="Powerd_By_2_">
	<g>
		<path fill="#0E4E89" d="M54.187,8.172c-0.234-0.204-0.53-0.362-0.89-0.476c-0.36-0.114-0.785-0.17-1.276-0.17h-2.394v7.23h1.367
			v-2.545h1.026c0.479,0,0.895-0.059,1.251-0.176c0.355-0.116,0.652-0.279,0.89-0.489c0.236-0.21,0.415-0.461,0.533-0.753
			c0.118-0.292,0.178-0.612,0.178-0.963c0-0.336-0.056-0.646-0.168-0.93C54.593,8.618,54.42,8.375,54.187,8.172z M53.414,10.384
			c-0.062,0.165-0.153,0.306-0.275,0.42c-0.121,0.115-0.275,0.204-0.462,0.266c-0.188,0.062-0.405,0.092-0.656,0.092h-1.026V8.566
			h1.026c0.251,0,0.47,0.029,0.656,0.088c0.187,0.058,0.341,0.143,0.462,0.252c0.122,0.11,0.214,0.243,0.275,0.4
			c0.061,0.156,0.091,0.332,0.091,0.524C53.505,10.035,53.475,10.219,53.414,10.384z M62.161,8.499
			c-0.325-0.328-0.717-0.586-1.175-0.772c-0.457-0.187-0.964-0.28-1.52-0.28c-0.556,0-1.063,0.093-1.522,0.277
			c-0.459,0.186-0.852,0.442-1.179,0.772c-0.327,0.33-0.58,0.722-0.76,1.173c-0.18,0.452-0.27,0.942-0.27,1.473
			c0,0.531,0.09,1.021,0.27,1.473c0.18,0.451,0.433,0.842,0.76,1.172c0.327,0.33,0.72,0.588,1.179,0.772
			c0.46,0.186,0.967,0.278,1.522,0.278c0.555,0,1.063-0.093,1.52-0.278c0.458-0.185,0.85-0.442,1.175-0.772
			c0.325-0.33,0.577-0.721,0.757-1.172c0.18-0.452,0.27-0.942,0.27-1.473c0-0.531-0.09-1.021-0.27-1.473
			C62.738,9.218,62.486,8.827,62.161,8.499z M61.625,12.209c-0.107,0.315-0.261,0.582-0.46,0.8c-0.2,0.219-0.443,0.386-0.729,0.503
			c-0.287,0.116-0.609,0.175-0.969,0.175c-0.36,0-0.683-0.059-0.971-0.175c-0.288-0.117-0.533-0.284-0.734-0.503
			c-0.201-0.218-0.356-0.484-0.465-0.8s-0.163-0.671-0.163-1.067s0.055-0.753,0.163-1.067c0.108-0.315,0.264-0.583,0.465-0.803
			c0.201-0.22,0.446-0.389,0.734-0.505c0.288-0.117,0.611-0.175,0.971-0.175c0.36,0,0.682,0.058,0.969,0.175
			c0.286,0.116,0.529,0.285,0.729,0.505c0.199,0.22,0.353,0.487,0.46,0.803c0.106,0.314,0.159,0.671,0.159,1.067
			S61.731,11.894,61.625,12.209z M72.936,7.616c-0.081,0.061-0.134,0.132-0.157,0.215l-1.25,4.325
			c-0.027,0.104-0.054,0.215-0.079,0.335c-0.025,0.12-0.05,0.245-0.073,0.375c-0.055-0.26-0.119-0.496-0.193-0.71L69.75,7.831
			c-0.03-0.093-0.085-0.167-0.162-0.222c-0.078-0.056-0.177-0.083-0.295-0.083h-0.401c-0.115,0-0.213,0.032-0.293,0.095
			c-0.079,0.063-0.133,0.134-0.16,0.21l-1.443,4.325c-0.037,0.107-0.072,0.223-0.104,0.348c-0.033,0.125-0.063,0.258-0.09,0.397
			c-0.023-0.14-0.048-0.272-0.073-0.397s-0.054-0.24-0.084-0.348l-1.25-4.325c-0.027-0.093-0.081-0.167-0.16-0.222
			c-0.08-0.056-0.179-0.083-0.298-0.083h-1.148l2.282,7.23h1.235l1.621-4.94c0.021-0.063,0.041-0.132,0.063-0.205
			c0.022-0.073,0.043-0.151,0.063-0.234c0.021,0.083,0.042,0.161,0.063,0.234c0.022,0.073,0.043,0.142,0.063,0.205l1.606,4.94h1.235
			l2.281-7.23H73.23C73.115,7.526,73.018,7.557,72.936,7.616z M75.31,14.757h4.635v-1.075h-3.258v-2.045h2.567v-1.035h-2.567V8.597
			h3.258v-1.07H75.31V14.757z M84.829,11.672c0.258-0.08,0.487-0.188,0.688-0.32c0.202-0.134,0.371-0.288,0.509-0.465
			c0.137-0.177,0.242-0.373,0.314-0.59c0.073-0.217,0.109-0.447,0.109-0.69c0-0.307-0.053-0.588-0.16-0.843
			c-0.106-0.255-0.274-0.474-0.503-0.657s-0.521-0.326-0.879-0.428c-0.358-0.102-0.787-0.152-1.289-0.152h-2.241v7.23h1.367v-2.825
			h0.585c0.135,0,0.237,0.019,0.308,0.055c0.069,0.037,0.133,0.099,0.19,0.186l1.545,2.314c0.058,0.087,0.128,0.153,0.211,0.2
			s0.184,0.07,0.303,0.07h1.229l-1.84-2.67C85.151,11.906,85.002,11.769,84.829,11.672z M84.272,10.871
			c-0.191,0.063-0.416,0.096-0.673,0.096h-0.854v-2.4h0.874c0.505,0,0.881,0.099,1.126,0.295c0.246,0.197,0.368,0.479,0.368,0.845
			c0,0.184-0.03,0.353-0.091,0.506c-0.062,0.153-0.153,0.285-0.277,0.397C84.621,10.721,84.464,10.809,84.272,10.871z M99.902,8.539
			c-0.325-0.318-0.717-0.566-1.174-0.745c-0.459-0.179-0.965-0.268-1.521-0.268H94.4v7.23h2.807c0.557,0,1.063-0.089,1.521-0.266
			c0.457-0.177,0.849-0.425,1.174-0.745c0.324-0.319,0.576-0.701,0.756-1.145c0.18-0.444,0.271-0.93,0.271-1.46
			c0-0.53-0.093-1.017-0.271-1.46C100.478,9.237,100.228,8.857,99.902,8.539z M99.368,12.209c-0.108,0.315-0.263,0.582-0.462,0.8
			c-0.2,0.219-0.443,0.386-0.729,0.503c-0.286,0.116-0.608,0.175-0.969,0.175h-1.429v-5.09h1.429c0.358,0,0.683,0.059,0.969,0.175
			c0.286,0.117,0.529,0.284,0.729,0.503c0.199,0.218,0.354,0.484,0.462,0.8c0.108,0.314,0.163,0.671,0.163,1.067
			S99.476,11.894,99.368,12.209z M108.305,11.021c0.228-0.076,0.422-0.17,0.586-0.28c0.164-0.109,0.301-0.232,0.406-0.367
			c0.107-0.135,0.186-0.28,0.236-0.435c0.05-0.155,0.076-0.318,0.076-0.488c0-0.296-0.051-0.563-0.152-0.8
			c-0.102-0.236-0.262-0.438-0.479-0.604c-0.222-0.167-0.498-0.295-0.84-0.386c-0.343-0.09-0.752-0.135-1.232-0.135h-2.535v7.23
			h2.773c0.428,0,0.807-0.054,1.139-0.16s0.611-0.254,0.84-0.442c0.227-0.188,0.398-0.413,0.52-0.673
			c0.117-0.26,0.178-0.543,0.178-0.85C109.818,11.781,109.313,11.245,108.305,11.021z M105.736,8.566h1.17
			c0.461,0,0.799,0.08,1.016,0.24c0.219,0.16,0.326,0.428,0.326,0.805c0,0.363-0.121,0.629-0.361,0.795
			c-0.24,0.167-0.594,0.25-1.057,0.25h-1.094V8.566L105.736,8.566z M108.396,13.026c-0.045,0.134-0.119,0.25-0.226,0.351
			c-0.104,0.1-0.237,0.18-0.409,0.239c-0.173,0.061-0.386,0.09-0.64,0.09h-1.388v-2.119h1.382c0.241,0,0.444,0.022,0.614,0.069
			c0.17,0.047,0.31,0.114,0.418,0.203c0.107,0.088,0.188,0.194,0.238,0.319c0.049,0.125,0.076,0.267,0.076,0.423
			C108.467,12.752,108.443,12.894,108.396,13.026z M115.928,7.526c-0.115,0-0.211,0.032-0.285,0.095s-0.129,0.132-0.166,0.205
			l-1.338,2.415c-0.078,0.141-0.146,0.274-0.201,0.402c-0.057,0.129-0.104,0.256-0.147,0.383c-0.049-0.123-0.103-0.249-0.158-0.377
			c-0.06-0.129-0.125-0.265-0.202-0.408l-1.349-2.415c-0.047-0.086-0.104-0.158-0.177-0.215c-0.069-0.057-0.161-0.085-0.28-0.085
			h-1.205l2.681,4.42v2.811h1.366v-2.811l2.675-4.42H115.928z M88.519,14.757h4.635v-1.075h-3.258v-2.045h2.567v-1.035h-2.567V8.597
			h3.258v-1.07h-4.635V14.757z"/>
	</g>
</g>
</svg>
